#VRML V2.0 utf8
# 3D model generated by easyeda2kicad.py (https://github.com/uPesy/easyeda2kicad.py)

Shape{
    appearance Appearance {
        material  Material 	{
            diffuseColor 0.34901960784313724 0.34901960784313724 0.34901960784313724
            specularColor 0.023529411764705882 0.023529411764705882 0.023529411764705882
            ambientIntensity 0.498
            transparency 0.0
            shininess 0.5
        }
    }
    geometry IndexedFaceSet {
        ccw TRUE
        solid FALSE
        coord DEF co Coordinate {
            point [
                0.3087 -0.5234 0.4728, 0.3087 -0.5586 0.4728, 0.3246 -0.5586 0.4728, 0.3714 -0.6263 0.4728, 0.3698 -0.6265 0.4728, 0.3797 -0.6265 0.4728, 0.4759 -0.5634 0.4728, 0.463 -0.5631 0.4728, 0.4573 -0.5631 0.4728, 0.4533 -0.5522 0.4728, 0.4387 -0.5522 0.4728, 0.4387 -0.5634 0.4728, 0.4479 -0.5234 0.4728, 0.4759 -0.5231 0.4728, 0.4387 -0.5231 0.4728, 0.4368 -0.5522 0.4728, 0.4329 -0.5631 0.4728, 0.4262 -0.5634 0.4728, 0.4273 -0.5631 0.4728, 0.4262 -0.5231 0.4728, 0.4387 -0.5331 0.4728, 0.4424 -0.5234 0.4728, 0.3466 -0.5274 0.4728, 0.3542 -0.5573 0.4728, 0.3514 -0.5279 0.4728, 0.3542 -0.529 0.4728, 0.3446 -0.5275 0.4728, 0.3412 -0.5282 0.4728, 0.3381 -0.5297 0.4728, 0.3322 -0.5382 0.4728, 0.3316 -0.5437 0.4728, 0.3457 -0.5592 0.4728, 0.3357 -0.5318 0.4728, 0.3355 -0.5321 0.4728, 0.352 -0.5583 0.4728, 0.3475 -0.5591 0.4728, 0.3335 -0.5348 0.4728, 0.3316 -0.5456 0.4728, 0.3323 -0.5495 0.4728, 0.3337 -0.5526 0.4728, 0.3355 -0.555 0.4728, 0.3366 -0.5561 0.4728, 0.3422 -0.5589 0.4728, 0.3393 -0.5579 0.4728, 0.3555 -0.5295 0.4728, 0.3559 -0.5566 0.4728, 0.3559 -0.5297 0.4728, 0.3616 -0.5634 0.4728, 0.3616 -0.5231 0.4728, 0.3508 -0.5231 0.4728, 0.3517 -0.5231 0.4728, 0.3542 -0.5231 0.4728, 0.3542 -0.5239 0.4728, 0.3559 -0.5243 0.4728, 0.328 -0.5231 0.4728, 0.329 -0.5323 0.4728, 0.3319 -0.5286 0.4728, 0.3329 -0.5276 0.4728, 0.3366 -0.525 0.4728, 0.3408 -0.5234 0.4728, 0.3256 -0.5231 0.4728, 0.3271 -0.5367 0.4728, 0.328 -0.5349 0.4728, 0.328 -0.553 0.4728, 0.327 -0.5505 0.4728, 0.3256 -0.5634 0.4728, 0.3262 -0.544 0.4728, 0.3262 -0.5419 0.4728, 0.3382 -0.5628 0.4728, 0.3345 -0.561 0.4728, 0.328 -0.5634 0.4728, 0.3313 -0.5584 0.4728, 0.3309 -0.558 0.4728, 0.3286 -0.5546 0.4728, 0.3414 -0.5634 0.4728, 0.328 -0.5751 0.4728, 0.3425 -0.5637 0.4728, 0.3449 -0.5638 0.4728, 0.3542 -0.5751 0.4728, 0.3484 -0.5634 0.4728, 0.3559 -0.5615 0.4728, 0.3552 -0.5618 0.4728, 0.3542 -0.5634 0.4728, 0.3542 -0.5621 0.4728, 0.351 -0.5632 0.4728, 0.4136 -0.5864 0.4728, 0.4262 -0.5864 0.4728, 0.4262 -0.5751 0.4728, 0.4262 -0.6265 0.4728, 0.4262 -0.6261 0.4728, 0.4136 -0.6261 0.4728, 0.394 -0.6191 0.4728, 0.3946 -0.6214 0.4728, 0.3947 -0.6214 0.4728, 0.4082 -0.5978 0.4728, 0.389 -0.5751 0.4728, 0.4031 -0.5978 0.4728, 0.389 -0.6047 0.4728, 0.3953 -0.6191 0.4728, 0.395 -0.6204 0.4728, 0.389 -0.6265 0.4728, 0.389 -0.618 0.4728, 0.381 -0.5978 0.4728, 0.3797 -0.5751 0.4728, 0.3866 -0.5978 0.4728, 0.3921 -0.6261 0.4728, 0.392 -0.6265 0.4728, 0.39 -0.6312 0.4728, 0.3797 -0.6422 0.4728, 0.382 -0.6391 0.4728, 0.382 -0.6347 0.4728, 0.388 -0.6341 0.4728, 0.389 -0.633 0.4728, 0.389 -0.633 0.4728, 0.389 -0.6386 0.4728, 0.3873 -0.6393 0.4728, 0.389 -0.6422 0.4728, 0.3852 -0.6395 0.4728, 0.3841 -0.6394 0.4728, 0.3849 -0.6352 0.4728, 0.3861 -0.6351 0.4728, 0.3872 -0.6346 0.4728, 0.3954 -0.6304 0.4728, 0.3931 -0.6348 0.4728, 0.4262 -0.6422 0.4728, 0.3969 -0.6265 0.4728, 0.3913 -0.637 0.4728, 0.391 -0.6373 0.4728, 0.3892 -0.6385 0.4728, 0.2873 -0.6422 0.4728, 0.1639 -0.6422 0.4728, 0.2873 -0.7874 0.4728, 0.159 -0.6441 0.4728, 0.1522 -0.6449 0.4728, 0.1511 -0.6449 0.4728, 0.1444 -0.6438 0.4728, 0.1379 -0.6411 0.4728, -0.6728 -0.6265 0.4728, 0.1405 -0.6422 0.4728, -0.657 -0.6422 0.4728, -0.5118 -0.7874 0.4728, 0.1324 -0.6369 0.4728, 0.1282 -0.6318 0.4728, 0.1257 -0.6265 0.4728, 0.1115 -0.6196 0.4728, 0.1028 -0.6121 0.4728, 0.0963 -0.6029 0.4728, 0.1217 -0.6246 0.4728, 0.1254 -0.6257 0.4728, 0.1638 -0.5188 0.4728, 0.1769 -0.5141 0.4728, -0.5118 0.7874 0.4728, -0.7087 0.5906 0.4728, -0.7087 -0.5231 0.4728, 0.2873 0.7874 0.4728, 0.1895 -0.5127 0.4728, 0.2031 -0.5144 0.4728, 0.7087 -0.5231 0.4728, 0.7087 0.5906 0.4728, 0.6107 0.6885 0.4728, 0.6107 -0.5751 0.4728, 0.6107 -0.6265 0.4728, 0.6728 -0.6265 0.4728, 0.4387 -0.7874 0.4728, 0.4759 -0.7874 0.4728, 0.4759 -0.6422 0.4728, 0.5118 -0.7874 0.4728, 0.6107 -0.6422 0.4728, 0.6107 -0.6885 0.4728, 0.657 -0.6422 0.4728, 0.3768 -0.6137 0.4728, 0.3777 -0.6151 0.4728, 0.3771 -0.6032 0.4728, 0.3641 -0.5984 0.4728, 0.3616 -0.5751 0.4728, 0.3625 -0.5994 0.4728, 0.3616 -0.6002 0.4728, 0.3782 -0.6166 0.4728, 0.3784 -0.6184 0.4728, 0.3782 -0.6204 0.4728, 0.3776 -0.622 0.4728, 0.3766 -0.6233 0.4728, 0.3669 -0.5974 0.4728, 0.3703 -0.5971 0.4728, 0.3771 -0.5984 0.4728, 0.3738 -0.5974 0.4728, 0.3752 -0.6245 0.4728, 0.374 -0.6253 0.4728, 0.3699 -0.6011 0.4728, 0.3684 -0.6013 0.4728, 0.3644 -0.605 0.4728, 0.3671 -0.6016 0.4728, 0.3659 -0.6022 0.4728, 0.3645 -0.6056 0.4728, 0.3647 -0.6064 0.4728, 0.365 -0.6071 0.4728, 0.3655 -0.6076 0.4728, 0.3673 -0.6087 0.4728, 0.373 -0.6015 0.4728, 0.3703 -0.61 0.4728, 0.3758 -0.6025 0.4728, 0.3723 -0.6108 0.4728, 0.3756 -0.6127 0.4728, 0.3652 -0.6029 0.4728, 0.3648 -0.6035 0.4728, 0.3645 -0.6042 0.4728, 0.3593 -0.62 0.4728, 0.3542 -0.6265 0.4728, 0.361 -0.6007 0.4728, 0.3601 -0.602 0.4728, 0.3613 -0.6212 0.4728, 0.3616 -0.6213 0.4728, 0.3616 -0.6108 0.4728, 0.3607 -0.6099 0.4728, 0.3601 -0.6089 0.4728, 0.3595 -0.6073 0.4728, 0.3593 -0.6054 0.4728, 0.3595 -0.6036 0.4728, 0.3615 -0.6107 0.4728, 0.3644 -0.6224 0.4728, 0.3668 -0.6137 0.4728, 0.3639 -0.6123 0.4728, 0.3674 -0.6227 0.4728, 0.3677 -0.6227 0.4728, 0.3701 -0.615 0.4728, 0.3702 -0.6224 0.4728, 0.3733 -0.6189 0.4728, 0.3733 -0.6183 0.4728, 0.3715 -0.622 0.4728, 0.372 -0.6217 0.4728, 0.3725 -0.6212 0.4728, 0.373 -0.6206 0.4728, 0.3732 -0.6198 0.4728, 0.373 -0.6175 0.4728, 0.3727 -0.6168 0.4728, 0.372 -0.6162 0.4728, 0.3641 -0.6265 0.4728, 0.3622 -0.6262 0.4728, 0.3616 -0.6265 0.4728, 0.3616 -0.626 0.4728, 0.3593 -0.6251 0.4728, 0.367 -0.6268 0.4728, 0.3616 -0.6422 0.4728, 0.3831 -0.635 0.4728, 0.3318 -0.6125 0.4728, 0.3325 -0.6046 0.4728, 0.3308 -0.6139 0.4728, 0.3301 -0.6156 0.4728, 0.328 -0.6265 0.4728, 0.3306 -0.6225 0.4728, 0.33 -0.6208 0.4728, 0.328 -0.6422 0.4728, 0.3358 -0.6265 0.4728, 0.3357 -0.6264 0.4728, 0.3338 -0.6257 0.4728, 0.3454 -0.5974 0.4728, 0.3475 -0.5981 0.4728, 0.3475 -0.6217 0.4728, 0.3474 -0.6217 0.4728, 0.3475 -0.6261 0.4728, 0.3462 -0.6235 0.4728, 0.3446 -0.625 0.4728, 0.3334 -0.6112 0.4728, 0.3356 -0.6101 0.4728, 0.3354 -0.6027 0.4728, 0.3391 -0.6093 0.4728, 0.3435 -0.6013 0.4728, 0.3418 -0.6011 0.4728, 0.3385 -0.6015 0.4728, 0.3322 -0.6246 0.4728, 0.3316 -0.624 0.4728, 0.3491 -0.599 0.4728, 0.3504 -0.6003 0.4728, 0.3514 -0.602 0.4728, 0.3325 -0.5997 0.4728, 0.3335 -0.5991 0.4728, 0.3372 -0.5977 0.4728, 0.3423 -0.5971 0.4728, 0.3297 -0.6185 0.4728, 0.3298 -0.6177 0.4728, 0.3475 -0.6081 0.4728, 0.3474 -0.6059 0.4728, 0.3469 -0.6041 0.4728, 0.3463 -0.6031 0.4728, 0.3522 -0.6043 0.4728, 0.3525 -0.6079 0.4728, 0.3525 -0.6261 0.4728, 0.3455 -0.6023 0.4728, 0.3446 -0.6017 0.4728, 0.3542 -0.6422 0.4728, 0.3415 -0.6265 0.4728, 0.3387 -0.6268 0.4728, 0.2529 -0.5544 0.4728, 0.2606 -0.5609 0.4728, 0.2873 -0.5231 0.4728, 0.2873 -0.5634 0.4728, 0.2171 -0.5199 0.4728, 0.2216 -0.5231 0.4728, 0.2279 -0.5274 0.4728, 0.2378 -0.5391 0.4728, 0.2431 -0.5497 0.4728, 0.2445 -0.5502 0.4728, 0.1567 -0.5231 0.4728, 0.1556 -0.5237 0.4728, -0.7087 -0.5634 0.4728, 0.0949 -0.5634 0.4728, 0.0974 -0.5579 0.4728, 0.1042 -0.5492 0.4728, 0.1255 -0.537 0.4728, 0.1367 -0.5356 0.4728, 0.1489 -0.5294 0.4728, 0.1399 -0.5358 0.4728, 0.1431 -0.5362 0.4728, 0.1061 -0.5474 0.4728, 0.1151 -0.541 0.4728, 0.0923 -0.5924 0.4728, 0.0909 -0.5814 0.4728, -0.7087 -0.5906 0.4728, 0.091 -0.5786 0.4728, -0.7087 -0.5751 0.4728, 0.0916 -0.5751 0.4728, 0.0929 -0.568 0.4728, 0.2873 -0.6265 0.4728, 0.1786 -0.6265 0.4728, 0.1786 -0.6266 0.4728, 0.1753 -0.6329 0.4728, 0.1709 -0.6377 0.4728, 0.1653 -0.6416 0.4728, 0.2698 -0.5775 0.4728, 0.2711 -0.5867 0.4728, 0.2873 -0.5751 0.4728, 0.2147 -0.6098 0.4728, 0.2166 -0.609 0.4728, 0.22 -0.5929 0.4728, 0.2606 -0.6136 0.4728, 0.2529 -0.6201 0.4728, 0.1734 -0.5977 0.4728, 0.2112 -0.578 0.4728, 0.1684 -0.5932 0.4728, 0.1624 -0.59 0.4728, 0.213 -0.611 0.4728, 0.2662 -0.6058 0.4728, 0.2534 -0.5845 0.4728, 0.2521 -0.5791 0.4728, 0.2499 -0.5751 0.4728, 0.1094 -0.5751 0.4728, 0.2698 -0.5968 0.4728, 0.2188 -0.6088 0.4728, 0.2191 -0.6088 0.4728, 0.22 -0.609 0.4728, 0.1111 -0.592 0.4728, 0.1144 -0.5978 0.4728, 0.1288 -0.6007 0.4728, 0.1195 -0.603 0.4728, 0.1256 -0.6068 0.4728, 0.1392 -0.5914 0.4728, 0.1334 -0.5954 0.4728, 0.1087 -0.5808 0.4728, 0.109 -0.5851 0.4728, 0.1454 -0.589 0.4728, 0.1522 -0.5881 0.4728, 0.1556 -0.5883 0.4728, 0.2101 -0.6175 0.4728, 0.2101 -0.6164 0.4728, 0.1804 -0.6138 0.4728, 0.2107 -0.6142 0.4728, 0.2118 -0.6123 0.4728, 0.2478 -0.6019 0.4728, 0.2509 -0.5975 0.4728, 0.2529 -0.5925 0.4728, 0.2536 -0.587 0.4728, 0.2167 -0.626 0.4728, 0.2148 -0.6253 0.4728, 0.213 -0.624 0.4728, 0.2123 -0.6233 0.4728, 0.2111 -0.6215 0.4728, 0.2103 -0.6196 0.4728, 0.1803 -0.6196 0.4728, 0.1804 -0.6167 0.4728, 0.2443 -0.6243 0.4728, 0.2349 -0.6263 0.4728, 0.2183 -0.6263 0.4728, 0.2205 -0.609 0.4728, 0.2332 -0.609 0.4728, 0.2383 -0.6081 0.4728, 0.2433 -0.6058 0.4728, 0.2475 -0.6023 0.4728, 0.2293 -0.565 0.4728, 0.112 -0.5677 0.4728, 0.1095 -0.574 0.4728, 0.2315 -0.565 0.4728, 0.2495 -0.5742 0.4728, 0.2462 -0.5706 0.4728, 0.2418 -0.5675 0.4728, 0.2369 -0.5656 0.4728, 0.2232 -0.548 0.4728, 0.2168 -0.5404 0.4728, 0.1519 -0.5568 0.4728, 0.2161 -0.5398 0.4728, 0.2082 -0.5342 0.4728, 0.1562 -0.5479 0.4728, 0.1149 -0.5634 0.4728, 0.1499 -0.5557 0.4728, 0.2289 -0.5634 0.4728, 0.2276 -0.5571 0.4728, 0.1435 -0.5534 0.4728, 0.1369 -0.5526 0.4728, 0.134 -0.5527 0.4728, 0.1625 -0.5403 0.4728, 0.1993 -0.5309 0.4728, 0.1701 -0.5348 0.4728, 0.1897 -0.5297 0.4728, 0.1794 -0.531 0.4728, 0.127 -0.5544 0.4728, 0.1207 -0.5577 0.4728, 0.1159 -0.562 0.4728, 0.2624 -0.5634 0.4728, 0.2663 -0.5689 0.4728, 0.2688 -0.5751 0.4728, 0.435 -0.6261 0.4728, 0.4387 -0.6265 0.4728, 0.435 -0.6216 0.4728, 0.4387 -0.5751 0.4728, 0.4341 -0.5864 0.4728, 0.4341 -0.591 0.4728, 0.4187 -0.6082 0.4728, 0.4187 -0.6216 0.4728, 0.4262 -0.6082 0.4728, 0.4262 -0.6216 0.4728, 0.4329 -0.6082 0.4728, 0.4329 -0.6037 0.4728, 0.4187 -0.591 0.4728, 0.4187 -0.6037 0.4728, 0.4262 -0.591 0.4728, 0.4262 -0.6037 0.4728, 0.389 -0.5231 0.4728, 0.3797 -0.5231 0.4728, 0.3843 -0.5234 0.4728, 0.3797 -0.5234 0.4728, 0.369 -0.5452 0.4728, 0.369 -0.5586 0.4728, 0.3797 -0.5452 0.4728, 0.3797 -0.5586 0.4728, 0.3832 -0.5452 0.4728, 0.3852 -0.5586 0.4728, 0.3832 -0.5407 0.4728, 0.3843 -0.528 0.4728, 0.3797 -0.5407 0.4728, 0.3797 -0.528 0.4728, 0.369 -0.5407 0.4728, 0.369 -0.528 0.4728, 0.389 -0.5634 0.4728, 0.3852 -0.5631 0.4728, 0.3797 -0.5634 0.4728, 0.3797 -0.5631 0.4728, 0.3639 -0.5631 0.4728, 0.3639 -0.5234 0.4728, 0.4387 -0.6422 0.4728, 0.4262 -0.7874 0.4728, 0.389 -0.7874 0.4728, 0.3797 -0.7874 0.4728, 0.3616 -0.7874 0.4728, 0.3542 -0.7874 0.4728, 0.328 -0.7874 0.4728, 0.3435 -0.6257 0.4728, 0.4759 -0.6265 0.4728, 0.3036 -0.5864 0.4728, 0.3036 -0.6261 0.4728, 0.3256 -0.6265 0.4728, 0.3256 -0.6422 0.4728, 0.3256 -0.7874 0.4728, 0.3241 -0.5864 0.4728, 0.3256 -0.5751 0.4728, 0.3241 -0.591 0.4728, 0.325 -0.6216 0.4728, 0.325 -0.6261 0.4728, 0.3087 -0.6082 0.4728, 0.3087 -0.6216 0.4728, 0.3229 -0.6082 0.4728, 0.3229 -0.6037 0.4728, 0.3087 -0.6037 0.4728, 0.3087 -0.591 0.4728, 0.4425 -0.6261 0.4728, 0.4737 -0.6129 0.4728, 0.4718 -0.617 0.4728, 0.4688 -0.6206 0.4728, 0.4727 -0.5965 0.4728, 0.4741 -0.6003 0.4728, 0.4759 -0.5751 0.4728, 0.4748 -0.6058 0.4728, 0.4747 -0.6083 0.4728, 0.4647 -0.6235 0.4728, 0.4601 -0.6253 0.4728, 0.4534 -0.6261 0.4728, 0.4425 -0.5864 0.4728, 0.4538 -0.5864 0.4728, 0.4599 -0.5871 0.4728, 0.4647 -0.5888 0.4728, 0.4688 -0.5917 0.4728, 0.4702 -0.593 0.4728, 0.4827 -0.6261 0.4728, 0.477 -0.6261 0.4728, 0.5071 -0.6261 0.4728, 0.503 -0.6153 0.4728, 0.4865 -0.6153 0.4728, 0.4921 -0.5864 0.4728, 0.4976 -0.5864 0.4728, 0.3036 -0.5631 0.4728, 0.3036 -0.5234 0.4728, 0.3246 -0.5631 0.4728, 0.4229 -0.5335 0.4728, 0.4244 -0.5373 0.4728, 0.4251 -0.5427 0.4728, 0.4249 -0.5453 0.4728, 0.424 -0.5499 0.4728, 0.422 -0.554 0.4728, 0.4191 -0.5575 0.4728, 0.4149 -0.5605 0.4728, 0.4041 -0.5234 0.4728, 0.4101 -0.5241 0.4728, 0.4149 -0.5258 0.4728, 0.4104 -0.5623 0.4728, 0.4037 -0.5631 0.4728, 0.3927 -0.5631 0.4728, 0.3927 -0.5234 0.4728, 0.4191 -0.5287 0.4728, 0.4205 -0.53 0.4728, 0.5118 0.7874 0.4728, 0.4759 0.7874 0.4728, 0.6107 -0.5231 0.4728, 0.6107 -0.5634 0.4728, 0.7087 -0.5634 0.4728, 0.7087 -0.5751 0.4728, 0.7087 -0.5906 0.4728, 0.3437 -0.5231 0.4728, 0.328 0.7874 0.4728, 0.3256 0.7874 0.4728, 0.5128 -0.6261 0.4728, 0.4387 0.7874 0.4728, 0.4262 0.7874 0.4728, 0.389 0.7874 0.4728, 0.3797 0.7874 0.4728, 0.3616 0.7874 0.4728, 0.3542 0.7874 0.4728, 0.3465 -0.5227 0.4728
            ]
        }
        coordIndex [
            0,1,2,-1,3,4,5,-1,6,7,8,-1,9,10,8,-1,8,10,11,-1,8,11,6,-1,7,6,12,-1,12,6,13,-1,12,13,14,-1,10,15,11,-1,11,15,16,-1,11,16,17,-1,17,16,18,-1,17,18,19,-1,19,18,20,-1,19,20,14,-1,14,20,21,-1,14,21,12,-1,22,23,24,-1,24,23,25,-1,22,26,23,-1,23,26,27,-1,23,27,28,-1,29,30,31,-1,28,32,23,-1,23,32,33,-1,23,33,34,-1,34,33,35,-1,35,33,31,-1,31,33,36,-1,31,36,29,-1,30,37,31,-1,31,37,38,-1,31,38,39,-1,39,40,31,-1,31,40,41,-1,31,41,42,-1,42,41,43,-1,25,23,44,-1,44,23,45,-1,44,45,46,-1,46,45,47,-1,46,47,48,-1,49,50,51,-1,51,50,52,-1,51,52,48,-1,48,52,53,-1,48,53,46,-1,54,55,56,-1,56,57,54,-1,54,57,58,-1,54,58,59,-1,60,61,54,-1,54,61,62,-1,54,62,55,-1,63,64,65,-1,65,64,66,-1,65,66,60,-1,60,66,67,-1,60,67,61,-1,68,69,70,-1,70,69,71,-1,71,72,70,-1,70,72,73,-1,70,73,63,-1,68,70,74,-1,74,70,75,-1,74,75,76,-1,76,75,77,-1,77,75,78,-1,77,78,79,-1,45,80,47,-1,47,80,81,-1,47,81,82,-1,82,81,83,-1,82,83,84,-1,85,86,87,-1,88,89,90,-1,91,92,93,-1,94,95,96,-1,96,95,97,-1,96,97,98,-1,98,97,91,-1,98,91,99,-1,99,91,93,-1,100,101,5,-1,5,101,102,-1,5,102,103,-1,103,102,95,-1,95,102,104,-1,95,104,97,-1,105,101,106,-1,106,101,100,-1,106,100,107,-1,108,109,110,-1,111,112,100,-1,100,112,113,-1,100,113,107,-1,114,115,116,-1,116,115,117,-1,116,117,108,-1,108,117,118,-1,108,118,109,-1,119,120,100,-1,100,120,121,-1,100,121,111,-1,122,123,124,-1,122,124,125,-1,123,126,124,-1,124,126,127,-1,124,127,116,-1,116,127,128,-1,116,128,114,-1,129,130,131,-1,131,130,132,-1,132,133,131,-1,131,133,134,-1,131,134,135,-1,136,137,138,-1,138,137,139,-1,138,139,135,-1,135,139,140,-1,135,140,131,-1,136,141,137,-1,137,141,142,-1,137,142,143,-1,144,145,137,-1,137,145,146,-1,144,137,147,-1,147,137,143,-1,147,143,148,-1,149,150,151,-1,151,152,153,-1,151,150,154,-1,154,150,155,-1,154,155,156,-1,157,158,159,-1,160,161,162,-1,163,164,165,-1,165,164,166,-1,165,166,167,-1,167,166,168,-1,167,168,169,-1,170,171,172,-1,173,174,175,-1,175,174,176,-1,177,178,5,-1,178,179,5,-1,5,179,180,-1,5,180,181,-1,173,182,174,-1,174,182,183,-1,174,183,103,-1,171,177,172,-1,172,177,5,-1,172,5,184,-1,184,5,103,-1,184,103,185,-1,185,103,183,-1,181,186,5,-1,5,186,187,-1,5,187,3,-1,188,189,190,-1,190,189,191,-1,190,191,192,-1,190,193,188,-1,188,193,194,-1,188,194,195,-1,195,196,188,-1,188,196,197,-1,188,197,198,-1,198,197,199,-1,198,199,200,-1,200,199,201,-1,200,201,172,-1,172,201,202,-1,172,202,170,-1,203,204,192,-1,192,204,205,-1,192,205,190,-1,206,78,207,-1,176,174,208,-1,208,174,78,-1,208,78,209,-1,210,211,212,-1,213,214,206,-1,214,215,206,-1,206,215,216,-1,206,216,78,-1,78,216,217,-1,78,217,209,-1,210,212,206,-1,206,212,218,-1,206,218,213,-1,219,220,211,-1,211,220,221,-1,211,221,212,-1,219,222,220,-1,220,222,223,-1,220,223,224,-1,224,223,225,-1,224,226,227,-1,225,228,224,-1,224,228,229,-1,224,229,230,-1,230,231,224,-1,224,231,232,-1,224,232,226,-1,227,233,224,-1,224,233,234,-1,224,234,235,-1,236,237,238,-1,238,237,239,-1,238,239,207,-1,207,239,240,-1,207,240,206,-1,241,242,4,-1,4,242,108,-1,4,108,5,-1,5,108,110,-1,5,110,100,-1,100,110,243,-1,100,243,119,-1,244,245,246,-1,246,245,247,-1,248,249,250,-1,251,252,248,-1,248,252,253,-1,248,253,254,-1,255,256,78,-1,257,258,259,-1,259,258,260,-1,259,260,261,-1,244,262,245,-1,245,262,263,-1,245,263,264,-1,264,263,265,-1,266,267,265,-1,265,267,268,-1,265,268,264,-1,254,269,248,-1,248,269,270,-1,248,270,249,-1,256,271,78,-1,78,271,272,-1,78,272,273,-1,274,275,75,-1,75,275,276,-1,75,276,78,-1,78,276,277,-1,78,277,255,-1,250,278,248,-1,248,278,279,-1,248,279,75,-1,75,279,247,-1,75,247,274,-1,274,247,245,-1,280,281,265,-1,265,281,282,-1,265,282,283,-1,273,284,78,-1,78,284,285,-1,78,285,207,-1,207,285,286,-1,207,286,259,-1,283,287,265,-1,265,287,288,-1,265,288,266,-1,289,290,251,-1,251,290,291,-1,251,291,252,-1,292,293,294,-1,294,293,295,-1,296,297,294,-1,294,297,298,-1,294,298,299,-1,299,300,294,-1,294,300,301,-1,294,301,292,-1,149,151,302,-1,302,151,153,-1,302,153,303,-1,304,305,153,-1,153,305,306,-1,153,306,307,-1,153,308,303,-1,303,308,309,-1,303,309,310,-1,310,309,311,-1,310,311,312,-1,307,313,153,-1,153,313,314,-1,153,314,308,-1,146,315,137,-1,137,315,316,-1,137,316,317,-1,317,316,318,-1,317,318,319,-1,319,318,320,-1,319,320,304,-1,304,320,321,-1,304,321,305,-1,322,323,129,-1,129,323,324,-1,129,324,325,-1,325,326,129,-1,129,326,327,-1,129,327,130,-1,328,329,330,-1,331,332,333,-1,334,335,322,-1,336,337,338,-1,338,337,339,-1,331,333,340,-1,334,322,341,-1,342,343,337,-1,337,343,344,-1,337,344,345,-1,330,329,322,-1,322,329,346,-1,322,346,341,-1,332,347,333,-1,333,347,348,-1,333,348,349,-1,350,351,352,-1,352,351,353,-1,352,353,354,-1,355,345,356,-1,356,345,357,-1,356,357,352,-1,352,357,358,-1,352,358,350,-1,355,359,345,-1,345,359,360,-1,345,360,337,-1,337,360,361,-1,337,361,339,-1,362,363,364,-1,364,363,365,-1,364,365,333,-1,333,365,366,-1,333,366,340,-1,367,368,333,-1,333,368,369,-1,333,369,337,-1,337,369,370,-1,337,370,342,-1,371,372,323,-1,323,372,373,-1,323,373,374,-1,374,375,323,-1,323,375,376,-1,323,376,377,-1,377,376,362,-1,377,362,378,-1,378,362,364,-1,335,379,322,-1,322,379,380,-1,322,380,323,-1,323,380,381,-1,323,381,371,-1,349,382,333,-1,333,382,383,-1,333,383,384,-1,384,385,333,-1,333,385,386,-1,333,386,367,-1,387,388,389,-1,389,345,387,-1,387,345,344,-1,387,344,390,-1,390,344,391,-1,391,392,390,-1,390,392,393,-1,390,393,394,-1,395,396,397,-1,396,398,397,-1,397,398,399,-1,397,399,400,-1,401,397,402,-1,388,387,401,-1,401,387,403,-1,401,403,397,-1,397,403,404,-1,397,404,395,-1,402,405,401,-1,401,405,406,-1,401,406,407,-1,400,399,408,-1,408,399,409,-1,408,409,410,-1,410,409,411,-1,410,411,412,-1,413,414,407,-1,407,414,415,-1,407,415,401,-1,293,416,295,-1,295,416,417,-1,295,417,330,-1,330,417,418,-1,330,418,328,-1,89,88,419,-1,419,88,420,-1,419,420,421,-1,87,86,422,-1,422,86,423,-1,422,423,424,-1,425,426,427,-1,427,426,428,-1,427,428,429,-1,429,428,421,-1,429,421,430,-1,431,432,433,-1,433,432,434,-1,433,434,424,-1,435,436,437,-1,437,436,438,-1,439,440,441,-1,441,440,442,-1,441,442,443,-1,443,442,444,-1,443,444,445,-1,445,444,446,-1,445,446,447,-1,447,446,448,-1,447,448,449,-1,449,448,450,-1,437,446,435,-1,435,446,444,-1,435,444,451,-1,451,444,452,-1,451,452,453,-1,453,452,454,-1,453,454,455,-1,438,436,456,-1,456,436,48,-1,456,48,455,-1,455,48,47,-1,455,47,453,-1,163,457,458,-1,458,457,124,-1,458,124,459,-1,459,124,116,-1,459,116,460,-1,460,116,108,-1,460,108,461,-1,461,108,242,-1,461,242,462,-1,462,242,289,-1,462,289,463,-1,463,289,251,-1,241,236,242,-1,242,236,238,-1,242,238,289,-1,289,238,207,-1,289,207,290,-1,290,207,259,-1,290,259,464,-1,464,259,261,-1,457,420,124,-1,124,420,88,-1,124,88,125,-1,125,88,90,-1,125,90,94,-1,94,90,85,-1,94,85,95,-1,95,85,87,-1,169,162,167,-1,167,162,161,-1,167,161,165,-1,165,161,465,-1,466,330,467,-1,467,330,322,-1,467,322,468,-1,468,322,129,-1,468,129,469,-1,469,129,131,-1,469,131,470,-1,466,471,472,-1,471,473,472,-1,472,473,474,-1,472,474,468,-1,468,474,475,-1,468,475,467,-1,476,477,478,-1,478,477,474,-1,478,474,479,-1,479,474,473,-1,479,473,480,-1,480,473,481,-1,434,430,424,-1,424,430,421,-1,424,421,422,-1,422,421,420,-1,422,420,482,-1,483,484,465,-1,465,484,485,-1,486,487,488,-1,488,487,489,-1,488,489,465,-1,465,489,490,-1,465,490,483,-1,485,491,465,-1,465,491,492,-1,465,492,493,-1,163,165,457,-1,457,165,465,-1,457,465,420,-1,420,465,493,-1,420,493,482,-1,482,494,422,-1,422,494,495,-1,422,495,488,-1,488,495,496,-1,488,496,497,-1,497,498,488,-1,488,498,499,-1,488,499,486,-1,500,501,465,-1,502,503,504,-1,465,501,488,-1,488,501,505,-1,488,505,506,-1,63,65,70,-1,70,65,472,-1,70,472,75,-1,75,472,468,-1,75,468,248,-1,248,468,469,-1,248,469,251,-1,251,469,470,-1,251,470,463,-1,488,6,422,-1,422,6,11,-1,422,11,87,-1,87,11,17,-1,87,17,95,-1,95,17,451,-1,95,451,103,-1,103,451,453,-1,103,453,174,-1,174,453,47,-1,174,47,78,-1,78,47,82,-1,78,82,79,-1,79,82,84,-1,466,472,330,-1,330,472,65,-1,330,65,295,-1,295,65,507,-1,295,507,294,-1,507,508,294,-1,294,508,0,-1,294,0,60,-1,60,0,2,-1,60,2,65,-1,65,2,509,-1,65,509,507,-1,510,511,19,-1,19,511,512,-1,19,512,17,-1,17,512,513,-1,17,513,514,-1,514,515,17,-1,17,515,516,-1,17,516,517,-1,435,518,19,-1,19,518,519,-1,19,519,520,-1,517,521,17,-1,17,521,522,-1,17,522,451,-1,451,522,523,-1,451,523,435,-1,435,523,524,-1,435,524,518,-1,520,525,19,-1,19,525,526,-1,19,526,510,-1,527,528,159,-1,159,528,529,-1,159,529,157,-1,157,529,530,-1,157,530,531,-1,531,530,160,-1,531,160,532,-1,532,160,162,-1,532,162,533,-1,59,534,54,-1,54,534,535,-1,54,535,60,-1,60,535,536,-1,60,536,294,-1,294,536,154,-1,294,154,296,-1,296,154,156,-1,504,500,502,-1,502,500,465,-1,502,465,537,-1,537,465,161,-1,537,161,506,-1,506,161,160,-1,506,160,488,-1,488,160,530,-1,488,530,6,-1,6,530,529,-1,6,529,13,-1,13,529,528,-1,13,528,14,-1,14,528,538,-1,14,538,19,-1,19,538,539,-1,19,539,435,-1,435,539,540,-1,435,540,436,-1,436,540,541,-1,436,541,48,-1,48,541,542,-1,48,542,51,-1,51,542,543,-1,51,543,49,-1,49,543,535,-1,49,535,544,-1,544,535,534,-1,
        ]
    }
}
Shape{
    appearance Appearance {
        material  Material 	{
            diffuseColor 0.20784313725490197 0.20784313725490197 0.20784313725490197
            specularColor 0.01568627450980392 0.01568627450980392 0.01568627450980392
            ambientIntensity 0.298
            transparency 0.0
            shininess 0.5
        }
    }
    geometry IndexedFaceSet {
        ccw TRUE
        solid FALSE
        coord DEF co Coordinate {
            point [
                -0.7869 -0.6798 0.1189, -0.7844 -0.6957 0.121, -0.7782 -0.6715 0.1265, -0.7869 -0.0 0.1189, -0.7617 -0.638 0.1435, -0.7562 -0.6305 0.1498, -0.7708 -0.6537 0.1337, -0.7708 0.6537 0.1337, -0.7869 0.6798 0.1189, -0.7782 0.6715 0.1265, -0.7844 0.6957 0.121, -0.7422 0.6148 0.1686, -0.7492 0.6221 0.1587, -0.7564 0.6312 0.1499, -0.7617 0.638 0.1435, -0.7492 -0.622 0.1588, -0.7422 -0.6148 0.1686, -0.7318 0.6056 0.1858, -0.7318 -0.6056 0.1858, -0.7243 -0.6002 0.2005, -0.7071 0.5926 0.2524, -0.7112 0.5938 0.2372, -0.7143 -0.5946 0.2257, -0.7143 0.5946 0.2257, -0.7243 0.6002 0.2005, -0.7108 -0.5933 0.237, -0.7071 -0.5926 0.2524, -0.7044 0.5931 0.2681, -0.7047 -0.5934 0.2681, -0.7035 0.5938 0.276, -0.7035 -0.5938 0.276, -0.7025 0.5947 0.3116, -0.7025 -0.5947 0.3116, -0.7087 -0.5906 0.3547, -0.7087 0.5906 0.3547, -0.7829 -0.7016 0.1205, -0.7747 -0.7226 0.1193, -0.7629 -0.7413 0.1189, -0.7521 -0.7521 0.1189, -0.7413 -0.7629 0.1189, -0.7298 -0.7707 0.1191, -0.7175 -0.7771 0.1195, -0.7044 -0.7821 0.1203, -0.6908 -0.7854 0.1216, -0.6643 -0.7854 0.1265, -0.6385 -0.7854 0.1339, -0.6142 -0.7854 0.1435, -0.5918 -0.7854 0.1551, -0.5118 -0.7854 0.276, -0.5135 -0.7854 0.2563, -0.5187 -0.7854 0.237, -0.5273 -0.7854 0.2183, -0.5391 -0.7854 0.2005, -0.5539 -0.7854 0.1838, -0.5716 -0.7854 0.1686, -0.7829 0.7016 0.1205, -0.6643 0.7854 0.1265, -0.6908 0.7854 0.1216, -0.7044 0.7821 0.1203, -0.7175 0.7771 0.1195, -0.7299 0.7707 0.1191, -0.7413 0.7629 0.1189, -0.7521 0.7521 0.1189, -0.7629 0.7413 0.1189, -0.7747 0.7226 0.1193, -0.6385 0.7854 0.1339, -0.5716 0.7854 0.1686, -0.5918 0.7854 0.1551, -0.6142 0.7854 0.1435, -0.5539 0.7854 0.1838, -0.5391 0.7854 0.2005, -0.5273 0.7854 0.2183, -0.5187 0.7854 0.237, -0.5135 0.7854 0.2563, -0.5118 0.7854 0.276, -0.7854 -0.6908 0.1189, -0.7829 -0.7016 0.1189, -0.7793 -0.7123 0.1189, -0.7747 -0.7226 0.1189, -0.7298 -0.7707 0.1189, -0.7238 -0.7741 0.1189, -0.7175 -0.7771 0.1189, -0.6908 -0.7854 0.1189, -0.7175 0.7771 0.1189, -0.7044 0.7821 0.1189, -0.6976 0.784 0.1189, -0.6908 0.7854 0.1189, -0.7829 0.7016 0.1189, -0.7692 0.7322 0.1189, -0.7721 0.7275 0.1189, -0.7747 0.7226 0.1189, 0.7869 0.6798 0.1189, 0.7844 0.6957 0.121, 0.7782 0.6715 0.1265, 0.7869 0.0 0.1189, 0.7617 0.638 0.1435, 0.7562 0.6305 0.1498, 0.7708 0.6537 0.1337, 0.7708 -0.6537 0.1337, 0.7869 -0.6798 0.1189, 0.7782 -0.6715 0.1265, 0.7844 -0.6957 0.121, 0.7422 -0.6148 0.1686, 0.7492 -0.6221 0.1587, 0.7564 -0.6312 0.1499, 0.7617 -0.638 0.1435, 0.7492 0.622 0.1588, 0.7422 0.6148 0.1686, 0.7318 -0.6056 0.1858, 0.7318 0.6056 0.1858, 0.7243 0.6002 0.2005, 0.7071 -0.5926 0.2524, 0.7112 -0.5938 0.2372, 0.7143 0.5946 0.2257, 0.7143 -0.5946 0.2257, 0.7243 -0.6002 0.2005, 0.7108 0.5933 0.237, 0.7071 0.5926 0.2524, 0.7044 -0.5931 0.2681, 0.7047 0.5934 0.2681, 0.7035 -0.5938 0.276, 0.7035 0.5938 0.276, 0.7025 -0.5947 0.3116, 0.7025 0.5947 0.3116, 0.7087 0.5906 0.3547, 0.7087 -0.5906 0.3547, 0.3154 0.7854 0.1185, -0.3154 0.7854 0.1185, 0.3154 0.7854 0.1189, -0.3154 0.7854 0.1189, -0.5118 0.7864 0.3547, 0.5118 0.7864 0.3547, 0.5118 0.7854 0.276, 0.5135 0.7854 0.2563, 0.5187 0.7854 0.237, 0.5273 0.7854 0.2183, 0.5391 0.7854 0.2005, 0.5031 0.7854 0.1189, 0.5539 0.7854 0.1838, 0.5716 0.7854 0.1686, 0.5918 0.7854 0.1551, 0.6142 0.7854 0.1435, 0.6908 0.7854 0.1216, 0.6908 0.7854 0.1189, 0.6643 0.7854 0.1265, 0.6385 0.7854 0.1339, -0.3154 -0.7854 0.1185, 0.3154 -0.7854 0.1185, -0.3154 -0.7854 0.1189, 0.3154 -0.7854 0.1189, 0.5118 -0.7864 0.3547, -0.5118 -0.7864 0.3547, 0.5118 -0.7854 0.276, 0.5135 -0.7854 0.2563, 0.5187 -0.7854 0.237, 0.5273 -0.7854 0.2183, 0.5716 -0.7854 0.1686, 0.5539 -0.7854 0.1838, 0.5391 -0.7854 0.2005, -0.5031 -0.7854 0.1189, 0.6385 -0.7854 0.1339, 0.6142 -0.7854 0.1435, 0.5918 -0.7854 0.1551, 0.6643 -0.7854 0.1265, 0.6908 -0.7854 0.1189, 0.6908 -0.7854 0.1216, 0.3154 0.7874 0.1185, -0.3154 0.7874 0.1185, 0.3154 -0.7874 0.0004, 0.3154 -0.7874 0.1185, -0.3154 -0.7874 0.0004, -0.3154 -0.7874 0.1185, 0.3154 0.7874 0.0004, -0.3154 0.7874 0.0004, 0.7829 -0.7016 0.1205, 0.7044 -0.7821 0.1203, 0.7175 -0.7771 0.1195, 0.7299 -0.7707 0.1191, 0.7413 -0.7629 0.1189, 0.7521 -0.7521 0.1189, 0.7629 -0.7413 0.1189, 0.7747 -0.7226 0.1193, 0.7829 0.7016 0.1205, 0.7747 0.7226 0.1193, 0.7629 0.7413 0.1189, 0.7521 0.7521 0.1189, 0.7413 0.7629 0.1189, 0.7298 0.7707 0.1191, 0.7175 0.7771 0.1195, 0.7044 0.7821 0.1203, 0.7854 0.6908 0.1189, 0.7829 0.7016 0.1189, 0.7793 0.7123 0.1189, 0.7747 0.7226 0.1189, 0.7175 0.7771 0.1189, 0.7357 0.767 0.1189, 0.7298 0.7707 0.1189, 0.7175 -0.7771 0.1189, 0.7044 -0.7821 0.1189, 0.6976 -0.784 0.1189, 0.7829 -0.7016 0.1189, 0.7692 -0.7322 0.1189, 0.7721 -0.7275 0.1189, 0.7747 -0.7226 0.1189
            ]
        }
        coordIndex [
            0,1,2,-1,3,4,5,-1,0,2,3,-1,3,2,6,-1,3,6,4,-1,3,7,8,-1,8,7,9,-1,8,9,10,-1,11,12,5,-1,5,12,13,-1,5,13,3,-1,3,13,14,-1,3,14,7,-1,5,15,11,-1,11,15,16,-1,11,16,17,-1,17,16,18,-1,17,18,19,-1,20,21,22,-1,22,21,23,-1,22,23,19,-1,19,23,24,-1,19,24,17,-1,22,25,20,-1,20,25,26,-1,20,26,27,-1,27,26,28,-1,27,28,29,-1,29,28,30,-1,29,30,31,-1,30,32,31,-1,31,32,33,-1,31,33,34,-1,1,35,2,-1,2,35,36,-1,36,37,2,-1,2,37,38,-1,2,38,39,-1,39,40,2,-1,2,40,41,-1,2,41,42,-1,42,43,2,-1,2,43,44,-1,2,44,6,-1,6,44,45,-1,6,45,4,-1,4,45,46,-1,4,46,5,-1,5,46,47,-1,48,30,49,-1,49,30,28,-1,49,28,50,-1,28,26,50,-1,50,26,25,-1,50,25,51,-1,51,25,22,-1,51,22,52,-1,52,22,19,-1,52,19,53,-1,53,19,18,-1,53,18,54,-1,54,18,16,-1,54,16,47,-1,47,16,15,-1,47,15,5,-1,55,10,9,-1,56,57,9,-1,9,57,58,-1,9,58,59,-1,59,60,9,-1,9,60,61,-1,9,61,62,-1,62,63,9,-1,9,63,64,-1,9,64,55,-1,56,9,65,-1,65,9,7,-1,65,7,14,-1,12,66,13,-1,13,66,67,-1,13,67,14,-1,14,67,68,-1,14,68,65,-1,12,11,66,-1,66,11,17,-1,66,17,69,-1,69,17,24,-1,69,24,70,-1,70,24,23,-1,70,23,71,-1,71,23,21,-1,71,21,72,-1,21,20,72,-1,72,20,27,-1,72,27,73,-1,73,27,29,-1,73,29,74,-1,1,0,75,-1,1,75,35,-1,75,76,35,-1,35,76,77,-1,35,77,36,-1,36,77,78,-1,36,78,37,-1,39,79,40,-1,40,79,80,-1,40,80,41,-1,41,80,81,-1,41,81,42,-1,42,81,82,-1,42,82,43,-1,61,60,83,-1,83,60,59,-1,83,59,84,-1,84,59,58,-1,84,58,85,-1,85,58,57,-1,85,57,86,-1,87,8,10,-1,63,88,64,-1,64,88,89,-1,10,55,87,-1,87,55,64,-1,87,64,90,-1,90,64,89,-1,91,92,93,-1,94,95,96,-1,91,93,94,-1,94,93,97,-1,94,97,95,-1,94,98,99,-1,99,98,100,-1,99,100,101,-1,102,103,96,-1,96,103,104,-1,96,104,94,-1,94,104,105,-1,94,105,98,-1,96,106,102,-1,102,106,107,-1,102,107,108,-1,108,107,109,-1,108,109,110,-1,111,112,113,-1,113,112,114,-1,113,114,110,-1,110,114,115,-1,110,115,108,-1,113,116,111,-1,111,116,117,-1,111,117,118,-1,118,117,119,-1,118,119,120,-1,120,119,121,-1,120,121,122,-1,121,123,122,-1,122,123,124,-1,122,124,125,-1,126,127,128,-1,128,127,129,-1,130,131,74,-1,74,131,73,-1,73,131,72,-1,72,131,129,-1,72,129,71,-1,131,132,129,-1,129,132,133,-1,129,133,128,-1,128,133,134,-1,66,69,129,-1,129,69,70,-1,129,70,71,-1,134,135,128,-1,128,135,136,-1,128,136,137,-1,137,136,138,-1,65,68,129,-1,129,68,67,-1,129,67,66,-1,138,139,137,-1,137,139,140,-1,137,140,141,-1,65,129,56,-1,56,129,86,-1,56,86,57,-1,142,143,144,-1,144,143,137,-1,144,137,145,-1,145,137,141,-1,146,147,148,-1,148,147,149,-1,150,151,152,-1,152,151,153,-1,153,151,154,-1,154,151,149,-1,154,149,155,-1,151,48,149,-1,149,48,49,-1,149,49,148,-1,148,49,50,-1,156,157,149,-1,149,157,158,-1,149,158,155,-1,50,51,148,-1,148,51,52,-1,148,52,159,-1,159,52,53,-1,160,161,149,-1,149,161,162,-1,149,162,156,-1,53,54,159,-1,159,54,47,-1,159,47,46,-1,160,149,163,-1,163,149,164,-1,163,164,165,-1,43,82,44,-1,44,82,159,-1,44,159,45,-1,45,159,46,-1,126,166,127,-1,127,166,167,-1,168,169,170,-1,170,169,171,-1,166,172,167,-1,167,172,173,-1,173,172,170,-1,170,172,168,-1,169,147,171,-1,171,147,146,-1,174,101,100,-1,163,165,100,-1,100,165,175,-1,100,175,176,-1,176,177,100,-1,100,177,178,-1,100,178,179,-1,179,180,100,-1,100,180,181,-1,100,181,174,-1,163,100,160,-1,160,100,98,-1,160,98,105,-1,103,156,104,-1,104,156,162,-1,104,162,105,-1,105,162,161,-1,105,161,160,-1,103,102,156,-1,156,102,108,-1,156,108,157,-1,157,108,115,-1,157,115,158,-1,158,115,114,-1,158,114,155,-1,155,114,112,-1,155,112,154,-1,112,111,154,-1,154,111,118,-1,154,118,153,-1,153,118,120,-1,153,120,152,-1,92,182,93,-1,93,182,183,-1,183,184,93,-1,93,184,185,-1,93,185,186,-1,186,187,93,-1,93,187,188,-1,93,188,189,-1,189,142,93,-1,93,142,144,-1,93,144,97,-1,97,144,145,-1,97,145,95,-1,95,145,141,-1,95,141,96,-1,96,141,140,-1,132,121,133,-1,133,121,119,-1,133,119,134,-1,119,117,134,-1,134,117,116,-1,134,116,135,-1,135,116,113,-1,135,113,136,-1,136,113,110,-1,136,110,138,-1,138,110,109,-1,138,109,139,-1,139,109,107,-1,139,107,140,-1,140,107,106,-1,140,106,96,-1,92,91,190,-1,92,190,182,-1,190,191,182,-1,182,191,192,-1,182,192,183,-1,183,192,193,-1,183,193,184,-1,194,188,187,-1,186,195,187,-1,187,195,196,-1,187,196,194,-1,188,194,189,-1,189,194,143,-1,189,143,142,-1,178,177,197,-1,197,177,176,-1,197,176,198,-1,198,176,175,-1,198,175,199,-1,199,175,165,-1,199,165,164,-1,200,99,101,-1,180,201,181,-1,181,201,202,-1,101,174,200,-1,200,174,181,-1,200,181,203,-1,203,181,202,-1,
        ]
    }
}
Shape{
    appearance Appearance {
        material  Material 	{
            diffuseColor 0.34901960784313724 0.34901960784313724 0.34901960784313724
            specularColor 0.023529411764705882 0.023529411764705882 0.023529411764705882
            ambientIntensity 0.498
            transparency 0.0
            shininess 0.5
        }
    }
    geometry IndexedFaceSet {
        ccw TRUE
        solid FALSE
        coord DEF co Coordinate {
            point [
                0.7087 -0.5906 0.3547, 0.7087 0.5906 0.3547, 0.7087 -0.5906 0.4728, 0.7087 0.5906 0.4728, 0.5118 0.7864 0.3547, -0.5118 0.7864 0.3547, 0.5118 0.7874 0.4728, -0.5118 0.7874 0.4728, -0.7087 -0.5906 0.4728, -0.7087 0.5906 0.4728, -0.7087 -0.5906 0.3547, -0.7087 0.5906 0.3547, 0.5118 -0.7874 0.4728, -0.5118 -0.7874 0.4728, 0.5118 -0.7864 0.3547, -0.5118 -0.7864 0.3547
            ]
        }
        coordIndex [
            0,1,2,-1,2,1,3,-1,4,5,6,-1,6,5,7,-1,8,9,10,-1,10,9,11,-1,12,13,14,-1,14,13,15,-1,
        ]
    }
}
Shape{
    appearance Appearance {
        material  Material 	{
            diffuseColor 0.20784313725490197 0.20784313725490197 0.20784313725490197
            specularColor 0.01568627450980392 0.01568627450980392 0.01568627450980392
            ambientIntensity 0.298
            transparency 0.0
            shininess 0.5
        }
    }
    geometry IndexedFaceSet {
        ccw TRUE
        solid FALSE
        coord DEF co Coordinate {
            point [
                0.5118 -0.7854 0.276, 0.7035 -0.5938 0.276, 0.5118 -0.7864 0.3547, 0.7025 -0.5947 0.3116, 0.7087 -0.5906 0.3547
            ]
        }
        coordIndex [
            0,1,2,-1,2,1,3,-1,2,3,4,-1,
        ]
    }
}
Shape{
    appearance Appearance {
        material  Material 	{
            diffuseColor 0.34901960784313724 0.34901960784313724 0.34901960784313724
            specularColor 0.023529411764705882 0.023529411764705882 0.023529411764705882
            ambientIntensity 0.498
            transparency 0.0
            shininess 0.5
        }
    }
    geometry IndexedFaceSet {
        ccw TRUE
        solid FALSE
        coord DEF co Coordinate {
            point [
                0.5118 -0.7864 0.3547, 0.7087 -0.5906 0.3547, 0.5118 -0.7874 0.4728, 0.7087 -0.5906 0.4728
            ]
        }
        coordIndex [
            0,1,2,-1,2,1,3,-1,
        ]
    }
}
Shape{
    appearance Appearance {
        material  Material 	{
            diffuseColor 0.20784313725490197 0.20784313725490197 0.20784313725490197
            specularColor 0.01568627450980392 0.01568627450980392 0.01568627450980392
            ambientIntensity 0.298
            transparency 0.0
            shininess 0.5
        }
    }
    geometry IndexedFaceSet {
        ccw TRUE
        solid FALSE
        coord DEF co Coordinate {
            point [
                -0.7035 -0.5938 0.276, -0.5118 -0.7854 0.276, -0.7025 -0.5947 0.3116, -0.5118 -0.7864 0.3547, -0.7087 -0.5906 0.3547
            ]
        }
        coordIndex [
            0,1,2,-1,2,1,3,-1,2,3,4,-1,
        ]
    }
}
Shape{
    appearance Appearance {
        material  Material 	{
            diffuseColor 0.34901960784313724 0.34901960784313724 0.34901960784313724
            specularColor 0.023529411764705882 0.023529411764705882 0.023529411764705882
            ambientIntensity 0.498
            transparency 0.0
            shininess 0.5
        }
    }
    geometry IndexedFaceSet {
        ccw TRUE
        solid FALSE
        coord DEF co Coordinate {
            point [
                -0.7087 -0.5906 0.3547, -0.5118 -0.7864 0.3547, -0.7087 -0.5906 0.4728, -0.5118 -0.7874 0.4728
            ]
        }
        coordIndex [
            0,1,2,-1,2,1,3,-1,
        ]
    }
}
Shape{
    appearance Appearance {
        material  Material 	{
            diffuseColor 0.20784313725490197 0.20784313725490197 0.20784313725490197
            specularColor 0.01568627450980392 0.01568627450980392 0.01568627450980392
            ambientIntensity 0.298
            transparency 0.0
            shininess 0.5
        }
    }
    geometry IndexedFaceSet {
        ccw TRUE
        solid FALSE
        coord DEF co Coordinate {
            point [
                0.7035 0.5938 0.276, 0.5118 0.7854 0.276, 0.7025 0.5947 0.3116, 0.5118 0.7864 0.3547, 0.7087 0.5906 0.3547
            ]
        }
        coordIndex [
            0,1,2,-1,2,1,3,-1,2,3,4,-1,
        ]
    }
}
Shape{
    appearance Appearance {
        material  Material 	{
            diffuseColor 0.34901960784313724 0.34901960784313724 0.34901960784313724
            specularColor 0.023529411764705882 0.023529411764705882 0.023529411764705882
            ambientIntensity 0.498
            transparency 0.0
            shininess 0.5
        }
    }
    geometry IndexedFaceSet {
        ccw TRUE
        solid FALSE
        coord DEF co Coordinate {
            point [
                0.7087 0.5906 0.3547, 0.5118 0.7864 0.3547, 0.7087 0.5906 0.4728, 0.5118 0.7874 0.4728
            ]
        }
        coordIndex [
            0,1,2,-1,2,1,3,-1,
        ]
    }
}
Shape{
    appearance Appearance {
        material  Material 	{
            diffuseColor 0.20784313725490197 0.20784313725490197 0.20784313725490197
            specularColor 0.01568627450980392 0.01568627450980392 0.01568627450980392
            ambientIntensity 0.298
            transparency 0.0
            shininess 0.5
        }
    }
    geometry IndexedFaceSet {
        ccw TRUE
        solid FALSE
        coord DEF co Coordinate {
            point [
                -0.5118 0.7854 0.276, -0.7035 0.5938 0.276, -0.5118 0.7864 0.3547, -0.7025 0.5947 0.3116, -0.7087 0.5906 0.3547
            ]
        }
        coordIndex [
            0,1,2,-1,2,1,3,-1,2,3,4,-1,
        ]
    }
}
Shape{
    appearance Appearance {
        material  Material 	{
            diffuseColor 0.34901960784313724 0.34901960784313724 0.34901960784313724
            specularColor 0.023529411764705882 0.023529411764705882 0.023529411764705882
            ambientIntensity 0.498
            transparency 0.0
            shininess 0.5
        }
    }
    geometry IndexedFaceSet {
        ccw TRUE
        solid FALSE
        coord DEF co Coordinate {
            point [
                -0.5118 0.7864 0.3547, -0.7087 0.5906 0.3547, -0.5118 0.7874 0.4728, -0.7087 0.5906 0.4728
            ]
        }
        coordIndex [
            0,1,2,-1,2,1,3,-1,
        ]
    }
}
Shape{
    appearance Appearance {
        material  Material 	{
            diffuseColor 0.6666666666666666 0.6666666666666666 0.6666666666666666
            specularColor 0.4666666666666667 0.4666666666666667 0.4666666666666667
            ambientIntensity 0.6667
            transparency 0.0
            shininess 0.5
        }
    }
    geometry IndexedFaceSet {
        ccw TRUE
        solid FALSE
        coord DEF co Coordinate {
            point [
                0.3154 0.7854 0.1185, 0.3154 0.7854 0.1189, 0.3154 0.7874 0.1185, 0.3154 0.7878 0.1189, 0.3154 0.7874 0.0004, 0.3154 0.7878 0.0, 0.3154 -0.7874 0.0004, 0.3154 -0.7878 0.0, 0.3154 -0.7874 0.1185, 0.3154 -0.7878 0.1189, 0.3154 -0.7854 0.1185, 0.3154 -0.7854 0.1189, 0.6908 0.7854 0.1189, 0.6693 0.7878 0.1189, 0.5031 0.7854 0.1189, 0.6908 -0.7854 0.1189, 0.6693 -0.7878 0.1189, 0.7285 0.7719 0.1189, 0.7146 0.7788 0.1189, 0.7175 0.7771 0.1189, 0.7 0.7838 0.1189, 0.6848 0.7868 0.1189, 0.6848 -0.7868 0.1189, 0.7 -0.7838 0.1189, 0.6976 -0.784 0.1189, 0.7044 -0.7821 0.1189, 0.7146 -0.7788 0.1189, 0.7175 -0.7771 0.1189, 0.7285 -0.7719 0.1189, 0.7413 -0.7629 0.1189, 0.7414 -0.7633 0.1189, 0.7521 -0.7521 0.1189, 0.7531 -0.7531 0.1189, 0.7629 -0.7413 0.1189, 0.7633 -0.7414 0.1189, 0.7692 -0.7322 0.1189, 0.7719 -0.7285 0.1189, 0.7721 -0.7275 0.1189, 0.7747 -0.7226 0.1189, 0.7788 -0.7146 0.1189, 0.7829 -0.7016 0.1189, 0.7298 0.7707 0.1189, 0.7357 0.767 0.1189, 0.7414 0.7633 0.1189, 0.7413 0.7629 0.1189, 0.7531 0.7531 0.1189, 0.7521 0.7521 0.1189, 0.7633 0.7414 0.1189, 0.7629 0.7413 0.1189, 0.7719 0.7285 0.1189, 0.7747 0.7226 0.1189, 0.7788 0.7146 0.1189, 0.7793 0.7123 0.1189, 0.7838 0.7 0.1189, 0.7838 -0.7 0.1189, 0.7868 -0.6848 0.1189, 0.7869 -0.6798 0.1189, 0.7878 -0.6693 0.1189, 0.7869 0.0 0.1189, 0.7878 0.6693 0.1189, 0.7869 0.6798 0.1189, 0.7868 0.6848 0.1189, 0.7854 0.6908 0.1189, 0.7829 0.7016 0.1189, 0.6693 0.7878 0.0, 0.7 0.7838 0.0, 0.7285 0.7719 0.0, 0.7531 0.7531 0.0, 0.7719 0.7285 0.0, 0.7838 0.7 0.0, 0.7878 0.6693 0.0, 0.7878 -0.6693 0.0, 0.7838 -0.7 0.0, 0.7719 -0.7285 0.0, 0.7531 -0.7531 0.0, 0.7285 -0.7719 0.0, 0.7 -0.7838 0.0, 0.6693 -0.7878 0.0, -0.3154 -0.7854 0.1185, -0.3154 -0.7854 0.1189, -0.3154 -0.7874 0.1185, -0.3154 -0.7878 0.1189, -0.3154 -0.7874 0.0004, -0.3154 -0.7878 0.0, -0.3154 0.7874 0.0004, -0.3154 0.7878 0.0, -0.3154 0.7874 0.1185, -0.3154 0.7878 0.1189, -0.3154 0.7854 0.1185, -0.3154 0.7854 0.1189, -0.6693 0.7878 0.1189, -0.6693 0.7878 0.0, -0.6693 -0.7878 0.1189, -0.6693 -0.7878 0.0, -0.6848 -0.7868 0.1189, -0.7 -0.7838 0.0, -0.7 -0.7838 0.1189, -0.7146 -0.7788 0.1189, -0.7285 -0.7719 0.0, -0.7285 -0.7719 0.1189, -0.7414 -0.7633 0.1189, -0.7531 -0.7531 0.0, -0.7531 -0.7531 0.1189, -0.7633 -0.7414 0.1189, -0.7719 -0.7285 0.0, -0.7719 -0.7285 0.1189, -0.7788 -0.7146 0.1189, -0.7838 -0.7 0.0, -0.7878 -0.6693 0.1189, -0.7878 -0.6693 0.0, -0.7868 -0.6848 0.1189, -0.7838 -0.7 0.1189, -0.7878 0.6693 0.1189, -0.7878 0.6693 0.0, -0.7868 0.6848 0.1189, -0.7838 0.7 0.0, -0.7838 0.7 0.1189, -0.7788 0.7146 0.1189, -0.7719 0.7285 0.0, -0.7719 0.7285 0.1189, -0.7633 0.7414 0.1189, -0.7531 0.7531 0.0, -0.7531 0.7531 0.1189, -0.7414 0.7633 0.1189, -0.7285 0.7719 0.0, -0.7285 0.7719 0.1189, -0.7146 0.7788 0.1189, -0.7 0.7838 0.0, -0.6848 0.7868 0.1189, -0.7 0.7838 0.1189, -0.5031 -0.7854 0.1189, -0.6908 -0.7854 0.1189, -0.6908 0.7854 0.1189, -0.6976 0.784 0.1189, -0.7044 0.7821 0.1189, -0.7175 0.7771 0.1189, -0.7413 0.7629 0.1189, -0.7521 0.7521 0.1189, -0.7629 0.7413 0.1189, -0.7692 0.7322 0.1189, -0.7721 0.7275 0.1189, -0.7747 0.7226 0.1189, -0.7829 0.7016 0.1189, -0.7175 -0.7771 0.1189, -0.7238 -0.7741 0.1189, -0.7298 -0.7707 0.1189, -0.7413 -0.7629 0.1189, -0.7521 -0.7521 0.1189, -0.7629 -0.7413 0.1189, -0.7747 -0.7226 0.1189, -0.7793 -0.7123 0.1189, -0.7869 0.6798 0.1189, -0.7869 -0.0 0.1189, -0.7869 -0.6798 0.1189, -0.7854 -0.6908 0.1189, -0.7829 -0.7016 0.1189
            ]
        }
        coordIndex [
            0,1,2,-1,2,1,3,-1,2,3,4,-1,4,3,5,-1,4,5,6,-1,6,5,7,-1,6,7,8,-1,8,7,9,-1,8,9,10,-1,10,9,11,-1,12,13,14,-1,14,13,3,-1,14,3,1,-1,15,11,16,-1,16,11,9,-1,17,18,19,-1,19,18,20,-1,19,20,12,-1,12,20,21,-1,12,21,13,-1,16,22,15,-1,15,22,23,-1,15,23,24,-1,24,23,25,-1,25,23,26,-1,25,26,27,-1,27,26,28,-1,27,28,29,-1,29,28,30,-1,29,30,31,-1,31,30,32,-1,31,32,33,-1,33,32,34,-1,33,34,35,-1,35,34,36,-1,35,36,37,-1,37,36,38,-1,38,36,39,-1,38,39,40,-1,19,41,17,-1,17,41,42,-1,17,42,43,-1,43,42,44,-1,43,44,45,-1,45,44,46,-1,45,46,47,-1,47,46,48,-1,47,48,49,-1,49,48,50,-1,49,50,51,-1,51,50,52,-1,51,52,53,-1,39,54,40,-1,40,54,55,-1,40,55,56,-1,56,55,57,-1,56,57,58,-1,58,57,59,-1,58,59,60,-1,60,59,61,-1,60,61,62,-1,62,61,53,-1,62,53,63,-1,63,53,52,-1,13,64,3,-1,3,64,5,-1,64,13,21,-1,64,21,65,-1,21,20,65,-1,65,20,18,-1,65,18,66,-1,18,17,66,-1,66,17,43,-1,66,43,67,-1,43,45,67,-1,67,45,47,-1,67,47,68,-1,47,49,68,-1,68,49,51,-1,68,51,69,-1,59,70,61,-1,61,70,69,-1,61,69,53,-1,53,69,51,-1,57,71,59,-1,59,71,70,-1,57,55,71,-1,71,55,72,-1,55,54,72,-1,72,54,39,-1,72,39,73,-1,39,36,73,-1,73,36,34,-1,73,34,74,-1,34,32,74,-1,74,32,30,-1,74,30,75,-1,30,28,75,-1,75,28,26,-1,75,26,76,-1,16,77,22,-1,22,77,76,-1,22,76,23,-1,23,76,26,-1,9,7,16,-1,16,7,77,-1,69,70,64,-1,66,67,68,-1,71,7,70,-1,70,7,5,-1,70,5,64,-1,69,64,68,-1,68,64,65,-1,68,65,66,-1,72,73,74,-1,74,75,72,-1,72,75,76,-1,72,76,71,-1,71,76,77,-1,71,77,7,-1,78,79,80,-1,80,79,81,-1,80,81,82,-1,82,81,83,-1,82,83,84,-1,84,83,85,-1,84,85,86,-1,86,85,87,-1,86,87,88,-1,88,87,89,-1,87,85,90,-1,90,85,91,-1,92,93,81,-1,81,93,83,-1,92,94,93,-1,93,94,95,-1,94,96,95,-1,95,96,97,-1,95,97,98,-1,97,99,98,-1,98,99,100,-1,98,100,101,-1,100,102,101,-1,101,102,103,-1,101,103,104,-1,103,105,104,-1,104,105,106,-1,104,106,107,-1,108,109,110,-1,110,109,107,-1,110,107,111,-1,111,107,106,-1,112,113,108,-1,108,113,109,-1,113,112,114,-1,113,114,115,-1,114,116,115,-1,115,116,117,-1,115,117,118,-1,117,119,118,-1,118,119,120,-1,118,120,121,-1,120,122,121,-1,121,122,123,-1,121,123,124,-1,123,125,124,-1,124,125,126,-1,124,126,127,-1,90,91,128,-1,128,91,127,-1,128,127,129,-1,129,127,126,-1,93,109,83,-1,83,109,91,-1,83,91,85,-1,98,101,95,-1,95,101,104,-1,95,104,93,-1,93,104,107,-1,93,107,109,-1,109,113,91,-1,91,113,115,-1,91,115,127,-1,127,115,118,-1,127,118,124,-1,124,118,121,-1,81,79,130,-1,81,130,92,-1,92,130,131,-1,92,131,94,-1,132,89,90,-1,90,89,87,-1,90,128,132,-1,132,128,129,-1,132,129,133,-1,133,129,134,-1,134,129,126,-1,134,126,135,-1,135,126,125,-1,135,125,136,-1,136,125,123,-1,136,123,137,-1,137,123,122,-1,137,122,138,-1,138,122,120,-1,138,120,139,-1,139,120,119,-1,139,119,140,-1,140,119,141,-1,141,119,117,-1,141,117,142,-1,94,131,96,-1,96,131,143,-1,96,143,97,-1,97,143,144,-1,97,144,99,-1,99,144,145,-1,99,145,100,-1,100,145,146,-1,100,146,102,-1,102,146,147,-1,102,147,103,-1,103,147,148,-1,103,148,105,-1,105,148,149,-1,105,149,106,-1,106,149,150,-1,106,150,111,-1,117,116,142,-1,142,116,114,-1,142,114,151,-1,151,114,112,-1,151,112,152,-1,152,112,108,-1,152,108,153,-1,153,108,110,-1,153,110,154,-1,154,110,111,-1,154,111,155,-1,155,111,150,-1,
        ]
    }
}
Shape{
    appearance Appearance {
        material  Material 	{
            diffuseColor 1.0 1.0 1.0
            specularColor 0.5019607843137255 0.5019607843137255 0.5019607843137255
            ambientIntensity 1.0
            transparency 0.0
            shininess 0.5
        }
    }
    geometry IndexedFaceSet {
        ccw TRUE
        solid FALSE
        coord DEF co Coordinate {
            point [
                0.4688 -0.6206 0.4768, 0.4647 -0.6179 0.4768, 0.4647 -0.6235 0.4768, 0.4621 -0.6197 0.4768, 0.4601 -0.6253 0.4768, 0.4589 -0.6209 0.4768, 0.4534 -0.6261 0.4768, 0.4534 -0.6216 0.4768, 0.4425 -0.6261 0.4768, 0.4476 -0.6216 0.4768, 0.4425 -0.5864 0.4768, 0.4476 -0.591 0.4768, 0.4538 -0.5864 0.4768, 0.4536 -0.591 0.4768, 0.4541 -0.591 0.4768, 0.4599 -0.5871 0.4768, 0.4591 -0.5916 0.4768, 0.4647 -0.5888 0.4768, 0.4625 -0.593 0.4768, 0.4688 -0.5917 0.4768, 0.4651 -0.5947 0.4768, 0.4702 -0.593 0.4768, 0.4662 -0.5958 0.4768, 0.4727 -0.5965 0.4768, 0.4677 -0.598 0.4768, 0.4741 -0.6003 0.4768, 0.4688 -0.6009 0.4768, 0.4748 -0.6058 0.4768, 0.4694 -0.6059 0.4768, 0.4747 -0.6083 0.4768, 0.4693 -0.6087 0.4768, 0.4737 -0.6129 0.4768, 0.4684 -0.6123 0.4768, 0.4718 -0.617 0.4768, 0.467 -0.6152 0.4768, 0.4652 -0.6175 0.4768, 0.4688 -0.6206 0.4728, 0.4718 -0.617 0.4728, 0.4737 -0.6129 0.4728, 0.4747 -0.6083 0.4728, 0.4748 -0.6058 0.4728, 0.4741 -0.6003 0.4728, 0.4727 -0.5965 0.4728, 0.4702 -0.593 0.4728, 0.4688 -0.5917 0.4728, 0.4647 -0.5888 0.4728, 0.4599 -0.5871 0.4728, 0.4538 -0.5864 0.4728, 0.4425 -0.5864 0.4728, 0.4425 -0.6261 0.4728, 0.4534 -0.6261 0.4728, 0.4601 -0.6253 0.4728, 0.4647 -0.6235 0.4728, 0.4651 -0.5947 0.4728, 0.4662 -0.5958 0.4728, 0.4677 -0.598 0.4728, 0.4688 -0.6009 0.4728, 0.4694 -0.6059 0.4728, 0.4536 -0.591 0.4728, 0.4541 -0.591 0.4728, 0.4591 -0.5916 0.4728, 0.4625 -0.593 0.4728, 0.4476 -0.591 0.4728, 0.4476 -0.6216 0.4728, 0.4534 -0.6216 0.4728, 0.4652 -0.6175 0.4728, 0.4647 -0.6179 0.4728, 0.4621 -0.6197 0.4728, 0.4589 -0.6209 0.4728, 0.4693 -0.6087 0.4728, 0.4684 -0.6123 0.4728, 0.467 -0.6152 0.4728
            ]
        }
        coordIndex [
            0,1,2,-1,2,1,3,-1,2,3,4,-1,4,3,5,-1,4,5,6,-1,6,5,7,-1,6,7,8,-1,8,7,9,-1,8,9,10,-1,10,9,11,-1,10,11,12,-1,11,13,12,-1,12,13,14,-1,12,14,15,-1,15,14,16,-1,15,16,17,-1,17,16,18,-1,17,18,19,-1,19,18,20,-1,19,20,21,-1,21,20,22,-1,21,22,23,-1,23,22,24,-1,23,24,25,-1,25,24,26,-1,25,26,27,-1,27,26,28,-1,27,28,29,-1,29,28,30,-1,29,30,31,-1,31,30,32,-1,31,32,33,-1,33,32,34,-1,33,34,0,-1,0,34,35,-1,0,35,1,-1,0,36,37,-1,0,37,33,-1,33,37,38,-1,33,38,31,-1,31,38,39,-1,31,39,29,-1,29,39,40,-1,29,40,27,-1,27,40,41,-1,27,41,25,-1,25,41,42,-1,25,42,23,-1,23,42,43,-1,23,43,21,-1,21,43,44,-1,21,44,19,-1,19,44,45,-1,19,45,17,-1,17,45,46,-1,17,46,15,-1,15,46,47,-1,15,47,12,-1,10,12,48,-1,48,12,47,-1,8,10,49,-1,49,10,48,-1,6,8,50,-1,50,8,49,-1,6,50,51,-1,6,51,4,-1,4,51,52,-1,4,52,2,-1,2,52,36,-1,2,36,0,-1,20,53,54,-1,20,54,22,-1,22,54,55,-1,22,55,24,-1,24,55,56,-1,24,56,26,-1,26,56,57,-1,26,57,28,-1,13,58,59,-1,13,59,14,-1,14,59,60,-1,14,60,16,-1,16,60,61,-1,16,61,18,-1,18,61,53,-1,18,53,20,-1,13,11,58,-1,58,11,62,-1,11,9,62,-1,62,9,63,-1,9,7,63,-1,63,7,64,-1,35,65,66,-1,35,66,1,-1,1,66,67,-1,1,67,3,-1,3,67,68,-1,3,68,5,-1,5,68,64,-1,5,64,7,-1,28,57,69,-1,28,69,30,-1,30,69,70,-1,30,70,32,-1,32,70,71,-1,32,71,34,-1,34,71,65,-1,34,65,35,-1,
        ]
    }
}
Shape{
    appearance Appearance {
        material  Material 	{
            diffuseColor 0.34901960784313724 0.34901960784313724 0.34901960784313724
            specularColor 0.023529411764705882 0.023529411764705882 0.023529411764705882
            ambientIntensity 0.498
            transparency 0.0
            shininess 0.5
        }
    }
    geometry IndexedFaceSet {
        ccw TRUE
        solid FALSE
        coord DEF co Coordinate {
            point [
                0.4621 -0.6197 0.4728, 0.4647 -0.6179 0.4728, 0.4541 -0.591 0.4728, 0.4476 -0.591 0.4728, 0.4476 -0.6216 0.4728, 0.4536 -0.591 0.4728, 0.4534 -0.6216 0.4728, 0.4589 -0.6209 0.4728, 0.4652 -0.6175 0.4728, 0.467 -0.6152 0.4728, 0.4684 -0.6123 0.4728, 0.4694 -0.6059 0.4728, 0.4651 -0.5947 0.4728, 0.4625 -0.593 0.4728, 0.4688 -0.6009 0.4728, 0.4677 -0.598 0.4728, 0.4662 -0.5958 0.4728, 0.4693 -0.6087 0.4728, 0.4591 -0.5916 0.4728
            ]
        }
        coordIndex [
            0,1,2,-1,3,4,5,-1,5,4,6,-1,5,6,2,-1,2,6,7,-1,2,7,0,-1,1,8,2,-1,2,8,9,-1,2,9,10,-1,11,12,13,-1,14,15,11,-1,11,15,16,-1,11,16,12,-1,10,17,2,-1,2,17,11,-1,2,11,18,-1,18,11,13,-1,
        ]
    }
}
Shape{
    appearance Appearance {
        material  Material 	{
            diffuseColor 1.0 1.0 1.0
            specularColor 0.5019607843137255 0.5019607843137255 0.5019607843137255
            ambientIntensity 1.0
            transparency 0.0
            shininess 0.5
        }
    }
    geometry IndexedFaceSet {
        ccw TRUE
        solid FALSE
        coord DEF co Coordinate {
            point [
                0.3953 -0.6191 0.4768, 0.3953 -0.6191 0.4728, 0.395 -0.6204 0.4728, 0.395 -0.6204 0.4768, 0.3947 -0.6214 0.4728, 0.3947 -0.6214 0.4768, 0.3946 -0.6214 0.4768, 0.3946 -0.6214 0.4728, 0.394 -0.6191 0.4768, 0.394 -0.6191 0.4728, 0.3866 -0.5978 0.4768, 0.389 -0.6047 0.4728, 0.3866 -0.5978 0.4728, 0.381 -0.5978 0.4768, 0.381 -0.5978 0.4728, 0.3921 -0.6261 0.4768, 0.389 -0.618 0.4728, 0.3921 -0.6261 0.4728, 0.39 -0.6312 0.4728, 0.39 -0.6312 0.4768, 0.392 -0.6265 0.4728, 0.389 -0.633 0.4728, 0.389 -0.633 0.4768, 0.389 -0.633 0.4728, 0.388 -0.6341 0.4728, 0.388 -0.6341 0.4768, 0.3872 -0.6346 0.4728, 0.3872 -0.6346 0.4768, 0.3861 -0.6351 0.4728, 0.3861 -0.6351 0.4768, 0.3849 -0.6352 0.4728, 0.3849 -0.6352 0.4768, 0.3831 -0.635 0.4728, 0.3831 -0.635 0.4768, 0.382 -0.6347 0.4728, 0.382 -0.6347 0.4768, 0.382 -0.6391 0.4768, 0.382 -0.6391 0.4728, 0.3841 -0.6394 0.4728, 0.3841 -0.6394 0.4768, 0.3852 -0.6395 0.4728, 0.3852 -0.6395 0.4768, 0.3873 -0.6393 0.4728, 0.3873 -0.6393 0.4768, 0.389 -0.6386 0.4728, 0.3892 -0.6385 0.4768, 0.3892 -0.6385 0.4728, 0.391 -0.6373 0.4728, 0.391 -0.6373 0.4768, 0.3913 -0.637 0.4728, 0.3913 -0.637 0.4768, 0.3931 -0.6348 0.4728, 0.3931 -0.6348 0.4768, 0.3954 -0.6304 0.4728, 0.3954 -0.6304 0.4768, 0.4082 -0.5978 0.4728, 0.4082 -0.5978 0.4768, 0.3969 -0.6265 0.4728, 0.4031 -0.5978 0.4768, 0.4031 -0.5978 0.4728, 0.367 -0.6268 0.4728, 0.3698 -0.6265 0.4728, 0.367 -0.6268 0.4768, 0.3714 -0.6263 0.4768, 0.3714 -0.6263 0.4728, 0.374 -0.6253 0.4728, 0.374 -0.6253 0.4768, 0.3752 -0.6245 0.4728, 0.3752 -0.6245 0.4768, 0.3766 -0.6233 0.4728, 0.3766 -0.6233 0.4768, 0.3776 -0.622 0.4728, 0.3776 -0.622 0.4768, 0.3782 -0.6204 0.4728, 0.3782 -0.6204 0.4768, 0.3784 -0.6184 0.4728, 0.3784 -0.6184 0.4768, 0.3782 -0.6166 0.4728, 0.3782 -0.6166 0.4768, 0.3777 -0.6151 0.4728, 0.3777 -0.6151 0.4768, 0.3768 -0.6137 0.4728, 0.3768 -0.6137 0.4768, 0.3756 -0.6127 0.4728, 0.3756 -0.6127 0.4768, 0.3723 -0.6108 0.4728, 0.3723 -0.6108 0.4768, 0.3703 -0.61 0.4728, 0.3703 -0.61 0.4768, 0.3673 -0.6087 0.4728, 0.3673 -0.6087 0.4768, 0.3655 -0.6076 0.4728, 0.3655 -0.6076 0.4768, 0.365 -0.6071 0.4728, 0.365 -0.6071 0.4768, 0.3647 -0.6064 0.4728, 0.3647 -0.6064 0.4768, 0.3645 -0.6056 0.4728, 0.3645 -0.6056 0.4768, 0.3644 -0.605 0.4728, 0.3644 -0.605 0.4768, 0.3645 -0.6042 0.4728, 0.3645 -0.6042 0.4768, 0.3648 -0.6035 0.4728, 0.3648 -0.6035 0.4768, 0.3652 -0.6029 0.4728, 0.3652 -0.6029 0.4768, 0.3659 -0.6022 0.4728, 0.3659 -0.6022 0.4768, 0.3671 -0.6016 0.4728, 0.3671 -0.6016 0.4768, 0.3684 -0.6013 0.4728, 0.3684 -0.6013 0.4768, 0.3699 -0.6011 0.4728, 0.3699 -0.6011 0.4768, 0.373 -0.6015 0.4728, 0.373 -0.6015 0.4768, 0.3758 -0.6025 0.4728, 0.3758 -0.6025 0.4768, 0.3771 -0.6032 0.4728, 0.3771 -0.6032 0.4768, 0.3771 -0.5984 0.4768, 0.3771 -0.5984 0.4728, 0.3738 -0.5974 0.4728, 0.3738 -0.5974 0.4768, 0.3703 -0.5971 0.4728, 0.3703 -0.5971 0.4768, 0.3669 -0.5974 0.4728, 0.3669 -0.5974 0.4768, 0.3641 -0.5984 0.4728, 0.3641 -0.5984 0.4768, 0.3625 -0.5994 0.4728, 0.3625 -0.5994 0.4768, 0.3616 -0.6002 0.4728, 0.361 -0.6007 0.4768, 0.361 -0.6007 0.4728, 0.3601 -0.602 0.4728, 0.3601 -0.602 0.4768, 0.3595 -0.6036 0.4728, 0.3595 -0.6036 0.4768, 0.3593 -0.6054 0.4728, 0.3593 -0.6054 0.4768, 0.3595 -0.6073 0.4728, 0.3595 -0.6073 0.4768, 0.3601 -0.6089 0.4728, 0.3601 -0.6089 0.4768, 0.3607 -0.6099 0.4728, 0.3607 -0.6099 0.4768, 0.3668 -0.6137 0.4728, 0.3668 -0.6137 0.4768, 0.3639 -0.6123 0.4768, 0.3615 -0.6107 0.4728, 0.3615 -0.6107 0.4768, 0.3616 -0.6108 0.4728, 0.3639 -0.6123 0.4728, 0.3701 -0.615 0.4728, 0.3701 -0.615 0.4768, 0.372 -0.6162 0.4728, 0.372 -0.6162 0.4768, 0.3727 -0.6168 0.4728, 0.3727 -0.6168 0.4768, 0.373 -0.6175 0.4728, 0.373 -0.6175 0.4768, 0.3733 -0.6183 0.4728, 0.3733 -0.6183 0.4768, 0.3733 -0.6189 0.4728, 0.3733 -0.6189 0.4768, 0.3732 -0.6198 0.4728, 0.3732 -0.6198 0.4768, 0.373 -0.6206 0.4728, 0.373 -0.6206 0.4768, 0.3725 -0.6212 0.4728, 0.3725 -0.6212 0.4768, 0.372 -0.6217 0.4728, 0.372 -0.6217 0.4768, 0.3715 -0.622 0.4728, 0.3715 -0.622 0.4768, 0.3702 -0.6224 0.4728, 0.3702 -0.6224 0.4768, 0.3677 -0.6227 0.4728, 0.3677 -0.6227 0.4768, 0.3674 -0.6227 0.4728, 0.3674 -0.6227 0.4768, 0.3593 -0.62 0.4728, 0.3593 -0.62 0.4768, 0.3613 -0.6212 0.4768, 0.3644 -0.6224 0.4728, 0.3644 -0.6224 0.4768, 0.3616 -0.6213 0.4728, 0.3613 -0.6212 0.4728, 0.3593 -0.6251 0.4768, 0.3593 -0.6251 0.4728, 0.3616 -0.626 0.4728, 0.3622 -0.6262 0.4768, 0.3641 -0.6265 0.4728, 0.3622 -0.6262 0.4728, 0.3475 -0.6261 0.4768, 0.3525 -0.6261 0.4768, 0.3475 -0.6217 0.4768, 0.3525 -0.6079 0.4768, 0.3409 -0.6128 0.4768, 0.3475 -0.6119 0.4768, 0.3475 -0.6081 0.4768, 0.3351 -0.6162 0.4768, 0.3355 -0.6153 0.4768, 0.3318 -0.6125 0.4768, 0.3474 -0.6217 0.4768, 0.3448 -0.621 0.4768, 0.3462 -0.6235 0.4768, 0.3434 -0.622 0.4768, 0.3334 -0.6112 0.4768, 0.3475 -0.6146 0.4768, 0.3522 -0.6043 0.4768, 0.3475 -0.6149 0.4768, 0.3472 -0.6172 0.4768, 0.3465 -0.6189 0.4768, 0.3454 -0.6204 0.4768, 0.3325 -0.5997 0.4768, 0.3325 -0.6046 0.4768, 0.3335 -0.5991 0.4768, 0.3354 -0.6027 0.4768, 0.3372 -0.5977 0.4768, 0.3385 -0.6015 0.4768, 0.3423 -0.5971 0.4768, 0.3418 -0.6011 0.4768, 0.3454 -0.5974 0.4768, 0.3435 -0.6013 0.4768, 0.3475 -0.5981 0.4768, 0.3446 -0.6017 0.4768, 0.3491 -0.599 0.4768, 0.3455 -0.6023 0.4768, 0.3504 -0.6003 0.4768, 0.3463 -0.6031 0.4768, 0.3514 -0.602 0.4768, 0.3469 -0.6041 0.4768, 0.3474 -0.6059 0.4768, 0.3391 -0.6093 0.4768, 0.3365 -0.6142 0.4768, 0.3376 -0.6136 0.4768, 0.3358 -0.621 0.4768, 0.3322 -0.6246 0.4768, 0.3362 -0.6214 0.4768, 0.3338 -0.6257 0.4768, 0.3372 -0.6221 0.4768, 0.3357 -0.6264 0.4768, 0.3383 -0.6225 0.4768, 0.3387 -0.6268 0.4768, 0.34 -0.6227 0.4768, 0.3415 -0.6265 0.4768, 0.3419 -0.6225 0.4768, 0.3435 -0.6257 0.4768, 0.3446 -0.625 0.4768, 0.3361 -0.6145 0.4768, 0.3356 -0.6101 0.4768, 0.3308 -0.6139 0.4768, 0.3301 -0.6156 0.4768, 0.3348 -0.6173 0.4768, 0.3298 -0.6177 0.4768, 0.3348 -0.6181 0.4768, 0.3297 -0.6185 0.4768, 0.3349 -0.6193 0.4768, 0.33 -0.6208 0.4768, 0.3352 -0.6202 0.4768, 0.3306 -0.6225 0.4768, 0.3316 -0.624 0.4768, 0.3418 -0.6011 0.4728, 0.3435 -0.6013 0.4728, 0.3446 -0.6017 0.4728, 0.3455 -0.6023 0.4728, 0.3463 -0.6031 0.4728, 0.3469 -0.6041 0.4728, 0.3474 -0.6059 0.4728, 0.3475 -0.6081 0.4728, 0.3391 -0.6093 0.4728, 0.3356 -0.6101 0.4728, 0.3334 -0.6112 0.4728, 0.3318 -0.6125 0.4728, 0.3308 -0.6139 0.4728, 0.3301 -0.6156 0.4728, 0.3298 -0.6177 0.4728, 0.3297 -0.6185 0.4728, 0.33 -0.6208 0.4728, 0.3306 -0.6225 0.4728, 0.3316 -0.624 0.4728, 0.3322 -0.6246 0.4728, 0.3387 -0.6268 0.4728, 0.3358 -0.6265 0.4728, 0.3357 -0.6264 0.4728, 0.3338 -0.6257 0.4728, 0.3415 -0.6265 0.4728, 0.3435 -0.6257 0.4728, 0.3446 -0.625 0.4728, 0.3462 -0.6235 0.4728, 0.3474 -0.6217 0.4728, 0.3475 -0.6217 0.4728, 0.3475 -0.6261 0.4728, 0.3525 -0.6261 0.4728, 0.3525 -0.6079 0.4728, 0.3522 -0.6043 0.4728, 0.3514 -0.602 0.4728, 0.3504 -0.6003 0.4728, 0.3491 -0.599 0.4728, 0.3475 -0.5981 0.4728, 0.3454 -0.5974 0.4728, 0.3423 -0.5971 0.4728, 0.3372 -0.5977 0.4728, 0.3335 -0.5991 0.4728, 0.3325 -0.5997 0.4728, 0.3325 -0.6046 0.4728, 0.3354 -0.6027 0.4728, 0.3385 -0.6015 0.4728, 0.3454 -0.6204 0.4728, 0.3448 -0.621 0.4728, 0.3434 -0.622 0.4728, 0.3419 -0.6225 0.4728, 0.34 -0.6227 0.4728, 0.3475 -0.6146 0.4728, 0.3475 -0.6149 0.4728, 0.3472 -0.6172 0.4728, 0.3465 -0.6189 0.4728, 0.3475 -0.6119 0.4728, 0.3409 -0.6128 0.4728, 0.3361 -0.6145 0.4728, 0.3365 -0.6142 0.4728, 0.3376 -0.6136 0.4728, 0.3348 -0.6181 0.4728, 0.3348 -0.6173 0.4728, 0.3351 -0.6162 0.4728, 0.3355 -0.6153 0.4728, 0.3362 -0.6214 0.4728, 0.3358 -0.621 0.4728, 0.3352 -0.6202 0.4728, 0.3349 -0.6193 0.4728, 0.3383 -0.6225 0.4728, 0.3372 -0.6221 0.4728
            ]
        }
        coordIndex [
            0,1,2,-1,0,2,3,-1,3,2,4,-1,3,4,5,-1,6,5,7,-1,7,5,4,-1,8,6,9,-1,9,6,7,-1,8,9,10,-1,10,9,11,-1,10,11,12,-1,13,10,14,-1,14,10,12,-1,13,14,15,-1,15,14,16,-1,15,16,17,-1,18,19,20,-1,20,19,15,-1,20,15,17,-1,18,21,19,-1,19,21,22,-1,21,23,22,-1,22,23,24,-1,22,24,25,-1,25,24,26,-1,25,26,27,-1,27,26,28,-1,27,28,29,-1,29,28,30,-1,29,30,31,-1,31,30,32,-1,31,32,33,-1,33,32,34,-1,33,34,35,-1,36,35,37,-1,37,35,34,-1,36,37,38,-1,36,38,39,-1,39,38,40,-1,39,40,41,-1,41,40,42,-1,41,42,43,-1,43,42,44,-1,43,44,45,-1,44,46,45,-1,45,46,47,-1,45,47,48,-1,48,47,49,-1,48,49,50,-1,50,49,51,-1,50,51,52,-1,52,51,53,-1,52,53,54,-1,55,56,57,-1,57,56,54,-1,57,54,53,-1,58,56,59,-1,59,56,55,-1,0,58,1,-1,1,58,59,-1,3,5,54,-1,56,58,54,-1,54,58,0,-1,54,0,3,-1,10,13,8,-1,8,13,15,-1,8,15,6,-1,35,36,33,-1,33,36,39,-1,33,39,31,-1,31,39,41,-1,31,41,29,-1,29,41,43,-1,29,43,27,-1,27,43,45,-1,27,45,25,-1,5,6,54,-1,54,6,15,-1,54,15,52,-1,15,19,52,-1,52,19,22,-1,52,22,50,-1,50,22,25,-1,50,25,48,-1,48,25,45,-1,60,61,62,-1,62,61,63,-1,61,64,63,-1,63,64,65,-1,63,65,66,-1,66,65,67,-1,66,67,68,-1,68,67,69,-1,68,69,70,-1,70,69,71,-1,70,71,72,-1,72,71,73,-1,72,73,74,-1,74,73,75,-1,74,75,76,-1,76,75,77,-1,76,77,78,-1,78,77,79,-1,78,79,80,-1,80,79,81,-1,80,81,82,-1,82,81,83,-1,82,83,84,-1,84,83,85,-1,84,85,86,-1,86,85,87,-1,86,87,88,-1,88,87,89,-1,88,89,90,-1,90,89,91,-1,90,91,92,-1,92,91,93,-1,92,93,94,-1,94,93,95,-1,94,95,96,-1,96,95,97,-1,96,97,98,-1,98,97,99,-1,98,99,100,-1,100,99,101,-1,100,101,102,-1,102,101,103,-1,102,103,104,-1,104,103,105,-1,104,105,106,-1,106,105,107,-1,106,107,108,-1,108,107,109,-1,108,109,110,-1,110,109,111,-1,110,111,112,-1,112,111,113,-1,112,113,114,-1,114,113,115,-1,114,115,116,-1,116,115,117,-1,116,117,118,-1,118,117,119,-1,118,119,120,-1,121,120,122,-1,122,120,119,-1,121,122,123,-1,121,123,124,-1,124,123,125,-1,124,125,126,-1,126,125,127,-1,126,127,128,-1,128,127,129,-1,128,129,130,-1,130,129,131,-1,130,131,132,-1,131,133,132,-1,132,133,134,-1,133,135,134,-1,134,135,136,-1,134,136,137,-1,137,136,138,-1,137,138,139,-1,139,138,140,-1,139,140,141,-1,141,140,142,-1,141,142,143,-1,143,142,144,-1,143,144,145,-1,145,144,146,-1,145,146,147,-1,148,149,150,-1,147,146,151,-1,147,151,152,-1,152,151,153,-1,152,153,150,-1,150,153,154,-1,150,154,148,-1,149,148,155,-1,149,155,156,-1,156,155,157,-1,156,157,158,-1,158,157,159,-1,158,159,160,-1,160,159,161,-1,160,161,162,-1,162,161,163,-1,162,163,164,-1,164,163,165,-1,164,165,166,-1,166,165,167,-1,166,167,168,-1,168,167,169,-1,168,169,170,-1,170,169,171,-1,170,171,172,-1,172,171,173,-1,172,173,174,-1,174,173,175,-1,174,175,176,-1,176,175,177,-1,176,177,178,-1,178,177,179,-1,178,179,180,-1,180,179,181,-1,180,181,182,-1,183,184,185,-1,182,181,186,-1,182,186,187,-1,187,186,188,-1,187,188,185,-1,185,188,189,-1,185,189,183,-1,190,184,191,-1,191,184,183,-1,191,192,190,-1,190,192,193,-1,60,62,194,-1,194,62,193,-1,194,193,195,-1,195,193,192,-1,106,108,130,-1,130,108,128,-1,156,88,149,-1,149,88,90,-1,66,68,172,-1,172,68,70,-1,172,70,170,-1,170,70,72,-1,170,72,168,-1,168,72,74,-1,168,74,166,-1,166,74,76,-1,166,76,164,-1,164,76,78,-1,164,78,162,-1,162,78,80,-1,162,80,160,-1,160,80,82,-1,160,82,158,-1,158,82,84,-1,158,84,156,-1,156,84,86,-1,156,86,88,-1,62,182,193,-1,193,182,187,-1,193,187,190,-1,190,187,185,-1,190,185,184,-1,108,110,128,-1,128,110,112,-1,128,112,126,-1,126,112,114,-1,126,114,124,-1,124,114,116,-1,124,116,121,-1,121,116,118,-1,121,118,120,-1,172,174,66,-1,66,174,176,-1,66,176,63,-1,63,176,178,-1,63,178,62,-1,62,178,180,-1,62,180,182,-1,130,132,106,-1,106,132,134,-1,106,134,104,-1,104,134,137,-1,104,137,102,-1,102,137,139,-1,102,139,100,-1,100,139,141,-1,100,141,98,-1,98,141,143,-1,98,143,96,-1,96,143,145,-1,96,145,94,-1,94,145,147,-1,94,147,92,-1,92,147,152,-1,92,152,90,-1,90,152,150,-1,90,150,149,-1,196,197,198,-1,198,197,199,-1,200,201,202,-1,203,204,205,-1,206,207,208,-1,208,207,209,-1,205,204,210,-1,211,199,201,-1,201,199,212,-1,201,212,202,-1,211,213,199,-1,199,213,214,-1,199,214,198,-1,198,214,215,-1,198,215,206,-1,206,215,216,-1,206,216,207,-1,217,218,219,-1,219,218,220,-1,219,220,221,-1,221,220,222,-1,221,222,223,-1,223,222,224,-1,223,224,225,-1,225,224,226,-1,225,226,227,-1,227,226,228,-1,227,228,229,-1,229,228,230,-1,229,230,231,-1,231,230,232,-1,231,232,233,-1,233,232,234,-1,233,234,212,-1,212,234,235,-1,212,235,202,-1,236,237,202,-1,202,237,238,-1,202,238,200,-1,239,240,241,-1,241,240,242,-1,241,242,243,-1,243,242,244,-1,243,244,245,-1,245,244,246,-1,245,246,247,-1,247,246,248,-1,247,248,249,-1,249,248,250,-1,249,250,209,-1,209,250,251,-1,209,251,208,-1,204,252,210,-1,210,252,237,-1,210,237,253,-1,253,237,236,-1,205,254,203,-1,203,254,255,-1,203,255,256,-1,256,255,257,-1,256,257,258,-1,258,257,259,-1,258,259,260,-1,260,259,261,-1,260,261,262,-1,262,261,263,-1,262,263,239,-1,239,263,264,-1,239,264,240,-1,224,265,266,-1,224,266,226,-1,226,266,267,-1,226,267,228,-1,228,267,268,-1,228,268,230,-1,230,268,269,-1,230,269,232,-1,232,269,270,-1,232,270,234,-1,234,270,271,-1,234,271,235,-1,235,271,272,-1,235,272,202,-1,236,202,273,-1,273,202,272,-1,236,273,274,-1,236,274,253,-1,253,274,275,-1,253,275,210,-1,210,275,276,-1,210,276,205,-1,205,276,277,-1,205,277,254,-1,254,277,278,-1,254,278,255,-1,255,278,279,-1,255,279,257,-1,257,279,280,-1,257,280,259,-1,259,280,281,-1,259,281,261,-1,261,281,282,-1,261,282,263,-1,263,282,283,-1,263,283,264,-1,264,283,284,-1,264,284,240,-1,285,246,286,-1,286,246,244,-1,286,244,287,-1,287,244,242,-1,287,242,288,-1,288,242,240,-1,288,240,284,-1,246,285,289,-1,246,289,248,-1,248,289,290,-1,248,290,250,-1,250,290,291,-1,250,291,251,-1,251,291,292,-1,251,292,208,-1,208,292,293,-1,208,293,206,-1,198,206,294,-1,294,206,293,-1,196,198,295,-1,295,198,294,-1,197,196,296,-1,296,196,295,-1,199,197,297,-1,297,197,296,-1,199,297,298,-1,199,298,212,-1,212,298,299,-1,212,299,233,-1,233,299,300,-1,233,300,231,-1,231,300,301,-1,231,301,229,-1,229,301,302,-1,229,302,227,-1,227,302,303,-1,227,303,225,-1,225,303,304,-1,225,304,223,-1,223,304,305,-1,223,305,221,-1,221,305,306,-1,221,306,219,-1,219,306,307,-1,219,307,217,-1,218,217,308,-1,308,217,307,-1,218,308,309,-1,218,309,220,-1,220,309,310,-1,220,310,222,-1,222,310,265,-1,222,265,224,-1,216,311,312,-1,216,312,207,-1,207,312,313,-1,207,313,209,-1,209,313,314,-1,209,314,249,-1,249,314,315,-1,249,315,247,-1,211,316,317,-1,211,317,213,-1,213,317,318,-1,213,318,214,-1,214,318,319,-1,214,319,215,-1,215,319,311,-1,215,311,216,-1,211,201,316,-1,316,201,320,-1,201,200,320,-1,320,200,321,-1,252,322,323,-1,252,323,237,-1,237,323,324,-1,237,324,238,-1,238,324,321,-1,238,321,200,-1,258,325,326,-1,258,326,256,-1,256,326,327,-1,256,327,203,-1,203,327,328,-1,203,328,204,-1,204,328,322,-1,204,322,252,-1,241,329,330,-1,241,330,239,-1,239,330,331,-1,239,331,262,-1,262,331,332,-1,262,332,260,-1,260,332,325,-1,260,325,258,-1,247,315,333,-1,247,333,245,-1,245,333,334,-1,245,334,243,-1,243,334,329,-1,243,329,241,-1,
        ]
    }
}
Shape{
    appearance Appearance {
        material  Material 	{
            diffuseColor 0.34901960784313724 0.34901960784313724 0.34901960784313724
            specularColor 0.023529411764705882 0.023529411764705882 0.023529411764705882
            ambientIntensity 0.498
            transparency 0.0
            shininess 0.5
        }
    }
    geometry IndexedFaceSet {
        ccw TRUE
        solid FALSE
        coord DEF co Coordinate {
            point [
                0.3475 -0.6149 0.4728, 0.3475 -0.6146 0.4728, 0.3361 -0.6145 0.4728, 0.3475 -0.6119 0.4728, 0.3409 -0.6128 0.4728, 0.3376 -0.6136 0.4728, 0.3365 -0.6142 0.4728, 0.3472 -0.6172 0.4728, 0.3355 -0.6153 0.4728, 0.3465 -0.6189 0.4728, 0.3358 -0.621 0.4728, 0.3362 -0.6214 0.4728, 0.3448 -0.621 0.4728, 0.3352 -0.6202 0.4728, 0.3434 -0.622 0.4728, 0.3419 -0.6225 0.4728, 0.34 -0.6227 0.4728, 0.3351 -0.6162 0.4728, 0.3348 -0.6173 0.4728, 0.3454 -0.6204 0.4728, 0.3348 -0.6181 0.4728, 0.3349 -0.6193 0.4728, 0.3372 -0.6221 0.4728, 0.3383 -0.6225 0.4728
            ]
        }
        coordIndex [
            0,1,2,-1,1,3,4,-1,4,5,1,-1,1,5,6,-1,1,6,2,-1,0,2,7,-1,7,2,8,-1,7,8,9,-1,10,11,12,-1,10,12,13,-1,14,12,15,-1,15,12,16,-1,8,17,9,-1,9,17,18,-1,9,18,19,-1,19,18,20,-1,19,20,12,-1,12,20,21,-1,12,21,13,-1,11,22,12,-1,12,22,23,-1,12,23,16,-1,
        ]
    }
}
Shape{
    appearance Appearance {
        material  Material 	{
            diffuseColor 1.0 1.0 1.0
            specularColor 0.5019607843137255 0.5019607843137255 0.5019607843137255
            ambientIntensity 1.0
            transparency 0.0
            shininess 0.5
        }
    }
    geometry IndexedFaceSet {
        ccw TRUE
        solid FALSE
        coord DEF co Coordinate {
            point [
                0.1282 -0.6318 0.4768, 0.1324 -0.6369 0.4768, 0.1256 -0.6068 0.4768, 0.1207 -0.5577 0.4768, 0.127 -0.5544 0.4768, 0.1255 -0.537 0.4768, 0.1431 -0.5362 0.4768, 0.1519 -0.5568 0.4768, 0.1562 -0.5479 0.4768, 0.1804 -0.6167 0.4768, 0.1804 -0.6138 0.4768, 0.1565 -0.6069 0.4768, 0.1539 -0.6061 0.4768, 0.1195 -0.603 0.4768, 0.1217 -0.6246 0.4768, 0.1254 -0.6257 0.4768, 0.1367 -0.5356 0.4768, 0.1607 -0.6104 0.4768, 0.162 -0.6126 0.4768, 0.1803 -0.6196 0.4768, 0.22 -0.5929 0.4768, 0.2112 -0.578 0.4768, 0.1734 -0.5977 0.4768, 0.1519 -0.6059 0.4768, 0.1493 -0.6063 0.4768, 0.1454 -0.589 0.4768, 0.1468 -0.6072 0.4768, 0.1392 -0.5914 0.4768, 0.1446 -0.6087 0.4768, 0.1334 -0.5954 0.4768, 0.1431 -0.6103 0.4768, 0.1288 -0.6007 0.4768, 0.1417 -0.6127 0.4768, 0.141 -0.6154 0.4768, 0.1624 -0.59 0.4768, 0.1556 -0.5883 0.4768, 0.1522 -0.5881 0.4768, 0.1588 -0.6084 0.4768, 0.1446 -0.6252 0.4768, 0.1468 -0.6267 0.4768, 0.1379 -0.6411 0.4768, 0.1494 -0.6277 0.4768, 0.2293 -0.565 0.4768, 0.2315 -0.565 0.4768, 0.2431 -0.5497 0.4768, 0.2369 -0.5656 0.4768, 0.2445 -0.5502 0.4768, 0.2418 -0.5675 0.4768, 0.2529 -0.5544 0.4768, 0.2606 -0.5609 0.4768, 0.1489 -0.5294 0.4768, 0.1625 -0.5403 0.4768, 0.1556 -0.5237 0.4768, 0.1701 -0.5348 0.4768, 0.1638 -0.5188 0.4768, 0.134 -0.5527 0.4768, 0.1369 -0.5526 0.4768, 0.1399 -0.5358 0.4768, 0.1435 -0.5534 0.4768, 0.1499 -0.5557 0.4768, 0.1684 -0.5932 0.4768, 0.2606 -0.6136 0.4768, 0.2475 -0.6023 0.4768, 0.2529 -0.6201 0.4768, 0.2433 -0.6058 0.4768, 0.2443 -0.6243 0.4768, 0.2383 -0.6081 0.4768, 0.2349 -0.6263 0.4768, 0.2332 -0.609 0.4768, 0.2183 -0.6263 0.4768, 0.2205 -0.609 0.4768, 0.2167 -0.626 0.4768, 0.1428 -0.6231 0.4768, 0.1416 -0.6208 0.4768, 0.141 -0.6182 0.4768, 0.2462 -0.5706 0.4768, 0.2495 -0.5742 0.4768, 0.2663 -0.5689 0.4768, 0.2521 -0.5791 0.4768, 0.2698 -0.5775 0.4768, 0.2534 -0.5845 0.4768, 0.2711 -0.5867 0.4768, 0.2536 -0.587 0.4768, 0.2698 -0.5968 0.4768, 0.2529 -0.5925 0.4768, 0.2662 -0.6058 0.4768, 0.2509 -0.5975 0.4768, 0.2478 -0.6019 0.4768, 0.2279 -0.5274 0.4768, 0.2168 -0.5404 0.4768, 0.2378 -0.5391 0.4768, 0.2232 -0.548 0.4768, 0.2276 -0.5571 0.4768, 0.1095 -0.574 0.4768, 0.091 -0.5786 0.4768, 0.1087 -0.5808 0.4768, 0.0909 -0.5814 0.4768, 0.109 -0.5851 0.4768, 0.0923 -0.5924 0.4768, 0.1111 -0.592 0.4768, 0.0963 -0.6029 0.4768, 0.1144 -0.5978 0.4768, 0.1028 -0.6121 0.4768, 0.1115 -0.6196 0.4768, 0.1628 -0.6152 0.4768, 0.1629 -0.618 0.4768, 0.1786 -0.6266 0.4768, 0.1623 -0.6207 0.4768, 0.1753 -0.6329 0.4768, 0.161 -0.6231 0.4768, 0.1709 -0.6377 0.4768, 0.1592 -0.6252 0.4768, 0.1653 -0.6416 0.4768, 0.157 -0.6267 0.4768, 0.159 -0.6441 0.4768, 0.1546 -0.6276 0.4768, 0.1522 -0.6449 0.4768, 0.1519 -0.628 0.4768, 0.1511 -0.6449 0.4768, 0.1444 -0.6438 0.4768, 0.1769 -0.5141 0.4768, 0.1794 -0.531 0.4768, 0.1895 -0.5127 0.4768, 0.1897 -0.5297 0.4768, 0.2031 -0.5144 0.4768, 0.1993 -0.5309 0.4768, 0.2171 -0.5199 0.4768, 0.2082 -0.5342 0.4768, 0.2161 -0.5398 0.4768, 0.1151 -0.541 0.4768, 0.1061 -0.5474 0.4768, 0.1159 -0.562 0.4768, 0.1042 -0.5492 0.4768, 0.112 -0.5677 0.4768, 0.0974 -0.5579 0.4768, 0.0929 -0.568 0.4768, 0.2191 -0.6088 0.4768, 0.2123 -0.6233 0.4768, 0.213 -0.624 0.4768, 0.22 -0.609 0.4768, 0.2148 -0.6253 0.4768, 0.2101 -0.6175 0.4768, 0.2103 -0.6196 0.4768, 0.2111 -0.6215 0.4768, 0.2166 -0.609 0.4768, 0.2147 -0.6098 0.4768, 0.2101 -0.6164 0.4768, 0.213 -0.611 0.4768, 0.2118 -0.6123 0.4768, 0.2107 -0.6142 0.4768, 0.2188 -0.6088 0.4768, 0.2624 -0.5634 0.4728, 0.2663 -0.5689 0.4728, 0.2688 -0.5751 0.4728, 0.2698 -0.5775 0.4728, 0.2711 -0.5867 0.4728, 0.2606 -0.5609 0.4728, 0.2529 -0.5544 0.4728, 0.2445 -0.5502 0.4728, 0.2431 -0.5497 0.4728, 0.2378 -0.5391 0.4728, 0.2279 -0.5274 0.4728, 0.2216 -0.5231 0.4728, 0.2171 -0.5199 0.4728, 0.2031 -0.5144 0.4728, 0.1895 -0.5127 0.4728, 0.1556 -0.5237 0.4728, 0.1567 -0.5231 0.4728, 0.1638 -0.5188 0.4728, 0.1769 -0.5141 0.4728, 0.1489 -0.5294 0.4728, 0.1431 -0.5362 0.4728, 0.1399 -0.5358 0.4728, 0.1367 -0.5356 0.4728, 0.1255 -0.537 0.4728, 0.1151 -0.541 0.4728, 0.1061 -0.5474 0.4728, 0.1042 -0.5492 0.4728, 0.0974 -0.5579 0.4728, 0.0949 -0.5634 0.4728, 0.0929 -0.568 0.4728, 0.0916 -0.5751 0.4728, 0.091 -0.5786 0.4728, 0.0909 -0.5814 0.4728, 0.0923 -0.5924 0.4728, 0.0963 -0.6029 0.4728, 0.1028 -0.6121 0.4728, 0.1115 -0.6196 0.4728, 0.1217 -0.6246 0.4728, 0.1254 -0.6257 0.4728, 0.1257 -0.6265 0.4728, 0.1282 -0.6318 0.4728, 0.1324 -0.6369 0.4728, 0.1379 -0.6411 0.4728, 0.1405 -0.6422 0.4728, 0.1444 -0.6438 0.4728, 0.1511 -0.6449 0.4728, 0.1522 -0.6449 0.4728, 0.1804 -0.6167 0.4728, 0.159 -0.6441 0.4728, 0.1639 -0.6422 0.4728, 0.1653 -0.6416 0.4728, 0.1709 -0.6377 0.4728, 0.1753 -0.6329 0.4728, 0.1786 -0.6266 0.4728, 0.1786 -0.6265 0.4728, 0.1803 -0.6196 0.4728, 0.1804 -0.6138 0.4728, 0.22 -0.5929 0.4728, 0.2112 -0.578 0.4728, 0.1734 -0.5977 0.4728, 0.1684 -0.5932 0.4728, 0.1624 -0.59 0.4728, 0.1556 -0.5883 0.4728, 0.1522 -0.5881 0.4728, 0.1454 -0.589 0.4728, 0.1392 -0.5914 0.4728, 0.1334 -0.5954 0.4728, 0.1288 -0.6007 0.4728, 0.1256 -0.6068 0.4728, 0.1195 -0.603 0.4728, 0.1144 -0.5978 0.4728, 0.1111 -0.592 0.4728, 0.109 -0.5851 0.4728, 0.1087 -0.5808 0.4728, 0.1094 -0.5751 0.4728, 0.1095 -0.574 0.4728, 0.112 -0.5677 0.4728, 0.1149 -0.5634 0.4728, 0.1159 -0.562 0.4728, 0.1207 -0.5577 0.4728, 0.127 -0.5544 0.4728, 0.134 -0.5527 0.4728, 0.1369 -0.5526 0.4728, 0.1435 -0.5534 0.4728, 0.1499 -0.5557 0.4728, 0.1519 -0.5568 0.4728, 0.1562 -0.5479 0.4728, 0.1625 -0.5403 0.4728, 0.1701 -0.5348 0.4728, 0.1794 -0.531 0.4728, 0.1897 -0.5297 0.4728, 0.2293 -0.565 0.4728, 0.2289 -0.5634 0.4728, 0.2276 -0.5571 0.4728, 0.2232 -0.548 0.4728, 0.2168 -0.5404 0.4728, 0.2161 -0.5398 0.4728, 0.2082 -0.5342 0.4728, 0.1993 -0.5309 0.4728, 0.2315 -0.565 0.4728, 0.2369 -0.5656 0.4728, 0.2418 -0.5675 0.4728, 0.2462 -0.5706 0.4728, 0.2495 -0.5742 0.4728, 0.2499 -0.5751 0.4728, 0.2521 -0.5791 0.4728, 0.2534 -0.5845 0.4728, 0.2536 -0.587 0.4728, 0.2529 -0.5925 0.4728, 0.2509 -0.5975 0.4728, 0.2478 -0.6019 0.4728, 0.2475 -0.6023 0.4728, 0.2433 -0.6058 0.4728, 0.2383 -0.6081 0.4728, 0.2332 -0.609 0.4728, 0.2205 -0.609 0.4728, 0.22 -0.609 0.4728, 0.2191 -0.6088 0.4728, 0.2188 -0.6088 0.4728, 0.2166 -0.609 0.4728, 0.2147 -0.6098 0.4728, 0.213 -0.611 0.4728, 0.2118 -0.6123 0.4728, 0.2107 -0.6142 0.4728, 0.2101 -0.6164 0.4728, 0.2101 -0.6175 0.4728, 0.2103 -0.6196 0.4728, 0.2111 -0.6215 0.4728, 0.2123 -0.6233 0.4728, 0.213 -0.624 0.4728, 0.2148 -0.6253 0.4728, 0.2167 -0.626 0.4728, 0.2183 -0.6263 0.4728, 0.2349 -0.6263 0.4728, 0.2443 -0.6243 0.4728, 0.2529 -0.6201 0.4728, 0.2606 -0.6136 0.4728, 0.2662 -0.6058 0.4728, 0.2698 -0.5968 0.4728, 0.1519 -0.6059 0.4728, 0.1539 -0.6061 0.4728, 0.1565 -0.6069 0.4728, 0.1588 -0.6084 0.4728, 0.1607 -0.6104 0.4728, 0.162 -0.6126 0.4728, 0.1628 -0.6152 0.4728, 0.1629 -0.618 0.4728, 0.1623 -0.6207 0.4728, 0.161 -0.6231 0.4728, 0.1592 -0.6252 0.4728, 0.157 -0.6267 0.4728, 0.1546 -0.6276 0.4728, 0.1519 -0.628 0.4728, 0.1494 -0.6277 0.4728, 0.1468 -0.6267 0.4728, 0.1446 -0.6252 0.4728, 0.1428 -0.6231 0.4728, 0.1416 -0.6208 0.4728, 0.141 -0.6182 0.4728, 0.141 -0.6154 0.4728, 0.1417 -0.6127 0.4728, 0.1431 -0.6103 0.4728, 0.1446 -0.6087 0.4728, 0.1468 -0.6072 0.4728, 0.1493 -0.6063 0.4728
            ]
        }
        coordIndex [
            0,1,2,-1,3,4,5,-1,6,7,8,-1,9,10,11,-1,11,10,12,-1,13,14,2,-1,2,14,15,-1,2,15,0,-1,5,4,16,-1,17,18,19,-1,20,21,10,-1,10,21,22,-1,10,22,12,-1,12,22,23,-1,24,25,26,-1,26,25,27,-1,26,27,28,-1,28,27,29,-1,28,29,30,-1,30,29,31,-1,30,31,32,-1,32,31,2,-1,32,2,33,-1,34,35,24,-1,24,35,36,-1,24,36,25,-1,9,11,19,-1,19,11,37,-1,19,37,17,-1,38,1,39,-1,39,1,40,-1,39,40,41,-1,42,43,44,-1,44,43,45,-1,44,45,46,-1,46,45,47,-1,46,47,48,-1,48,47,49,-1,6,8,50,-1,50,8,51,-1,50,51,52,-1,52,51,53,-1,52,53,54,-1,4,55,16,-1,16,55,56,-1,16,56,57,-1,57,56,58,-1,57,58,6,-1,6,58,59,-1,6,59,7,-1,23,22,24,-1,24,22,60,-1,24,60,34,-1,61,62,63,-1,63,62,64,-1,63,64,65,-1,65,64,66,-1,65,66,67,-1,67,66,68,-1,67,68,69,-1,69,68,70,-1,69,70,71,-1,38,72,1,-1,1,72,73,-1,1,73,2,-1,2,73,74,-1,2,74,33,-1,47,75,49,-1,49,75,76,-1,49,76,77,-1,77,76,78,-1,77,78,79,-1,79,78,80,-1,79,80,81,-1,81,80,82,-1,81,82,83,-1,83,82,84,-1,83,84,85,-1,85,84,86,-1,85,86,61,-1,61,86,87,-1,61,87,62,-1,88,89,90,-1,90,89,91,-1,90,91,44,-1,44,91,92,-1,44,92,42,-1,93,94,95,-1,95,94,96,-1,95,96,97,-1,97,96,98,-1,97,98,99,-1,99,98,100,-1,99,100,101,-1,101,100,102,-1,101,102,13,-1,13,102,103,-1,13,103,14,-1,18,104,19,-1,19,104,105,-1,19,105,106,-1,106,105,107,-1,106,107,108,-1,108,107,109,-1,108,109,110,-1,110,109,111,-1,110,111,112,-1,112,111,113,-1,112,113,114,-1,114,113,115,-1,114,115,116,-1,116,115,117,-1,116,117,118,-1,118,117,41,-1,118,41,119,-1,119,41,40,-1,54,53,120,-1,120,53,121,-1,120,121,122,-1,122,121,123,-1,122,123,124,-1,124,123,125,-1,124,125,126,-1,126,125,127,-1,126,127,88,-1,88,127,128,-1,88,128,89,-1,5,129,3,-1,3,129,130,-1,3,130,131,-1,131,130,132,-1,131,132,133,-1,133,132,134,-1,133,134,93,-1,93,134,135,-1,93,135,94,-1,136,137,138,-1,70,139,71,-1,71,139,136,-1,71,136,140,-1,140,136,138,-1,141,142,136,-1,136,142,143,-1,136,143,137,-1,144,145,146,-1,145,147,146,-1,146,147,148,-1,146,148,149,-1,141,136,146,-1,146,136,150,-1,146,150,144,-1,151,49,152,-1,152,49,77,-1,152,77,153,-1,153,77,79,-1,153,79,154,-1,154,79,81,-1,154,81,155,-1,151,156,49,-1,49,156,157,-1,49,157,48,-1,48,157,158,-1,48,158,46,-1,46,158,159,-1,46,159,44,-1,44,159,160,-1,44,160,90,-1,90,160,161,-1,90,161,88,-1,88,161,126,-1,126,161,162,-1,162,163,126,-1,126,163,164,-1,126,164,124,-1,124,164,165,-1,124,165,122,-1,166,52,167,-1,167,52,54,-1,167,54,168,-1,168,54,120,-1,168,120,169,-1,169,120,122,-1,169,122,165,-1,52,166,170,-1,52,170,50,-1,50,170,171,-1,50,171,6,-1,6,171,172,-1,6,172,57,-1,57,172,173,-1,57,173,16,-1,16,173,174,-1,16,174,5,-1,5,174,175,-1,5,175,129,-1,129,175,176,-1,129,176,130,-1,130,176,177,-1,130,177,132,-1,135,134,178,-1,178,134,132,-1,178,132,177,-1,178,179,135,-1,135,179,180,-1,135,180,94,-1,94,180,181,-1,181,182,94,-1,94,182,183,-1,94,183,96,-1,96,183,184,-1,96,184,98,-1,98,184,185,-1,98,185,100,-1,100,185,186,-1,100,186,102,-1,102,186,187,-1,102,187,103,-1,103,187,188,-1,103,188,14,-1,14,188,189,-1,14,189,15,-1,15,189,190,-1,15,190,0,-1,190,191,0,-1,0,191,192,-1,0,192,1,-1,1,192,193,-1,1,193,40,-1,40,193,194,-1,40,194,119,-1,194,195,119,-1,119,195,196,-1,119,196,118,-1,118,196,197,-1,118,197,116,-1,198,9,19,-1,116,197,199,-1,116,199,114,-1,114,199,200,-1,114,200,112,-1,200,201,112,-1,112,201,202,-1,112,202,110,-1,110,202,203,-1,110,203,108,-1,108,203,204,-1,108,204,106,-1,106,204,205,-1,106,205,19,-1,19,205,206,-1,19,206,198,-1,10,9,207,-1,207,9,198,-1,20,10,208,-1,208,10,207,-1,21,20,209,-1,209,20,208,-1,22,21,210,-1,210,21,209,-1,22,210,211,-1,22,211,60,-1,60,211,212,-1,60,212,34,-1,34,212,213,-1,34,213,35,-1,35,213,214,-1,35,214,36,-1,36,214,215,-1,36,215,25,-1,25,215,216,-1,25,216,27,-1,27,216,217,-1,27,217,29,-1,29,217,218,-1,29,218,31,-1,31,218,219,-1,31,219,2,-1,2,219,220,-1,2,220,13,-1,13,220,221,-1,13,221,101,-1,101,221,222,-1,101,222,99,-1,99,222,223,-1,99,223,97,-1,97,223,224,-1,97,224,95,-1,224,225,95,-1,95,225,93,-1,225,226,93,-1,93,226,227,-1,93,227,133,-1,133,227,228,-1,133,228,131,-1,228,229,131,-1,131,229,230,-1,131,230,3,-1,3,230,231,-1,3,231,4,-1,4,231,232,-1,4,232,55,-1,55,232,233,-1,55,233,56,-1,56,233,234,-1,56,234,58,-1,58,234,235,-1,58,235,59,-1,59,235,236,-1,59,236,7,-1,7,236,237,-1,7,237,8,-1,8,237,238,-1,8,238,51,-1,51,238,239,-1,51,239,53,-1,53,239,240,-1,53,240,121,-1,121,240,241,-1,121,241,123,-1,242,42,243,-1,243,42,92,-1,243,92,244,-1,244,92,91,-1,244,91,245,-1,245,91,89,-1,245,89,246,-1,246,89,128,-1,246,128,247,-1,247,128,127,-1,247,127,248,-1,248,127,125,-1,248,125,249,-1,249,125,123,-1,249,123,241,-1,43,42,250,-1,250,42,242,-1,43,250,251,-1,43,251,45,-1,45,251,252,-1,45,252,47,-1,47,252,253,-1,47,253,75,-1,75,253,254,-1,75,254,76,-1,76,254,255,-1,76,255,78,-1,255,256,78,-1,78,256,257,-1,78,257,80,-1,80,257,258,-1,80,258,82,-1,82,258,259,-1,82,259,84,-1,84,259,260,-1,84,260,86,-1,86,260,261,-1,86,261,87,-1,87,261,262,-1,87,262,62,-1,62,262,263,-1,62,263,64,-1,64,263,264,-1,64,264,66,-1,66,264,265,-1,66,265,68,-1,70,68,266,-1,266,68,265,-1,70,266,267,-1,70,267,139,-1,139,267,268,-1,139,268,136,-1,136,268,269,-1,136,269,150,-1,150,269,270,-1,150,270,144,-1,144,270,271,-1,144,271,145,-1,145,271,272,-1,145,272,147,-1,147,272,273,-1,147,273,148,-1,148,273,274,-1,148,274,149,-1,149,274,275,-1,149,275,146,-1,146,275,276,-1,146,276,141,-1,141,276,277,-1,141,277,142,-1,142,277,278,-1,142,278,143,-1,143,278,279,-1,143,279,137,-1,137,279,280,-1,137,280,138,-1,138,280,281,-1,138,281,140,-1,140,281,282,-1,140,282,71,-1,71,282,283,-1,71,283,69,-1,67,69,284,-1,284,69,283,-1,67,284,285,-1,67,285,65,-1,65,285,286,-1,65,286,63,-1,63,286,287,-1,63,287,61,-1,61,287,288,-1,61,288,85,-1,85,288,289,-1,85,289,83,-1,83,289,155,-1,83,155,81,-1,23,290,291,-1,23,291,12,-1,12,291,292,-1,12,292,11,-1,11,292,293,-1,11,293,37,-1,37,293,294,-1,37,294,17,-1,17,294,295,-1,17,295,18,-1,18,295,296,-1,18,296,104,-1,104,296,297,-1,104,297,105,-1,105,297,298,-1,105,298,107,-1,107,298,299,-1,107,299,109,-1,109,299,300,-1,109,300,111,-1,111,300,301,-1,111,301,113,-1,113,301,302,-1,113,302,115,-1,115,302,303,-1,115,303,117,-1,117,303,304,-1,117,304,41,-1,41,304,305,-1,41,305,39,-1,39,305,306,-1,39,306,38,-1,38,306,307,-1,38,307,72,-1,72,307,308,-1,72,308,73,-1,73,308,309,-1,73,309,74,-1,74,309,310,-1,74,310,33,-1,33,310,311,-1,33,311,32,-1,32,311,312,-1,32,312,30,-1,30,312,313,-1,30,313,28,-1,28,313,314,-1,28,314,26,-1,26,314,315,-1,26,315,24,-1,24,315,290,-1,24,290,23,-1,
        ]
    }
}
Shape{
    appearance Appearance {
        material  Material 	{
            diffuseColor 0.34901960784313724 0.34901960784313724 0.34901960784313724
            specularColor 0.023529411764705882 0.023529411764705882 0.023529411764705882
            ambientIntensity 0.498
            transparency 0.0
            shininess 0.5
        }
    }
    geometry IndexedFaceSet {
        ccw TRUE
        solid FALSE
        coord DEF co Coordinate {
            point [
                0.1519 -0.628 0.4728, 0.1446 -0.6087 0.4728, 0.1431 -0.6103 0.4728, 0.1519 -0.6059 0.4728, 0.1539 -0.6061 0.4728, 0.1546 -0.6276 0.4728, 0.1493 -0.6063 0.4728, 0.1468 -0.6072 0.4728, 0.1592 -0.6252 0.4728, 0.1607 -0.6104 0.4728, 0.1588 -0.6084 0.4728, 0.1416 -0.6208 0.4728, 0.1428 -0.6231 0.4728, 0.1446 -0.6252 0.4728, 0.157 -0.6267 0.4728, 0.1565 -0.6069 0.4728, 0.1468 -0.6267 0.4728, 0.1494 -0.6277 0.4728, 0.1417 -0.6127 0.4728, 0.141 -0.6154 0.4728, 0.141 -0.6182 0.4728, 0.1623 -0.6207 0.4728, 0.1629 -0.618 0.4728, 0.161 -0.6231 0.4728, 0.1628 -0.6152 0.4728, 0.162 -0.6126 0.4728
            ]
        }
        coordIndex [
            0,1,2,-1,3,0,4,-1,4,0,5,-1,3,6,0,-1,0,6,7,-1,0,7,1,-1,8,9,10,-1,11,12,2,-1,2,12,13,-1,5,14,4,-1,4,14,8,-1,4,8,15,-1,15,8,10,-1,13,16,2,-1,2,16,17,-1,2,17,0,-1,18,19,2,-1,2,19,20,-1,2,20,11,-1,21,22,23,-1,23,22,24,-1,23,24,8,-1,8,24,25,-1,8,25,9,-1,
        ]
    }
}
Shape{
    appearance Appearance {
        material  Material 	{
            diffuseColor 1.0 1.0 1.0
            specularColor 0.5019607843137255 0.5019607843137255 0.5019607843137255
            ambientIntensity 1.0
            transparency 0.0
            shininess 0.5
        }
    }
    geometry IndexedFaceSet {
        ccw TRUE
        solid FALSE
        coord DEF co Coordinate {
            point [
                0.4191 -0.5575 0.4768, 0.415 -0.5549 0.4768, 0.4149 -0.5605 0.4768, 0.4124 -0.5567 0.4768, 0.4104 -0.5623 0.4768, 0.4091 -0.5579 0.4768, 0.4037 -0.5631 0.4768, 0.4036 -0.5586 0.4768, 0.3927 -0.5631 0.4768, 0.3979 -0.5586 0.4768, 0.3927 -0.5234 0.4768, 0.3979 -0.528 0.4768, 0.4041 -0.5234 0.4768, 0.4039 -0.528 0.4768, 0.4043 -0.528 0.4768, 0.4101 -0.5241 0.4768, 0.4094 -0.5286 0.4768, 0.4149 -0.5258 0.4768, 0.4128 -0.53 0.4768, 0.4191 -0.5287 0.4768, 0.4153 -0.5317 0.4768, 0.4205 -0.53 0.4768, 0.4164 -0.5328 0.4768, 0.4229 -0.5335 0.4768, 0.418 -0.535 0.4768, 0.4244 -0.5373 0.4768, 0.4191 -0.5379 0.4768, 0.4251 -0.5427 0.4768, 0.4197 -0.5429 0.4768, 0.4249 -0.5453 0.4768, 0.4195 -0.5457 0.4768, 0.424 -0.5499 0.4768, 0.4187 -0.5493 0.4768, 0.422 -0.554 0.4768, 0.4173 -0.5522 0.4768, 0.4154 -0.5544 0.4768, 0.4191 -0.5575 0.4728, 0.422 -0.554 0.4728, 0.424 -0.5499 0.4728, 0.4249 -0.5453 0.4728, 0.4251 -0.5427 0.4728, 0.4244 -0.5373 0.4728, 0.4229 -0.5335 0.4728, 0.4205 -0.53 0.4728, 0.4191 -0.5287 0.4728, 0.4149 -0.5258 0.4728, 0.4101 -0.5241 0.4728, 0.4041 -0.5234 0.4728, 0.3927 -0.5234 0.4728, 0.3927 -0.5631 0.4728, 0.4037 -0.5631 0.4728, 0.4104 -0.5623 0.4728, 0.4149 -0.5605 0.4728, 0.4153 -0.5317 0.4728, 0.4164 -0.5328 0.4728, 0.418 -0.535 0.4728, 0.4191 -0.5379 0.4728, 0.4197 -0.5429 0.4728, 0.4039 -0.528 0.4728, 0.4043 -0.528 0.4728, 0.4094 -0.5286 0.4728, 0.4128 -0.53 0.4728, 0.3979 -0.528 0.4728, 0.3979 -0.5586 0.4728, 0.4036 -0.5586 0.4728, 0.4154 -0.5544 0.4728, 0.415 -0.5549 0.4728, 0.4124 -0.5567 0.4728, 0.4091 -0.5579 0.4728, 0.4195 -0.5457 0.4728, 0.4187 -0.5493 0.4728, 0.4173 -0.5522 0.4728
            ]
        }
        coordIndex [
            0,1,2,-1,2,1,3,-1,2,3,4,-1,4,3,5,-1,4,5,6,-1,6,5,7,-1,6,7,8,-1,8,7,9,-1,8,9,10,-1,10,9,11,-1,10,11,12,-1,11,13,12,-1,12,13,14,-1,12,14,15,-1,15,14,16,-1,15,16,17,-1,17,16,18,-1,17,18,19,-1,19,18,20,-1,19,20,21,-1,21,20,22,-1,21,22,23,-1,23,22,24,-1,23,24,25,-1,25,24,26,-1,25,26,27,-1,27,26,28,-1,27,28,29,-1,29,28,30,-1,29,30,31,-1,31,30,32,-1,31,32,33,-1,33,32,34,-1,33,34,0,-1,0,34,35,-1,0,35,1,-1,0,36,37,-1,0,37,33,-1,33,37,38,-1,33,38,31,-1,31,38,39,-1,31,39,29,-1,29,39,40,-1,29,40,27,-1,27,40,41,-1,27,41,25,-1,25,41,42,-1,25,42,23,-1,23,42,43,-1,23,43,21,-1,21,43,44,-1,21,44,19,-1,19,44,45,-1,19,45,17,-1,17,45,46,-1,17,46,15,-1,15,46,47,-1,15,47,12,-1,10,12,48,-1,48,12,47,-1,8,10,49,-1,49,10,48,-1,6,8,50,-1,50,8,49,-1,6,50,51,-1,6,51,4,-1,4,51,52,-1,4,52,2,-1,2,52,36,-1,2,36,0,-1,20,53,54,-1,20,54,22,-1,22,54,55,-1,22,55,24,-1,24,55,56,-1,24,56,26,-1,26,56,57,-1,26,57,28,-1,13,58,59,-1,13,59,14,-1,14,59,60,-1,14,60,16,-1,16,60,61,-1,16,61,18,-1,18,61,53,-1,18,53,20,-1,13,11,58,-1,58,11,62,-1,11,9,62,-1,62,9,63,-1,9,7,63,-1,63,7,64,-1,35,65,66,-1,35,66,1,-1,1,66,67,-1,1,67,3,-1,3,67,68,-1,3,68,5,-1,5,68,64,-1,5,64,7,-1,28,57,69,-1,28,69,30,-1,30,69,70,-1,30,70,32,-1,32,70,71,-1,32,71,34,-1,34,71,65,-1,34,65,35,-1,
        ]
    }
}
Shape{
    appearance Appearance {
        material  Material 	{
            diffuseColor 0.34901960784313724 0.34901960784313724 0.34901960784313724
            specularColor 0.023529411764705882 0.023529411764705882 0.023529411764705882
            ambientIntensity 0.498
            transparency 0.0
            shininess 0.5
        }
    }
    geometry IndexedFaceSet {
        ccw TRUE
        solid FALSE
        coord DEF co Coordinate {
            point [
                0.4124 -0.5567 0.4728, 0.415 -0.5549 0.4728, 0.4043 -0.528 0.4728, 0.3979 -0.528 0.4728, 0.3979 -0.5586 0.4728, 0.4039 -0.528 0.4728, 0.4036 -0.5586 0.4728, 0.4091 -0.5579 0.4728, 0.4154 -0.5544 0.4728, 0.4173 -0.5522 0.4728, 0.4187 -0.5493 0.4728, 0.4197 -0.5429 0.4728, 0.4153 -0.5317 0.4728, 0.4128 -0.53 0.4728, 0.4191 -0.5379 0.4728, 0.418 -0.535 0.4728, 0.4164 -0.5328 0.4728, 0.4195 -0.5457 0.4728, 0.4094 -0.5286 0.4728
            ]
        }
        coordIndex [
            0,1,2,-1,3,4,5,-1,5,4,6,-1,5,6,2,-1,2,6,7,-1,2,7,0,-1,1,8,2,-1,2,8,9,-1,2,9,10,-1,11,12,13,-1,14,15,11,-1,11,15,16,-1,11,16,12,-1,10,17,2,-1,2,17,11,-1,2,11,18,-1,18,11,13,-1,
        ]
    }
}
Shape{
    appearance Appearance {
        material  Material 	{
            diffuseColor 1.0 1.0 1.0
            specularColor 0.5019607843137255 0.5019607843137255 0.5019607843137255
            ambientIntensity 1.0
            transparency 0.0
            shininess 0.5
        }
    }
    geometry IndexedFaceSet {
        ccw TRUE
        solid FALSE
        coord DEF co Coordinate {
            point [
                0.3457 -0.5592 0.4768, 0.3457 -0.5592 0.4728, 0.3422 -0.5589 0.4728, 0.3422 -0.5589 0.4768, 0.3393 -0.5579 0.4728, 0.3393 -0.5579 0.4768, 0.3366 -0.5561 0.4728, 0.3366 -0.5561 0.4768, 0.3355 -0.555 0.4728, 0.3355 -0.555 0.4768, 0.3337 -0.5526 0.4728, 0.3337 -0.5526 0.4768, 0.3323 -0.5495 0.4728, 0.3323 -0.5495 0.4768, 0.3316 -0.5456 0.4728, 0.3316 -0.5456 0.4768, 0.3316 -0.5437 0.4728, 0.3316 -0.5437 0.4768, 0.3322 -0.5382 0.4728, 0.3322 -0.5382 0.4768, 0.3335 -0.5348 0.4728, 0.3335 -0.5348 0.4768, 0.3355 -0.5321 0.4728, 0.3355 -0.5321 0.4768, 0.3357 -0.5318 0.4728, 0.3357 -0.5318 0.4768, 0.3381 -0.5297 0.4728, 0.3381 -0.5297 0.4768, 0.3412 -0.5282 0.4728, 0.3412 -0.5282 0.4768, 0.3446 -0.5275 0.4728, 0.3446 -0.5275 0.4768, 0.3466 -0.5274 0.4728, 0.3466 -0.5274 0.4768, 0.3559 -0.5297 0.4728, 0.3559 -0.5297 0.4768, 0.3555 -0.5295 0.4768, 0.3514 -0.5279 0.4728, 0.3514 -0.5279 0.4768, 0.3542 -0.529 0.4728, 0.3555 -0.5295 0.4728, 0.3559 -0.5243 0.4768, 0.3559 -0.5243 0.4728, 0.3542 -0.5239 0.4728, 0.3517 -0.5231 0.4768, 0.3465 -0.5227 0.4728, 0.3465 -0.5227 0.4768, 0.3508 -0.5231 0.4728, 0.3517 -0.5231 0.4728, 0.3437 -0.5231 0.4728, 0.3408 -0.5234 0.4768, 0.3408 -0.5234 0.4728, 0.3366 -0.525 0.4728, 0.3366 -0.525 0.4768, 0.3329 -0.5276 0.4728, 0.3329 -0.5276 0.4768, 0.3319 -0.5286 0.4728, 0.3319 -0.5286 0.4768, 0.329 -0.5323 0.4728, 0.329 -0.5323 0.4768, 0.328 -0.5349 0.4728, 0.3271 -0.5367 0.4768, 0.3271 -0.5367 0.4728, 0.3262 -0.5419 0.4728, 0.3262 -0.5419 0.4768, 0.3262 -0.544 0.4728, 0.3262 -0.544 0.4768, 0.327 -0.5505 0.4728, 0.327 -0.5505 0.4768, 0.328 -0.553 0.4728, 0.3286 -0.5546 0.4768, 0.3286 -0.5546 0.4728, 0.3309 -0.558 0.4728, 0.3309 -0.558 0.4768, 0.3313 -0.5584 0.4728, 0.3313 -0.5584 0.4768, 0.3449 -0.5638 0.4728, 0.3449 -0.5638 0.4768, 0.3425 -0.5637 0.4768, 0.3345 -0.561 0.4728, 0.3345 -0.561 0.4768, 0.3382 -0.5628 0.4728, 0.3382 -0.5628 0.4768, 0.3414 -0.5634 0.4728, 0.3425 -0.5637 0.4728, 0.3559 -0.5615 0.4728, 0.3559 -0.5615 0.4768, 0.3552 -0.5618 0.4768, 0.351 -0.5632 0.4768, 0.3484 -0.5634 0.4728, 0.351 -0.5632 0.4728, 0.3542 -0.5621 0.4728, 0.3552 -0.5618 0.4728, 0.3559 -0.5566 0.4768, 0.3559 -0.5566 0.4728, 0.3542 -0.5573 0.4728, 0.352 -0.5583 0.4768, 0.352 -0.5583 0.4728, 0.3475 -0.5591 0.4728, 0.3475 -0.5591 0.4768, 0.4881 -0.6108 0.4768, 0.4865 -0.6153 0.4768, 0.5015 -0.6108 0.4768, 0.503 -0.6153 0.4768, 0.4941 -0.5943 0.4768, 0.4921 -0.5864 0.4768, 0.477 -0.6261 0.4768, 0.4827 -0.6261 0.4768, 0.4944 -0.5931 0.4768, 0.4947 -0.5915 0.4768, 0.4976 -0.5864 0.4768, 0.4948 -0.5915 0.4768, 0.4952 -0.5932 0.4768, 0.4955 -0.5943 0.4768, 0.5128 -0.6261 0.4768, 0.5071 -0.6261 0.4768, 0.4921 -0.5864 0.4728, 0.4976 -0.5864 0.4728, 0.477 -0.6261 0.4728, 0.4827 -0.6261 0.4728, 0.4865 -0.6153 0.4728, 0.503 -0.6153 0.4728, 0.5071 -0.6261 0.4728, 0.5128 -0.6261 0.4728, 0.4941 -0.5943 0.4728, 0.4944 -0.5931 0.4728, 0.4947 -0.5915 0.4728, 0.4881 -0.6108 0.4728, 0.5015 -0.6108 0.4728, 0.4955 -0.5943 0.4728, 0.4948 -0.5915 0.4728, 0.4952 -0.5932 0.4728
            ]
        }
        coordIndex [
            0,1,2,-1,0,2,3,-1,3,2,4,-1,3,4,5,-1,5,4,6,-1,5,6,7,-1,7,6,8,-1,7,8,9,-1,9,8,10,-1,9,10,11,-1,11,10,12,-1,11,12,13,-1,13,12,14,-1,13,14,15,-1,15,14,16,-1,15,16,17,-1,17,16,18,-1,17,18,19,-1,19,18,20,-1,19,20,21,-1,21,20,22,-1,21,22,23,-1,23,22,24,-1,23,24,25,-1,25,24,26,-1,25,26,27,-1,27,26,28,-1,27,28,29,-1,29,28,30,-1,29,30,31,-1,31,30,32,-1,31,32,33,-1,34,35,36,-1,33,32,37,-1,33,37,38,-1,38,37,39,-1,38,39,36,-1,36,39,40,-1,36,40,34,-1,41,35,42,-1,42,35,34,-1,41,42,43,-1,41,43,44,-1,45,46,47,-1,47,46,44,-1,47,44,48,-1,48,44,43,-1,46,45,49,-1,46,49,50,-1,49,51,50,-1,50,51,52,-1,50,52,53,-1,53,52,54,-1,53,54,55,-1,55,54,56,-1,55,56,57,-1,57,56,58,-1,57,58,59,-1,59,58,60,-1,59,60,61,-1,60,62,61,-1,61,62,63,-1,61,63,64,-1,64,63,65,-1,64,65,66,-1,66,65,67,-1,66,67,68,-1,68,67,69,-1,68,69,70,-1,69,71,70,-1,70,71,72,-1,70,72,73,-1,73,72,74,-1,73,74,75,-1,76,77,78,-1,75,74,79,-1,75,79,80,-1,80,79,81,-1,80,81,82,-1,82,81,83,-1,82,83,78,-1,78,83,84,-1,78,84,76,-1,85,86,87,-1,77,76,88,-1,88,76,89,-1,89,90,88,-1,88,90,91,-1,88,91,87,-1,87,91,92,-1,87,92,85,-1,93,86,94,-1,94,86,85,-1,93,94,95,-1,93,95,96,-1,95,97,96,-1,96,97,98,-1,96,98,99,-1,99,98,1,-1,99,1,0,-1,27,29,50,-1,19,21,59,-1,59,21,57,-1,50,29,46,-1,66,17,64,-1,64,17,19,-1,64,19,61,-1,61,19,59,-1,29,31,46,-1,46,31,33,-1,46,33,44,-1,44,33,38,-1,44,38,41,-1,41,38,36,-1,41,36,35,-1,86,93,87,-1,87,93,96,-1,87,96,88,-1,88,96,99,-1,88,99,77,-1,77,99,0,-1,77,0,78,-1,78,0,3,-1,78,3,82,-1,82,3,5,-1,82,5,80,-1,80,5,7,-1,80,7,75,-1,75,7,9,-1,75,9,73,-1,73,9,11,-1,73,11,70,-1,70,11,68,-1,68,11,13,-1,68,13,66,-1,66,13,15,-1,66,15,17,-1,21,23,57,-1,57,23,25,-1,57,25,55,-1,55,25,27,-1,55,27,53,-1,53,27,50,-1,100,101,102,-1,102,101,103,-1,104,105,100,-1,100,105,106,-1,100,106,101,-1,101,106,107,-1,104,108,105,-1,105,108,109,-1,105,109,110,-1,110,109,111,-1,110,111,112,-1,112,113,110,-1,110,113,102,-1,110,102,114,-1,114,102,103,-1,114,103,115,-1,105,110,116,-1,116,110,117,-1,106,105,118,-1,118,105,116,-1,107,106,119,-1,119,106,118,-1,101,107,120,-1,120,107,119,-1,103,101,121,-1,121,101,120,-1,115,103,122,-1,122,103,121,-1,114,115,123,-1,123,115,122,-1,110,114,117,-1,117,114,123,-1,104,124,125,-1,104,125,108,-1,108,125,126,-1,108,126,109,-1,104,100,124,-1,124,100,127,-1,100,102,127,-1,127,102,128,-1,102,113,128,-1,128,113,129,-1,111,130,131,-1,111,131,112,-1,112,131,129,-1,112,129,113,-1,111,109,130,-1,130,109,126,-1,
        ]
    }
}
Shape{
    appearance Appearance {
        material  Material 	{
            diffuseColor 0.34901960784313724 0.34901960784313724 0.34901960784313724
            specularColor 0.023529411764705882 0.023529411764705882 0.023529411764705882
            ambientIntensity 0.498
            transparency 0.0
            shininess 0.5
        }
    }
    geometry IndexedFaceSet {
        ccw TRUE
        solid FALSE
        coord DEF co Coordinate {
            point [
                0.4948 -0.5915 0.4728, 0.4947 -0.5915 0.4728, 0.4952 -0.5932 0.4728, 0.4944 -0.5931 0.4728, 0.4955 -0.5943 0.4728, 0.4941 -0.5943 0.4728, 0.5015 -0.6108 0.4728, 0.4881 -0.6108 0.4728
            ]
        }
        coordIndex [
            0,1,2,-1,2,1,3,-1,2,3,4,-1,4,3,5,-1,4,5,6,-1,6,5,7,-1,
        ]
    }
}
Shape{
    appearance Appearance {
        material  Material 	{
            diffuseColor 1.0 1.0 1.0
            specularColor 0.5019607843137255 0.5019607843137255 0.5019607843137255
            ambientIntensity 1.0
            transparency 0.0
            shininess 0.5
        }
    }
    geometry IndexedFaceSet {
        ccw TRUE
        solid FALSE
        coord DEF co Coordinate {
            point [
                0.435 -0.6216 0.4768, 0.435 -0.6216 0.4728, 0.4187 -0.6216 0.4768, 0.4262 -0.6216 0.4728, 0.4187 -0.6216 0.4728, 0.4187 -0.6082 0.4768, 0.4187 -0.6082 0.4728, 0.4329 -0.6082 0.4768, 0.4262 -0.6082 0.4728, 0.4329 -0.6082 0.4728, 0.4329 -0.6037 0.4768, 0.4329 -0.6037 0.4728, 0.4187 -0.6037 0.4728, 0.4187 -0.6037 0.4768, 0.4262 -0.6037 0.4728, 0.4187 -0.591 0.4768, 0.4187 -0.591 0.4728, 0.4341 -0.591 0.4728, 0.4341 -0.591 0.4768, 0.4262 -0.591 0.4728, 0.4341 -0.5864 0.4768, 0.4341 -0.5864 0.4728, 0.4136 -0.5864 0.4728, 0.4136 -0.5864 0.4768, 0.4262 -0.5864 0.4728, 0.4136 -0.6261 0.4768, 0.4136 -0.6261 0.4728, 0.435 -0.6261 0.4768, 0.4262 -0.6261 0.4728, 0.435 -0.6261 0.4728, 0.3087 -0.6216 0.4768, 0.325 -0.6216 0.4768, 0.3087 -0.6216 0.4728, 0.325 -0.6216 0.4728, 0.3087 -0.6082 0.4768, 0.3087 -0.6082 0.4728, 0.3229 -0.6082 0.4768, 0.3229 -0.6082 0.4728, 0.3229 -0.6037 0.4768, 0.3229 -0.6037 0.4728, 0.3087 -0.6037 0.4768, 0.3087 -0.6037 0.4728, 0.3087 -0.591 0.4768, 0.3087 -0.591 0.4728, 0.3241 -0.591 0.4768, 0.3241 -0.591 0.4728, 0.3241 -0.5864 0.4768, 0.3241 -0.5864 0.4728, 0.3036 -0.5864 0.4768, 0.3036 -0.5864 0.4728, 0.3036 -0.6261 0.4768, 0.3036 -0.6261 0.4728, 0.325 -0.6261 0.4768, 0.325 -0.6261 0.4728, 0.4384 -0.5478 0.4768, 0.4368 -0.5522 0.4768, 0.4517 -0.5478 0.4768, 0.4533 -0.5522 0.4768, 0.4443 -0.5313 0.4768, 0.4424 -0.5234 0.4768, 0.4273 -0.5631 0.4768, 0.4329 -0.5631 0.4768, 0.4447 -0.5301 0.4768, 0.445 -0.5285 0.4768, 0.4479 -0.5234 0.4768, 0.4451 -0.5285 0.4768, 0.4454 -0.5302 0.4768, 0.4457 -0.5313 0.4768, 0.463 -0.5631 0.4768, 0.4573 -0.5631 0.4768, 0.4424 -0.5234 0.4728, 0.4479 -0.5234 0.4728, 0.4273 -0.5631 0.4728, 0.4387 -0.5331 0.4728, 0.4329 -0.5631 0.4728, 0.4368 -0.5522 0.4728, 0.4533 -0.5522 0.4728, 0.4387 -0.5522 0.4728, 0.4573 -0.5631 0.4728, 0.463 -0.5631 0.4728, 0.4443 -0.5313 0.4728, 0.4447 -0.5301 0.4728, 0.445 -0.5285 0.4728, 0.4384 -0.5478 0.4728, 0.4517 -0.5478 0.4728, 0.4457 -0.5313 0.4728, 0.4451 -0.5285 0.4728, 0.4454 -0.5302 0.4728
            ]
        }
        coordIndex [
            0,1,2,-1,2,1,3,-1,2,3,4,-1,5,2,6,-1,6,2,4,-1,5,6,7,-1,7,6,8,-1,7,8,9,-1,10,7,11,-1,11,7,9,-1,12,13,14,-1,14,13,10,-1,14,10,11,-1,15,13,16,-1,16,13,12,-1,17,18,19,-1,19,18,15,-1,19,15,16,-1,20,18,21,-1,21,18,17,-1,22,23,24,-1,24,23,20,-1,24,20,21,-1,25,23,26,-1,26,23,22,-1,25,26,27,-1,27,26,28,-1,27,28,29,-1,0,27,1,-1,1,27,29,-1,25,27,0,-1,0,2,25,-1,25,2,5,-1,25,5,23,-1,18,20,15,-1,15,20,23,-1,15,23,13,-1,13,23,5,-1,13,5,10,-1,10,5,7,-1,30,31,32,-1,32,31,33,-1,34,30,35,-1,35,30,32,-1,36,34,37,-1,37,34,35,-1,38,36,39,-1,39,36,37,-1,40,38,41,-1,41,38,39,-1,42,40,43,-1,43,40,41,-1,44,42,45,-1,45,42,43,-1,46,44,47,-1,47,44,45,-1,48,46,49,-1,49,46,47,-1,50,48,51,-1,51,48,49,-1,52,50,53,-1,53,50,51,-1,31,52,33,-1,33,52,53,-1,50,52,31,-1,31,30,50,-1,50,30,34,-1,50,34,48,-1,44,46,42,-1,42,46,48,-1,42,48,40,-1,40,48,34,-1,40,34,38,-1,38,34,36,-1,54,55,56,-1,56,55,57,-1,58,59,54,-1,54,59,60,-1,54,60,55,-1,55,60,61,-1,58,62,59,-1,59,62,63,-1,59,63,64,-1,64,63,65,-1,64,65,66,-1,66,67,64,-1,64,67,56,-1,64,56,68,-1,68,56,57,-1,68,57,69,-1,59,64,70,-1,70,64,71,-1,72,60,73,-1,73,60,59,-1,73,59,70,-1,61,60,74,-1,74,60,72,-1,55,61,75,-1,75,61,74,-1,76,57,77,-1,77,57,55,-1,77,55,75,-1,69,57,78,-1,78,57,76,-1,68,69,79,-1,79,69,78,-1,64,68,71,-1,71,68,79,-1,58,80,81,-1,58,81,62,-1,62,81,82,-1,62,82,63,-1,58,54,80,-1,80,54,83,-1,54,56,83,-1,83,56,84,-1,56,67,84,-1,84,67,85,-1,65,86,87,-1,65,87,66,-1,66,87,85,-1,66,85,67,-1,65,63,86,-1,86,63,82,-1,
        ]
    }
}
Shape{
    appearance Appearance {
        material  Material 	{
            diffuseColor 0.34901960784313724 0.34901960784313724 0.34901960784313724
            specularColor 0.023529411764705882 0.023529411764705882 0.023529411764705882
            ambientIntensity 0.498
            transparency 0.0
            shininess 0.5
        }
    }
    geometry IndexedFaceSet {
        ccw TRUE
        solid FALSE
        coord DEF co Coordinate {
            point [
                0.4451 -0.5285 0.4728, 0.445 -0.5285 0.4728, 0.4454 -0.5302 0.4728, 0.4447 -0.5301 0.4728, 0.4457 -0.5313 0.4728, 0.4443 -0.5313 0.4728, 0.4517 -0.5478 0.4728, 0.4384 -0.5478 0.4728
            ]
        }
        coordIndex [
            0,1,2,-1,2,1,3,-1,2,3,4,-1,4,3,5,-1,4,5,6,-1,6,5,7,-1,
        ]
    }
}
Shape{
    appearance Appearance {
        material  Material 	{
            diffuseColor 1.0 1.0 1.0
            specularColor 0.5019607843137255 0.5019607843137255 0.5019607843137255
            ambientIntensity 1.0
            transparency 0.0
            shininess 0.5
        }
    }
    geometry IndexedFaceSet {
        ccw TRUE
        solid FALSE
        coord DEF co Coordinate {
            point [
                0.369 -0.5586 0.4728, 0.369 -0.5586 0.4768, 0.3797 -0.5586 0.4728, 0.3852 -0.5586 0.4768, 0.3852 -0.5586 0.4728, 0.369 -0.5452 0.4768, 0.369 -0.5452 0.4728, 0.3832 -0.5452 0.4768, 0.3797 -0.5452 0.4728, 0.3832 -0.5452 0.4728, 0.3832 -0.5407 0.4768, 0.3832 -0.5407 0.4728, 0.369 -0.5407 0.4728, 0.369 -0.5407 0.4768, 0.3797 -0.5407 0.4728, 0.369 -0.528 0.4768, 0.369 -0.528 0.4728, 0.3843 -0.528 0.4768, 0.3797 -0.528 0.4728, 0.3843 -0.528 0.4728, 0.3843 -0.5234 0.4768, 0.3843 -0.5234 0.4728, 0.3639 -0.5234 0.4728, 0.3639 -0.5234 0.4768, 0.3797 -0.5234 0.4728, 0.3639 -0.5631 0.4768, 0.3639 -0.5631 0.4728, 0.3852 -0.5631 0.4768, 0.3797 -0.5631 0.4728, 0.3852 -0.5631 0.4728, 0.3087 -0.5586 0.4768, 0.3246 -0.5586 0.4768, 0.3087 -0.5586 0.4728, 0.3246 -0.5586 0.4728, 0.3087 -0.5234 0.4768, 0.3087 -0.5234 0.4728, 0.3036 -0.5234 0.4768, 0.3036 -0.5234 0.4728, 0.3036 -0.5631 0.4768, 0.3036 -0.5631 0.4728, 0.3246 -0.5631 0.4768, 0.3246 -0.5631 0.4728
            ]
        }
        coordIndex [
            0,1,2,-1,2,1,3,-1,2,3,4,-1,5,1,6,-1,6,1,0,-1,5,6,7,-1,7,6,8,-1,7,8,9,-1,10,7,11,-1,11,7,9,-1,12,13,14,-1,14,13,10,-1,14,10,11,-1,15,13,16,-1,16,13,12,-1,15,16,17,-1,17,16,18,-1,17,18,19,-1,20,17,21,-1,21,17,19,-1,22,23,24,-1,24,23,20,-1,24,20,21,-1,25,23,26,-1,26,23,22,-1,25,26,27,-1,27,26,28,-1,27,28,29,-1,3,27,4,-1,4,27,29,-1,25,27,3,-1,3,1,25,-1,25,1,5,-1,25,5,23,-1,17,20,15,-1,15,20,23,-1,15,23,13,-1,13,23,5,-1,13,5,10,-1,10,5,7,-1,30,31,32,-1,32,31,33,-1,34,30,35,-1,35,30,32,-1,36,34,37,-1,37,34,35,-1,38,36,39,-1,39,36,37,-1,40,38,41,-1,41,38,39,-1,31,40,33,-1,33,40,41,-1,34,36,30,-1,30,36,38,-1,30,38,31,-1,31,38,40,-1,
        ]
    }
}