#VRML V2.0 utf8
# 3D model generated by easyeda2kicad.py (https://github.com/uPesy/easyeda2kicad.py)

Shape{
    appearance Appearance {
        material  Material 	{
            diffuseColor 0.8313725490196079 0.8313725490196079 0.8196078431372549
            specularColor 0.6666666666666666 0.6666666666666666 0.6549019607843137
            ambientIntensity 0.83
            transparency 0.0
            shininess 0.5
        }
    }
    geometry IndexedFaceSet {
        ccw TRUE
        solid FALSE
        coord DEF co Coordinate {
            point [
                -0.315 0.3149 0.0, -0.315 0.3149 0.0787, 0.3149 0.3149 0.0, 0.3149 0.3149 0.0787, -0.315 0.1968 0.0, -0.315 0.1968 0.0787, -0.2997 0.1948 0.0787, -0.2997 0.1948 0.0, -0.2855 0.1889 0.0787, -0.2855 0.1889 0.0, -0.2732 0.1795 0.0787, -0.2732 0.1795 0.0, -0.2638 0.1673 0.0787, -0.2638 0.1673 0.0, -0.2579 0.1531 0.0787, -0.2579 0.1531 0.0, -0.2559 0.1378 0.0787, -0.2559 0.1378 0.0, -0.2579 0.1225 0.0787, -0.2579 0.1225 0.0, -0.2638 0.1082 0.0787, -0.2638 0.1082 0.0, -0.2732 0.096 0.0787, -0.2732 0.096 0.0, -0.2855 0.0866 0.0787, -0.2855 0.0866 0.0, -0.2997 0.0807 0.0787, -0.2997 0.0807 0.0, -0.315 0.0787 0.0787, -0.315 0.0787 0.0, -0.315 -0.315 0.0, -0.315 -0.315 0.0787, 0.3149 -0.315 0.0, 0.3149 -0.315 0.0787
            ]
        }
        coordIndex [
            0,1,2,-1,2,1,3,-1,4,5,0,-1,0,5,1,-1,5,4,6,-1,6,4,7,-1,6,7,8,-1,8,7,9,-1,8,9,10,-1,10,9,11,-1,10,11,12,-1,12,11,13,-1,12,13,14,-1,14,13,15,-1,14,15,16,-1,16,15,17,-1,16,17,18,-1,18,17,19,-1,18,19,20,-1,20,19,21,-1,20,21,22,-1,22,21,23,-1,22,23,24,-1,24,23,25,-1,24,25,26,-1,26,25,27,-1,26,27,28,-1,28,27,29,-1,30,31,29,-1,29,31,28,-1,32,33,30,-1,30,33,31,-1,2,3,32,-1,32,3,33,-1,20,22,33,-1,33,22,24,-1,33,24,31,-1,31,24,26,-1,31,26,28,-1,12,14,3,-1,3,14,16,-1,3,16,33,-1,33,16,18,-1,33,18,20,-1,5,6,1,-1,1,6,8,-1,1,8,3,-1,3,8,10,-1,3,10,12,-1,7,4,0,-1,30,29,27,-1,30,27,32,-1,32,27,25,-1,32,25,23,-1,23,21,32,-1,32,21,19,-1,32,19,2,-1,2,19,17,-1,2,17,15,-1,15,13,2,-1,2,13,11,-1,2,11,0,-1,0,11,9,-1,0,9,7,-1,
        ]
    }
}
Shape{
    appearance Appearance {
        material  Material 	{
            diffuseColor 0.20784313725490197 0.20784313725490197 0.20784313725490197
            specularColor 0.01568627450980392 0.01568627450980392 0.01568627450980392
            ambientIntensity 0.298
            transparency 0.0
            shininess 0.5
        }
    }
    geometry IndexedFaceSet {
        ccw TRUE
        solid FALSE
        coord DEF co Coordinate {
            point [
                0.4679 0.4748 0.2953, 0.4685 0.4755 0.2953, 0.4685 0.4799 0.2953, 0.4563 0.48 0.2953, 0.456 0.4799 0.2953, 0.4623 0.4799 0.2953, -0.5602 0.5435 0.2953, -0.5557 0.5494 0.2953, -0.5906 0.5494 0.2953, 0.4361 0.5492 0.2953, 0.4381 0.5494 0.2953, 0.4275 0.5494 0.2953, 0.4429 0.5224 0.2953, 0.4412 0.5223 0.2953, 0.4501 0.5223 0.2953, 0.3771 0.5284 0.2953, 0.3822 0.524 0.2953, 0.4002 0.5494 0.2953, 0.4002 0.5223 0.2953, 0.3526 0.5517 0.2953, 0.356 0.5494 0.2953, 0.3602 0.5465 0.2953, 0.3667 0.539 0.2953, 0.3705 0.5315 0.2953, 0.3714 0.5312 0.2953, 0.3344 0.5564 0.2953, 0.3432 0.5553 0.2953, 0.4002 0.5905 0.2953, 0.3256 0.5553 0.2953, -0.1019 0.5905 0.2953, 0.3168 0.5521 0.2953, 0.3124 0.5494 0.2953, -0.1019 0.5494 0.2953, 0.3116 0.549 0.2953, 0.2709 0.5223 0.2953, 0.2725 0.526 0.2953, 0.2771 0.5319 0.2953, 0.2915 0.5401 0.2953, 0.2989 0.541 0.2953, 0.3072 0.5451 0.2953, 0.3011 0.5409 0.2953, 0.3033 0.5406 0.2953, 0.2784 0.5331 0.2953, 0.2844 0.5373 0.2953, -0.1019 0.5145 0.2953, 0.2687 0.5145 0.2953, -0.1019 0.5223 0.2953, 0.2695 0.5192 0.2953, 0.2889 0.4812 0.2953, 0.2821 0.4845 0.2953, -0.1019 0.4799 0.2953, 0.2762 0.4896 0.2953, 0.2718 0.4958 0.2953, 0.2691 0.5028 0.2953, 0.2682 0.5102 0.2953, 0.2682 0.5121 0.2953, 0.2913 0.4805 0.2953, 0.2916 0.4799 0.2953, 0.2932 0.4764 0.2953, 0.3086 0.4676 0.2953, 0.3042 0.4683 0.2953, -0.1019 -0.5906 0.2953, 0.2998 0.4701 0.2953, -0.1019 0.4719 0.2953, 0.2975 0.4719 0.2953, 0.2961 0.4729 0.2953, 0.3212 0.4719 0.2953, 0.3182 0.4697 0.2953, 0.4002 -0.5906 0.2953, 0.314 0.4681 0.2953, 0.3094 0.4676 0.2953, 0.3272 0.4799 0.2953, 0.3271 0.4799 0.2953, 0.4002 0.4719 0.2953, 0.3249 0.4756 0.2953, 0.322 0.4724 0.2953, 0.3884 0.5128 0.2953, 0.3893 0.5066 0.2953, 0.4002 0.5145 0.2953, 0.3514 0.4911 0.2953, 0.3527 0.4917 0.2953, 0.3549 0.5025 0.2953, 0.3822 0.4886 0.2953, 0.3771 0.4842 0.2953, 0.4002 0.4799 0.2953, 0.3236 0.4992 0.2953, 0.349 0.5125 0.2953, 0.3203 0.5023 0.2953, 0.3163 0.5044 0.2953, 0.3502 0.4903 0.2953, 0.386 0.4939 0.2953, 0.3774 0.5081 0.2953, 0.3765 0.5118 0.2953, 0.3751 0.5145 0.2953, 0.2806 0.5145 0.2953, 0.3884 0.4999 0.2953, 0.3542 0.4918 0.2953, 0.3543 0.4918 0.2953, 0.3549 0.4917 0.2953, 0.2817 0.5031 0.2953, 0.284 0.4992 0.2953, 0.2936 0.4972 0.2953, 0.2874 0.4957 0.2953, 0.2915 0.4932 0.2953, 0.3006 0.5035 0.2953, 0.2968 0.5008 0.2953, 0.2801 0.5106 0.2953, 0.2804 0.5077 0.2953, 0.3048 0.5051 0.2953, 0.3094 0.5057 0.2953, 0.3117 0.5056 0.2953, 0.3483 0.486 0.2953, 0.3483 0.4867 0.2953, 0.3283 0.4884 0.2953, 0.3487 0.4882 0.2953, 0.3494 0.4894 0.2953, 0.3736 0.4964 0.2953, 0.3757 0.4994 0.2953, 0.377 0.5028 0.2953, 0.3775 0.5065 0.2953, 0.3527 0.4802 0.2953, 0.3515 0.4807 0.2953, 0.3502 0.4816 0.2953, 0.3498 0.4821 0.2953, 0.349 0.4833 0.2953, 0.3485 0.4845 0.2953, 0.3282 0.4845 0.2953, 0.3283 0.4865 0.2953, 0.3713 0.4814 0.2953, 0.365 0.4801 0.2953, 0.3538 0.4801 0.2953, 0.3553 0.4917 0.2953, 0.3638 0.4917 0.2953, 0.3672 0.4923 0.2953, 0.3706 0.4939 0.2953, 0.3734 0.4961 0.2953, 0.3612 0.5213 0.2953, 0.2823 0.5195 0.2953, 0.2807 0.5152 0.2953, 0.3627 0.5213 0.2953, 0.3747 0.515 0.2953, 0.3726 0.5175 0.2953, 0.3696 0.5195 0.2953, 0.3663 0.5208 0.2953, 0.3571 0.5327 0.2953, 0.3528 0.5378 0.2953, 0.3092 0.5268 0.2953, 0.3523 0.5382 0.2953, 0.347 0.5419 0.2953, 0.3121 0.5328 0.2953, 0.2843 0.5223 0.2953, 0.3078 0.5275 0.2953, 0.3609 0.5223 0.2953, 0.36 0.5265 0.2953, 0.3036 0.5291 0.2953, 0.2991 0.5296 0.2953, 0.2971 0.5295 0.2953, 0.3163 0.5378 0.2953, 0.341 0.5442 0.2953, 0.3214 0.5416 0.2953, 0.3346 0.545 0.2953, 0.3276 0.5441 0.2953, 0.2925 0.5284 0.2953, 0.2882 0.5261 0.2953, 0.285 0.5232 0.2953, 0.3835 0.5223 0.2953, 0.3861 0.5186 0.2953, 0.3877 0.5145 0.2953, 0.5117 0.5298 0.2953, 0.5019 0.5298 0.2953, 0.5144 0.5225 0.2953, 0.5019 0.5223 0.2953, 0.5182 0.5225 0.2953, 0.5905 0.5223 0.2953, 0.5905 0.5494 0.2953, 0.5081 0.5492 0.2953, 0.5019 0.5494 0.2953, 0.5006 0.5298 0.2953, 0.498 0.5225 0.2953, 0.4935 0.5223 0.2953, 0.4942 0.5225 0.2953, 0.4935 0.5494 0.2953, 0.5019 0.5427 0.2953, 0.5044 0.5492 0.2953, 0.4623 0.5345 0.2953, 0.4551 0.5345 0.2953, 0.4623 0.5256 0.2953, 0.4551 0.5256 0.2953, 0.4685 0.5494 0.2953, 0.4623 0.5494 0.2953, 0.4654 0.5492 0.2953, 0.4623 0.5492 0.2953, 0.4654 0.5461 0.2953, 0.466 0.5256 0.2953, 0.4685 0.5223 0.2953, 0.466 0.5225 0.2953, 0.4623 0.5223 0.2953, 0.4646 0.5345 0.2953, 0.4646 0.5376 0.2953, 0.4623 0.5376 0.2953, 0.4623 0.5461 0.2953, 0.4551 0.5461 0.2953, 0.4551 0.5376 0.2953, 0.4516 0.5492 0.2953, 0.4501 0.5494 0.2953, 0.4516 0.5225 0.2953, 0.4463 0.5486 0.2953, 0.4434 0.5494 0.2953, 0.4428 0.5494 0.2953, 0.4623 0.5225 0.2953, 0.4463 0.545 0.2953, 0.4458 0.5234 0.2953, 0.44 0.5465 0.2953, 0.4388 0.5465 0.2953, 0.437 0.5254 0.2953, 0.4394 0.5251 0.2953, 0.4406 0.5252 0.2953, 0.446 0.5451 0.2953, 0.4436 0.5257 0.2953, 0.4463 0.5269 0.2953, 0.4463 0.5236 0.2953, 0.4332 0.5272 0.2953, 0.4299 0.5344 0.2953, 0.4325 0.5279 0.2953, 0.4304 0.5318 0.2953, 0.4313 0.5296 0.2953, 0.4433 0.5461 0.2953, 0.4365 0.546 0.2953, 0.4344 0.545 0.2953, 0.4327 0.5436 0.2953, 0.4325 0.5434 0.2953, 0.4312 0.5415 0.2953, 0.4303 0.5392 0.2953, 0.4299 0.5356 0.2953, 0.435 0.5261 0.2953, 0.4282 0.5432 0.2953, 0.4301 0.5457 0.2953, 0.4308 0.5464 0.2953, 0.4333 0.5481 0.2953, 0.4275 0.5293 0.2953, 0.4268 0.531 0.2953, 0.4259 0.5223 0.2953, 0.4263 0.5353 0.2953, 0.4263 0.5367 0.2953, 0.4259 0.5494 0.2953, 0.4269 0.5402 0.2953, 0.4275 0.5415 0.2953, 0.4275 0.5223 0.2953, 0.434 0.5229 0.2953, 0.4315 0.5241 0.2953, 0.4297 0.5257 0.2953, 0.4295 0.5259 0.2953, 0.4279 0.5282 0.2953, 0.4364 0.5223 0.2953, 0.4275 0.5145 0.2953, 0.4368 0.5222 0.2953, 0.4389 0.5221 0.2953, 0.4501 0.5145 0.2953, -0.4783 0.5435 0.2953, -0.4735 0.5321 0.2953, -0.507 0.5655 0.2953, -0.5192 0.5671 0.2953, -0.5906 0.5905 0.2953, -0.5315 0.5655 0.2953, -0.5429 0.5608 0.2953, -0.4956 0.5608 0.2953, -0.4858 0.5533 0.2953, -0.4828 0.5494 0.2953, -0.5527 0.5533 0.2953, -0.5906 0.5223 0.2953, -0.5662 0.5223 0.2953, -0.5649 0.5321 0.2953, -0.5527 0.4864 0.2953, -0.5602 0.4962 0.2953, -0.5906 0.4799 0.2953, -0.5906 0.5145 0.2953, -0.5649 0.5076 0.2953, -0.5659 0.5145 0.2953, -0.5666 0.5198 0.2953, -0.5192 0.4725 0.2953, -0.5315 0.4741 0.2953, -0.5906 0.4719 0.2953, -0.5429 0.4789 0.2953, -0.5443 0.4799 0.2953, -0.4783 0.4962 0.2953, -0.4858 0.4864 0.2953, -0.4942 0.4799 0.2953, -0.4956 0.4789 0.2953, -0.507 0.4741 0.2953, -0.4723 0.5223 0.2953, -0.4719 0.5198 0.2953, -0.4726 0.5145 0.2953, -0.4735 0.5076 0.2953, 0.492 0.5314 0.2953, 0.4907 0.5286 0.2953, 0.4832 0.5494 0.2953, 0.4832 0.5486 0.2953, 0.4859 0.5476 0.2953, 0.4832 0.5232 0.2953, 0.4832 0.5223 0.2953, 0.4859 0.5242 0.2953, 0.4887 0.5262 0.2953, 0.4887 0.5457 0.2953, 0.4897 0.5447 0.2953, 0.4913 0.5424 0.2953, 0.4923 0.5399 0.2953, 0.4927 0.5362 0.2953, 0.4927 0.5345 0.2953, 0.4786 0.5492 0.2953, 0.4827 0.5487 0.2953, 0.4829 0.5231 0.2953, 0.4783 0.5225 0.2953, 0.471 0.5225 0.2953, 0.471 0.5492 0.2953, 0.4378 0.4804 0.2953, 0.4365 0.4799 0.2953, 0.4406 0.4802 0.2953, 0.43 0.4893 0.2953, 0.4305 0.4946 0.2953, 0.4294 0.4883 0.2953, 0.4289 0.4872 0.2953, 0.439 0.4812 0.2953, 0.4327 0.4799 0.2953, 0.4314 0.4804 0.2953, 0.4275 0.4799 0.2953, 0.4292 0.4826 0.2953, 0.4288 0.4837 0.2953, 0.4305 0.4979 0.2953, 0.4312 0.4983 0.2953, 0.4405 0.4991 0.2953, 0.4491 0.4964 0.2953, 0.4497 0.4973 0.2953, 0.4311 0.4902 0.2953, 0.4325 0.4909 0.2953, 0.4326 0.496 0.2953, 0.435 0.4915 0.2953, 0.4379 0.4968 0.2953, 0.4368 0.497 0.2953, 0.4346 0.4967 0.2953, 0.4303 0.4812 0.2953, 0.4299 0.4816 0.2953, 0.4406 0.4831 0.2953, 0.4406 0.4831 0.2953, 0.44 0.4823 0.2953, 0.4337 0.4993 0.2953, 0.4371 0.4997 0.2953, 0.4391 0.4995 0.2953, 0.4287 0.4853 0.2953, 0.4287 0.4857 0.2953, 0.4416 0.4984 0.2953, 0.4425 0.4976 0.2953, 0.4487 0.4953 0.2953, 0.4432 0.4965 0.2953, 0.4437 0.4949 0.2953, 0.4406 0.4923 0.2953, 0.4405 0.4938 0.2953, 0.4402 0.495 0.2953, 0.4398 0.4956 0.2953, 0.45 0.4905 0.2953, 0.4485 0.4843 0.2953, 0.4501 0.4905 0.2953, 0.4498 0.4835 0.2953, 0.4501 0.4834 0.2953, 0.4495 0.4911 0.2953, 0.4491 0.4918 0.2953, 0.444 0.4924 0.2953, 0.4487 0.4928 0.2953, 0.4485 0.4941 0.2953, 0.4393 0.4962 0.2953, 0.4387 0.4966 0.2953, 0.4365 0.4799 0.2953, 0.4501 0.4719 0.2953, 0.4275 0.4719 0.2953, 0.4347 0.4797 0.2953, 0.4328 0.4799 0.2953, 0.4485 0.4808 0.2953, 0.444 0.4802 0.2953, 0.4501 0.4803 0.2953, 0.4501 0.4799 0.2953, 0.4506 0.4801 0.2953, 0.4517 0.4799 0.2953, 0.4537 0.4797 0.2953, 0.4605 0.4988 0.2953, 0.4605 0.4956 0.2953, 0.4507 0.4982 0.2953, 0.4517 0.4988 0.2953, 0.4612 0.484 0.2953, 0.4608 0.483 0.2953, 0.4602 0.4821 0.2953, 0.4501 0.4976 0.2953, 0.4536 0.4994 0.2953, 0.456 0.4997 0.2953, 0.4623 0.5145 0.2953, 0.4583 0.4995 0.2953, 0.4603 0.4885 0.2953, 0.4609 0.4876 0.2953, 0.4613 0.4866 0.2953, 0.4614 0.4854 0.2953, 0.4592 0.4812 0.2953, 0.4581 0.4806 0.2953, 0.4556 0.497 0.2953, 0.4546 0.4969 0.2953, 0.452 0.4944 0.2953, 0.4538 0.4966 0.2953, 0.453 0.4962 0.2953, 0.452 0.4939 0.2953, 0.4521 0.4934 0.2953, 0.4524 0.493 0.2953, 0.4527 0.4926 0.2953, 0.4539 0.4919 0.2953, 0.4578 0.4967 0.2953, 0.456 0.491 0.2953, 0.4597 0.496 0.2953, 0.4573 0.4905 0.2953, 0.4595 0.4892 0.2953, 0.4525 0.4958 0.2953, 0.4522 0.4954 0.2953, 0.452 0.4949 0.2953, 0.4519 0.4827 0.2953, 0.4536 0.4885 0.2953, 0.4516 0.4895 0.2953, 0.454 0.4824 0.2953, 0.4542 0.4824 0.2953, 0.4558 0.4876 0.2953, 0.4559 0.4826 0.2953, 0.458 0.485 0.2953, 0.4579 0.4854 0.2953, 0.4567 0.483 0.2953, 0.457 0.4831 0.2953, 0.4574 0.4835 0.2953, 0.4577 0.4839 0.2953, 0.4579 0.4844 0.2953, 0.4578 0.486 0.2953, 0.4575 0.4864 0.2953, 0.4571 0.4868 0.2953, 0.478 0.4992 0.2953, 0.4814 0.4992 0.2953, 0.4832 0.5145 0.2953, 0.4719 0.4849 0.2953, 0.4723 0.4833 0.2953, 0.4724 0.4833 0.2953, 0.4685 0.5145 0.2953, 0.4685 0.4946 0.2953, 0.4728 0.4849 0.2953, 0.4725 0.484 0.2953, 0.4685 0.4856 0.2953, 0.4631 0.4992 0.2953, 0.4669 0.4992 0.2953, 0.4706 0.4802 0.2953, 0.4705 0.4799 0.2953, 0.4691 0.4767 0.2953, 0.4623 0.4719 0.2953, 0.4638 0.4719 0.2953, 0.4638 0.4744 0.2953, 0.4645 0.4742 0.2953, 0.4657 0.4741 0.2953, 0.4665 0.4742 0.2953, 0.4673 0.4744 0.2953, 0.4673 0.4713 0.2953, 0.466 0.4712 0.2953, 0.4623 -0.5906 0.2953, 0.4652 0.4712 0.2953, 0.4638 0.4715 0.2953, 0.4685 0.4718 0.2953, 0.4685 -0.5906 0.2953, 0.4686 0.4718 0.2953, 0.4832 -0.5906 0.2953, 0.4687 0.4719 0.2953, 0.4728 0.4773 0.2953, 0.4713 0.4743 0.2953, 0.4832 0.4719 0.2953, 0.4738 0.4799 0.2953, 0.47 0.4729 0.2953, 0.4698 0.4727 0.2953, 0.4935 0.4922 0.2953, 0.4885 0.4922 0.2953, 0.4935 0.4832 0.2953, 0.4885 0.4832 0.2953, 0.4988 0.5069 0.2953, 0.4988 0.5038 0.2953, 0.5019 0.5145 0.2953, 0.4994 0.4832 0.2953, 0.5019 0.4799 0.2953, 0.4994 0.4802 0.2953, 0.4935 0.4799 0.2953, 0.498 0.4922 0.2953, 0.498 0.4952 0.2953, 0.4935 0.4952 0.2953, 0.4935 0.5038 0.2953, 0.4885 0.5038 0.2953, 0.4885 0.4952 0.2953, 0.4935 0.4802 0.2953, 0.485 0.4802 0.2953, 0.4832 0.4799 0.2953, 0.485 0.5069 0.2953, 0.4935 0.5069 0.2953, 0.4935 0.5145 0.2953, 0.4501 0.5905 0.2953, 0.4623 0.5905 0.2953, 0.4685 0.5905 0.2953, 0.4832 0.5905 0.2953, 0.4935 0.5905 0.2953, 0.5019 0.5905 0.2953, 0.5905 0.5905 0.2953, 0.4259 0.5905 0.2953, 0.4275 0.5905 0.2953, 0.4399 0.5496 0.2953, 0.4252 0.5256 0.2953, 0.4252 0.5225 0.2953, 0.4111 0.5225 0.2953, 0.4111 0.5492 0.2953, 0.4146 0.5492 0.2953, 0.4146 0.5256 0.2953, 0.4259 0.5145 0.2953, 0.5451 0.4875 0.2953, 0.534 0.4875 0.2953, 0.5478 0.4802 0.2953, 0.5314 0.4802 0.2953, 0.5905 0.4799 0.2953, 0.5276 0.4802 0.2953, 0.5905 0.5145 0.2953, 0.5415 0.5069 0.2953, 0.5517 0.4802 0.2953, 0.5254 0.489 0.2953, 0.5261 0.4922 0.2953, 0.5378 0.5069 0.2953, 0.5262 0.4939 0.2953, 0.5257 0.4975 0.2953, 0.5241 0.4863 0.2953, 0.5221 0.4839 0.2953, 0.5193 0.4819 0.2953, 0.5044 0.5069 0.2953, 0.5044 0.4802 0.2953, 0.5118 0.4802 0.2953, 0.5163 0.4807 0.2953, 0.5221 0.5033 0.2953, 0.5231 0.5024 0.2953, 0.5247 0.5001 0.2953, 0.512 0.5069 0.2953, 0.5161 0.5064 0.2953, 0.5193 0.5052 0.2953, 0.4259 0.4799 0.2953, 0.4111 0.4802 0.2953, 0.4255 0.4802 0.2953, 0.4255 0.4832 0.2953, 0.4249 0.5038 0.2953, 0.4111 0.5069 0.2953, 0.4249 0.5069 0.2953, 0.4146 0.4922 0.2953, 0.4146 0.4832 0.2953, 0.4241 0.4922 0.2953, 0.4241 0.4952 0.2953, 0.4146 0.4952 0.2953, 0.4146 0.5038 0.2953, 0.4935 0.4719 0.2953, 0.5019 0.4719 0.2953, 0.5905 0.4719 0.2953, 0.4259 0.4719 0.2953, 0.4935 -0.5906 0.2953, 0.5019 -0.5906 0.2953, 0.5905 -0.5906 0.2953, 0.4259 -0.5906 0.2953, 0.4275 -0.5906 0.2953, 0.4501 -0.5906 0.2953, -0.5906 -0.5906 0.2953, 0.5905 -0.5906 0.0079, 0.5905 -0.3406 0.0079, 0.5905 -0.3406 0.0787, 0.5905 -0.25 0.0787, 0.5905 -0.0532 0.0787, 0.5905 -0.0532 0.0079, 0.5905 0.0531 0.0079, 0.5905 0.0531 0.0787, 0.5905 0.1437 0.0787, 0.5905 -0.1437 0.0787, 0.5905 -0.1437 0.0079, 0.5905 -0.25 0.0079, 0.5905 0.3405 0.0079, 0.5905 0.5905 0.0079, 0.5905 0.3405 0.0787, 0.5905 0.25 0.0787, 0.5905 0.25 0.0079, 0.5905 0.1437 0.0079, 0.3405 0.5905 0.0079, 0.25 0.5905 0.0787, 0.25 0.5905 0.0079, 0.1437 0.5905 0.0079, 0.3405 0.5905 0.0787, 0.1437 0.5905 0.0787, 0.0531 0.5905 0.0079, -0.0532 0.5905 0.0079, 0.0531 0.5905 0.0787, -0.0532 0.5905 0.0787, -0.1437 0.5905 0.0787, -0.3406 0.5905 0.0079, -0.5906 0.5905 0.0079, -0.3406 0.5905 0.0787, -0.25 0.5905 0.0787, -0.25 0.5905 0.0079, -0.1437 0.5905 0.0079, -0.5906 0.0531 0.0787, -0.5906 0.0531 0.0079, -0.5906 -0.0532 0.0079, -0.5906 0.3405 0.0079, -0.5906 0.3405 0.0787, -0.5906 0.25 0.0787, -0.5906 -0.1437 0.0079, -0.5906 -0.25 0.0079, -0.5906 -0.1437 0.0787, -0.5906 -0.25 0.0787, -0.5906 -0.0532 0.0787, -0.5906 0.1437 0.0787, -0.5906 0.1437 0.0079, -0.5906 0.25 0.0079, -0.5906 -0.3406 0.0079, -0.5906 -0.5906 0.0079, -0.5906 -0.3406 0.0787, -0.3406 -0.5906 0.0079, -0.3406 -0.5906 0.0787, -0.25 -0.5906 0.0787, -0.0532 -0.5906 0.0787, -0.0532 -0.5906 0.0079, 0.0531 -0.5906 0.0079, 0.0531 -0.5906 0.0787, 0.1437 -0.5906 0.0787, -0.1437 -0.5906 0.0787, -0.1437 -0.5906 0.0079, -0.25 -0.5906 0.0079, 0.3405 -0.5906 0.0079, 0.3405 -0.5906 0.0787, 0.25 -0.5906 0.0787, 0.25 -0.5906 0.0079, 0.1437 -0.5906 0.0079, 0.3405 0.437 0.0079, 0.437 0.3405 0.0079, -0.437 -0.3406 0.0079, -0.1437 -0.437 0.0079, 0.437 0.0531 0.0079, -0.437 -0.25 0.0079, -0.437 -0.1437 0.0079, 0.1437 0.437 0.0079, 0.437 0.25 0.0079, 0.437 0.1437 0.0079, -0.25 -0.437 0.0079, 0.0531 -0.437 0.0079, 0.25 0.437 0.0079, -0.3406 -0.437 0.0079, -0.437 -0.0532 0.0079, 0.437 -0.1437 0.0079, -0.0532 0.437 0.0079, 0.437 -0.0532 0.0079, -0.0532 -0.437 0.0079, 0.25 -0.437 0.0079, 0.3405 -0.437 0.0079, -0.437 0.0531 0.0079, 0.0531 0.437 0.0079, -0.437 0.1437 0.0079, -0.437 0.25 0.0079, 0.437 -0.25 0.0079, 0.1437 -0.437 0.0079, -0.3406 0.437 0.0079, -0.25 0.437 0.0079, -0.1437 0.437 0.0079, 0.437 -0.3406 0.0079, -0.437 0.3405 0.0079
            ]
        }
        coordIndex [
            0,1,2,-1,3,4,5,-1,6,7,8,-1,9,10,11,-1,12,13,14,-1,15,16,17,-1,17,16,18,-1,19,20,17,-1,17,20,21,-1,17,21,22,-1,22,23,17,-1,17,23,24,-1,17,24,15,-1,25,26,27,-1,25,27,28,-1,28,27,29,-1,28,29,30,-1,30,29,31,-1,31,29,32,-1,31,32,33,-1,34,35,32,-1,32,35,36,-1,32,37,33,-1,33,37,38,-1,33,38,39,-1,39,38,40,-1,39,40,41,-1,36,42,32,-1,32,42,43,-1,32,43,37,-1,44,45,46,-1,46,45,47,-1,48,49,50,-1,50,49,51,-1,50,51,52,-1,52,53,50,-1,50,53,54,-1,50,54,44,-1,44,54,55,-1,44,55,45,-1,56,48,57,-1,57,48,50,-1,57,50,58,-1,59,60,61,-1,61,60,62,-1,61,62,63,-1,63,62,64,-1,63,64,50,-1,50,64,65,-1,50,65,58,-1,66,67,68,-1,68,67,69,-1,68,69,61,-1,61,69,70,-1,61,70,59,-1,71,72,73,-1,72,74,73,-1,73,74,75,-1,73,75,66,-1,76,77,78,-1,79,80,81,-1,82,83,84,-1,85,86,87,-1,87,86,88,-1,79,81,89,-1,82,84,90,-1,91,92,86,-1,86,92,93,-1,86,93,94,-1,78,77,84,-1,84,77,95,-1,84,95,90,-1,80,96,81,-1,81,96,97,-1,81,97,98,-1,99,100,101,-1,101,100,102,-1,101,102,103,-1,104,94,105,-1,105,94,106,-1,105,106,101,-1,101,106,107,-1,101,107,99,-1,104,108,94,-1,94,108,109,-1,94,109,86,-1,86,109,110,-1,86,110,88,-1,111,112,113,-1,113,112,114,-1,113,114,81,-1,81,114,115,-1,81,115,89,-1,116,117,81,-1,81,117,118,-1,81,118,86,-1,86,118,119,-1,86,119,91,-1,120,121,71,-1,71,121,122,-1,71,122,123,-1,123,124,71,-1,71,124,125,-1,71,125,126,-1,126,125,111,-1,126,111,127,-1,127,111,113,-1,83,128,84,-1,84,128,129,-1,84,129,71,-1,71,129,130,-1,71,130,120,-1,98,131,81,-1,81,131,132,-1,81,132,133,-1,133,134,81,-1,81,134,135,-1,81,135,116,-1,136,137,138,-1,138,94,136,-1,136,94,93,-1,136,93,139,-1,139,93,140,-1,140,141,139,-1,139,141,142,-1,139,142,143,-1,144,145,146,-1,145,147,146,-1,146,147,148,-1,146,148,149,-1,150,146,151,-1,137,136,150,-1,150,136,152,-1,150,152,146,-1,146,152,153,-1,146,153,144,-1,151,154,150,-1,150,154,155,-1,150,155,156,-1,149,148,157,-1,157,148,158,-1,157,158,159,-1,159,158,160,-1,159,160,161,-1,162,163,156,-1,156,163,164,-1,156,164,150,-1,16,165,18,-1,18,165,166,-1,18,166,78,-1,78,166,167,-1,78,167,76,-1,168,169,170,-1,170,169,171,-1,170,171,172,-1,173,174,175,-1,175,174,176,-1,169,177,171,-1,171,177,178,-1,171,178,179,-1,179,178,180,-1,179,180,181,-1,181,180,182,-1,181,182,176,-1,176,182,183,-1,176,183,175,-1,184,185,186,-1,186,185,187,-1,188,189,190,-1,190,189,191,-1,190,192,188,-1,188,192,193,-1,188,193,194,-1,194,193,195,-1,194,195,196,-1,184,186,197,-1,197,186,193,-1,197,193,198,-1,198,193,192,-1,198,192,199,-1,192,200,199,-1,199,200,201,-1,199,201,202,-1,191,189,203,-1,203,189,204,-1,203,204,205,-1,206,204,207,-1,207,204,208,-1,195,209,196,-1,196,209,205,-1,196,205,14,-1,14,205,204,-1,14,204,210,-1,210,204,206,-1,12,14,211,-1,212,213,214,-1,215,216,217,-1,217,216,218,-1,217,218,210,-1,210,218,219,-1,210,219,14,-1,14,219,220,-1,14,220,211,-1,221,222,223,-1,223,222,224,-1,223,224,225,-1,215,217,214,-1,214,217,226,-1,214,226,212,-1,213,227,214,-1,214,227,228,-1,214,228,229,-1,229,230,214,-1,214,230,231,-1,214,231,232,-1,232,233,214,-1,214,233,222,-1,214,222,234,-1,234,222,221,-1,11,235,236,-1,236,237,11,-1,11,237,238,-1,11,238,9,-1,239,240,241,-1,241,240,242,-1,242,243,244,-1,244,243,245,-1,244,245,11,-1,11,245,246,-1,11,246,235,-1,247,248,249,-1,249,250,247,-1,247,250,251,-1,247,251,252,-1,248,247,253,-1,253,247,254,-1,253,254,255,-1,255,254,256,-1,256,254,257,-1,256,257,13,-1,258,259,32,-1,32,259,46,-1,32,46,34,-1,34,46,47,-1,260,29,261,-1,261,29,262,-1,261,262,263,-1,263,262,264,-1,260,265,29,-1,29,265,266,-1,29,266,32,-1,32,266,267,-1,32,267,258,-1,8,7,262,-1,262,7,268,-1,262,268,264,-1,269,270,8,-1,8,270,271,-1,8,271,6,-1,272,273,274,-1,274,273,275,-1,273,276,275,-1,275,276,277,-1,275,277,269,-1,269,277,278,-1,269,278,270,-1,279,280,281,-1,281,280,282,-1,281,282,274,-1,274,282,283,-1,274,283,272,-1,284,285,50,-1,50,285,286,-1,50,286,63,-1,63,286,287,-1,63,287,288,-1,259,289,46,-1,46,289,290,-1,46,290,44,-1,44,290,291,-1,44,291,50,-1,50,291,292,-1,50,292,284,-1,293,294,179,-1,295,296,181,-1,181,296,297,-1,298,299,300,-1,300,299,179,-1,300,179,301,-1,301,179,294,-1,297,302,181,-1,181,302,303,-1,181,303,304,-1,304,305,181,-1,181,305,306,-1,181,306,179,-1,179,306,307,-1,179,307,293,-1,188,308,295,-1,295,308,309,-1,295,309,296,-1,298,310,299,-1,299,310,311,-1,299,311,194,-1,194,311,312,-1,194,312,188,-1,188,312,313,-1,188,313,308,-1,314,315,316,-1,317,318,319,-1,319,318,320,-1,314,316,321,-1,322,323,324,-1,324,325,326,-1,254,327,328,-1,329,330,331,-1,317,332,318,-1,318,332,333,-1,318,333,334,-1,334,333,335,-1,336,337,335,-1,335,337,338,-1,335,338,334,-1,323,339,324,-1,324,339,340,-1,324,340,325,-1,341,342,316,-1,316,342,343,-1,316,343,321,-1,328,344,254,-1,254,344,345,-1,254,345,346,-1,326,347,324,-1,324,347,348,-1,324,348,254,-1,254,348,320,-1,254,320,327,-1,327,320,318,-1,329,349,330,-1,330,349,350,-1,330,350,351,-1,351,350,352,-1,351,352,353,-1,354,355,335,-1,335,355,356,-1,335,356,357,-1,358,359,360,-1,360,359,361,-1,360,361,362,-1,363,364,365,-1,365,364,366,-1,365,366,353,-1,353,366,367,-1,353,367,351,-1,357,368,335,-1,335,368,369,-1,335,369,336,-1,315,370,371,-1,371,370,372,-1,372,370,373,-1,372,373,374,-1,358,363,359,-1,359,363,365,-1,359,365,375,-1,375,365,376,-1,375,376,377,-1,377,376,378,-1,377,378,379,-1,379,378,380,-1,381,380,371,-1,371,380,378,-1,371,378,315,-1,315,378,376,-1,315,376,316,-1,382,383,5,-1,384,385,257,-1,386,387,5,-1,5,387,388,-1,346,329,254,-1,254,329,331,-1,254,331,257,-1,257,331,389,-1,257,389,384,-1,385,390,257,-1,257,390,391,-1,257,391,392,-1,392,391,393,-1,392,393,382,-1,394,395,383,-1,383,395,396,-1,383,396,5,-1,5,396,397,-1,5,397,386,-1,388,398,5,-1,5,398,399,-1,5,399,3,-1,400,401,402,-1,402,401,403,-1,402,403,404,-1,402,405,400,-1,400,405,406,-1,400,406,407,-1,407,408,400,-1,400,408,409,-1,400,409,410,-1,410,409,411,-1,410,411,412,-1,412,411,413,-1,412,413,383,-1,383,413,414,-1,383,414,394,-1,415,416,404,-1,404,416,417,-1,404,417,402,-1,418,419,362,-1,362,419,420,-1,362,420,360,-1,418,421,419,-1,419,421,422,-1,419,422,423,-1,423,422,424,-1,423,425,426,-1,424,427,423,-1,423,427,428,-1,423,428,429,-1,429,430,423,-1,423,430,431,-1,423,431,425,-1,426,432,423,-1,423,432,433,-1,423,433,434,-1,435,436,437,-1,438,439,440,-1,437,441,435,-1,435,441,442,-1,435,442,443,-1,443,442,438,-1,443,438,444,-1,444,438,440,-1,2,445,5,-1,5,445,446,-1,382,5,392,-1,392,5,446,-1,392,446,441,-1,441,446,447,-1,441,447,442,-1,448,445,449,-1,449,445,2,-1,449,2,450,-1,450,2,1,-1,451,452,453,-1,381,371,4,-1,4,371,451,-1,4,451,5,-1,5,451,453,-1,5,453,2,-1,2,453,454,-1,2,454,455,-1,455,456,2,-1,2,456,457,-1,2,457,0,-1,458,459,460,-1,460,459,461,-1,460,461,462,-1,458,460,463,-1,463,460,464,-1,463,464,465,-1,465,464,466,-1,465,466,467,-1,468,469,470,-1,468,470,471,-1,469,472,470,-1,470,472,473,-1,470,473,467,-1,474,475,476,-1,476,475,477,-1,478,479,480,-1,480,479,481,-1,480,481,482,-1,482,481,483,-1,482,483,484,-1,474,476,485,-1,485,476,481,-1,485,481,486,-1,486,481,479,-1,486,479,487,-1,479,488,487,-1,487,488,489,-1,487,489,490,-1,483,491,484,-1,484,491,492,-1,484,492,493,-1,493,492,494,-1,478,480,495,-1,495,480,496,-1,495,496,494,-1,494,496,437,-1,494,437,493,-1,493,437,436,-1,493,436,471,-1,208,204,497,-1,497,204,189,-1,497,189,498,-1,498,189,188,-1,498,188,499,-1,499,188,295,-1,499,295,500,-1,500,295,181,-1,500,181,501,-1,501,181,176,-1,501,176,502,-1,502,176,174,-1,502,174,503,-1,27,244,504,-1,504,244,11,-1,504,11,505,-1,505,11,10,-1,505,10,497,-1,497,10,506,-1,497,506,208,-1,242,244,241,-1,241,244,507,-1,241,507,508,-1,18,509,17,-1,17,509,510,-1,17,510,511,-1,512,507,511,-1,511,507,244,-1,511,244,17,-1,17,244,27,-1,17,27,19,-1,19,27,26,-1,13,257,14,-1,14,257,392,-1,14,392,196,-1,196,392,441,-1,196,441,194,-1,194,441,437,-1,194,437,299,-1,299,437,496,-1,299,496,179,-1,179,496,480,-1,179,480,171,-1,508,509,241,-1,241,509,18,-1,241,18,513,-1,513,18,78,-1,514,515,516,-1,516,515,517,-1,518,516,482,-1,482,516,517,-1,482,517,519,-1,520,521,518,-1,518,521,522,-1,518,522,516,-1,523,519,524,-1,524,519,525,-1,524,525,526,-1,526,525,527,-1,523,528,519,-1,519,528,529,-1,519,529,530,-1,531,480,532,-1,532,480,482,-1,532,482,533,-1,533,482,519,-1,533,519,534,-1,534,519,530,-1,175,172,173,-1,173,172,171,-1,173,171,520,-1,520,171,480,-1,520,480,521,-1,521,480,525,-1,535,536,525,-1,525,536,537,-1,525,537,527,-1,531,538,480,-1,480,538,539,-1,480,539,525,-1,525,539,540,-1,525,540,535,-1,252,239,247,-1,247,239,241,-1,247,241,254,-1,254,241,513,-1,254,513,324,-1,324,513,541,-1,84,541,542,-1,542,541,543,-1,543,541,544,-1,544,541,513,-1,544,513,545,-1,84,542,78,-1,78,542,546,-1,78,546,513,-1,513,546,547,-1,513,547,545,-1,548,549,550,-1,550,549,544,-1,550,544,551,-1,551,544,545,-1,551,545,552,-1,552,545,553,-1,471,470,493,-1,493,470,554,-1,493,554,484,-1,484,554,555,-1,484,555,482,-1,482,555,556,-1,482,556,518,-1,71,73,84,-1,84,73,557,-1,84,557,541,-1,541,557,372,-1,541,372,324,-1,324,372,374,-1,324,374,322,-1,467,466,470,-1,470,466,558,-1,470,558,554,-1,554,558,559,-1,554,559,555,-1,555,559,560,-1,555,560,556,-1,66,68,73,-1,73,68,561,-1,73,561,557,-1,557,561,562,-1,557,562,372,-1,372,562,563,-1,372,563,371,-1,371,563,460,-1,371,460,451,-1,451,460,462,-1,451,462,452,-1,288,279,63,-1,63,279,281,-1,63,281,61,-1,61,281,564,-1,560,565,566,-1,566,567,560,-1,560,567,568,-1,560,568,503,-1,569,570,571,-1,572,573,503,-1,571,572,569,-1,569,572,503,-1,569,503,574,-1,574,503,568,-1,574,568,575,-1,575,568,576,-1,577,578,579,-1,579,578,503,-1,579,503,580,-1,580,503,573,-1,580,573,581,-1,581,573,582,-1,503,578,583,-1,584,585,586,-1,583,587,503,-1,503,587,584,-1,503,584,588,-1,588,584,586,-1,589,590,591,-1,591,590,592,-1,588,591,503,-1,503,591,592,-1,503,592,262,-1,262,592,593,-1,594,595,596,-1,596,595,262,-1,596,262,597,-1,597,262,593,-1,597,593,598,-1,598,593,599,-1,600,601,602,-1,595,603,262,-1,262,603,604,-1,262,604,605,-1,606,607,608,-1,608,607,609,-1,602,610,600,-1,600,610,262,-1,600,262,611,-1,611,262,605,-1,611,605,612,-1,612,605,613,-1,614,615,616,-1,616,615,564,-1,616,564,609,-1,609,564,262,-1,609,262,608,-1,608,262,610,-1,564,615,617,-1,617,618,564,-1,564,618,619,-1,564,619,560,-1,620,621,622,-1,623,624,560,-1,622,623,620,-1,620,623,560,-1,620,560,625,-1,625,560,619,-1,625,619,626,-1,626,619,627,-1,628,565,629,-1,629,565,560,-1,629,560,630,-1,630,560,624,-1,630,624,631,-1,631,624,632,-1,633,583,634,-1,634,583,578,-1,634,578,577,-1,615,614,635,-1,636,626,627,-1,637,571,570,-1,607,606,638,-1,638,606,639,-1,640,586,585,-1,581,582,641,-1,641,582,642,-1,641,642,643,-1,644,622,621,-1,634,641,633,-1,633,641,643,-1,633,643,645,-1,645,643,646,-1,647,602,601,-1,648,575,576,-1,639,645,638,-1,638,645,646,-1,638,646,635,-1,635,646,617,-1,635,617,615,-1,649,590,589,-1,570,650,637,-1,637,650,651,-1,637,651,642,-1,642,651,636,-1,642,636,643,-1,643,636,627,-1,652,631,632,-1,565,628,653,-1,601,654,647,-1,647,654,655,-1,647,655,639,-1,639,655,640,-1,639,640,645,-1,645,640,585,-1,612,613,656,-1,656,613,657,-1,576,658,648,-1,648,658,659,-1,648,659,650,-1,650,659,644,-1,650,644,651,-1,651,644,621,-1,595,594,660,-1,598,599,661,-1,661,599,662,-1,566,565,663,-1,663,565,653,-1,663,653,658,-1,658,653,652,-1,658,652,659,-1,659,652,632,-1,603,595,664,-1,664,595,660,-1,664,660,657,-1,657,660,661,-1,657,661,656,-1,656,661,662,-1,656,662,654,-1,654,662,649,-1,654,649,655,-1,655,649,589,-1,
        ]
    }
}
Shape{
    appearance Appearance {
        material  Material 	{
            diffuseColor 0.8313725490196079 0.8313725490196079 0.8196078431372549
            specularColor 0.6666666666666666 0.6666666666666666 0.6549019607843137
            ambientIntensity 0.83
            transparency 0.0
            shininess 0.5
        }
    }
    geometry IndexedFaceSet {
        ccw TRUE
        solid FALSE
        coord DEF co Coordinate {
            point [
                -0.25 0.5945 0.0787, -0.3406 0.5945 0.0787, -0.25 0.5905 0.0787, -0.3406 0.5905 0.0787
            ]
        }
        coordIndex [
            0,1,2,-1,2,1,3,-1,
        ]
    }
}
Shape{
    appearance Appearance {
        material  Material 	{
            diffuseColor 1.0 1.0 1.0
            specularColor 0.8784313725490196 0.8784313725490196 0.8784313725490196
            ambientIntensity 1.0
            transparency 0.0
            shininess 0.5
        }
    }
    geometry IndexedFaceSet {
        ccw TRUE
        solid FALSE
        coord DEF co Coordinate {
            point [
                -0.3406 0.5905 0.0787, -0.3406 0.5945 0.0787, -0.3406 0.5905 0.0079, -0.3406 0.5945 0.0, -0.3406 0.437 0.0079, -0.3406 0.437 0.0
            ]
        }
        coordIndex [
            0,1,2,-1,2,1,3,-1,2,3,4,-1,4,3,5,-1,
        ]
    }
}
Shape{
    appearance Appearance {
        material  Material 	{
            diffuseColor 0.8313725490196079 0.8313725490196079 0.8196078431372549
            specularColor 0.6666666666666666 0.6666666666666666 0.6549019607843137
            ambientIntensity 0.83
            transparency 0.0
            shininess 0.5
        }
    }
    geometry IndexedFaceSet {
        ccw TRUE
        solid FALSE
        coord DEF co Coordinate {
            point [
                -0.3406 0.437 0.0, -0.25 0.437 0.0, -0.3406 0.437 0.0079, -0.25 0.437 0.0079
            ]
        }
        coordIndex [
            0,1,2,-1,2,1,3,-1,
        ]
    }
}
Shape{
    appearance Appearance {
        material  Material 	{
            diffuseColor 1.0 1.0 1.0
            specularColor 0.8784313725490196 0.8784313725490196 0.8784313725490196
            ambientIntensity 1.0
            transparency 0.0
            shininess 0.5
        }
    }
    geometry IndexedFaceSet {
        ccw TRUE
        solid FALSE
        coord DEF co Coordinate {
            point [
                -0.25 0.437 0.0079, -0.25 0.437 0.0, -0.25 0.5905 0.0079, -0.25 0.5945 0.0, -0.25 0.5905 0.0787, -0.25 0.5945 0.0787
            ]
        }
        coordIndex [
            0,1,2,-1,2,1,3,-1,2,3,4,-1,4,3,5,-1,
        ]
    }
}
Shape{
    appearance Appearance {
        material  Material 	{
            diffuseColor 0.8313725490196079 0.8313725490196079 0.8196078431372549
            specularColor 0.6666666666666666 0.6666666666666666 0.6549019607843137
            ambientIntensity 0.83
            transparency 0.0
            shininess 0.5
        }
    }
    geometry IndexedFaceSet {
        ccw TRUE
        solid FALSE
        coord DEF co Coordinate {
            point [
                -0.3406 0.5945 0.0, -0.3406 0.5945 0.0787, -0.25 0.5945 0.0, -0.25 0.5945 0.0787
            ]
        }
        coordIndex [
            0,1,2,-1,2,1,3,-1,
        ]
    }
}
Shape{
    appearance Appearance {
        material  Material 	{
            diffuseColor 1.0 1.0 1.0
            specularColor 0.8784313725490196 0.8784313725490196 0.8784313725490196
            ambientIntensity 1.0
            transparency 0.0
            shininess 0.5
        }
    }
    geometry IndexedFaceSet {
        ccw TRUE
        solid FALSE
        coord DEF co Coordinate {
            point [
                -0.25 0.5945 0.0, -0.25 0.437 0.0, -0.3406 0.5945 0.0, -0.3406 0.437 0.0, -0.0532 0.5905 0.0787, -0.0532 0.5945 0.0787, -0.1437 0.5905 0.0787, -0.1437 0.5945 0.0787
            ]
        }
        coordIndex [
            0,1,2,-1,2,1,3,-1,4,5,6,-1,6,5,7,-1,
        ]
    }
}
Shape{
    appearance Appearance {
        material  Material 	{
            diffuseColor 0.8313725490196079 0.8313725490196079 0.8196078431372549
            specularColor 0.6666666666666666 0.6666666666666666 0.6549019607843137
            ambientIntensity 0.83
            transparency 0.0
            shininess 0.5
        }
    }
    geometry IndexedFaceSet {
        ccw TRUE
        solid FALSE
        coord DEF co Coordinate {
            point [
                -0.1437 0.5905 0.0787, -0.1437 0.5945 0.0787, -0.1437 0.5905 0.0079, -0.1437 0.5945 0.0, -0.1437 0.437 0.0079, -0.1437 0.437 0.0
            ]
        }
        coordIndex [
            0,1,2,-1,2,1,3,-1,2,3,4,-1,4,3,5,-1,
        ]
    }
}
Shape{
    appearance Appearance {
        material  Material 	{
            diffuseColor 1.0 1.0 1.0
            specularColor 0.8784313725490196 0.8784313725490196 0.8784313725490196
            ambientIntensity 1.0
            transparency 0.0
            shininess 0.5
        }
    }
    geometry IndexedFaceSet {
        ccw TRUE
        solid FALSE
        coord DEF co Coordinate {
            point [
                -0.1437 0.437 0.0, -0.0532 0.437 0.0, -0.1437 0.437 0.0079, -0.0532 0.437 0.0079, -0.0532 0.5905 0.0079, -0.0532 0.5945 0.0, -0.0532 0.5905 0.0787, -0.0532 0.5945 0.0787, -0.1437 0.5945 0.0, -0.1437 0.5945 0.0787, 0.1437 0.5905 0.0787, 0.1437 0.5945 0.0787, 0.0531 0.5905 0.0787, 0.0531 0.5945 0.0787, 0.0531 0.5905 0.0079, 0.0531 0.5945 0.0, 0.0531 0.437 0.0079, 0.0531 0.437 0.0, 0.1437 0.437 0.0, 0.1437 0.437 0.0079, 0.1437 0.5905 0.0079, 0.1437 0.5945 0.0
            ]
        }
        coordIndex [
            0,1,2,-1,2,1,3,-1,3,1,4,-1,4,1,5,-1,4,5,6,-1,6,5,7,-1,8,9,5,-1,5,9,7,-1,1,0,5,-1,5,0,8,-1,10,11,12,-1,12,11,13,-1,12,13,14,-1,14,13,15,-1,14,15,16,-1,16,15,17,-1,17,18,16,-1,16,18,19,-1,19,18,20,-1,20,18,21,-1,20,21,10,-1,10,21,11,-1,15,13,21,-1,21,13,11,-1,
        ]
    }
}
Shape{
    appearance Appearance {
        material  Material 	{
            diffuseColor 0.8313725490196079 0.8313725490196079 0.8196078431372549
            specularColor 0.6666666666666666 0.6666666666666666 0.6549019607843137
            ambientIntensity 0.83
            transparency 0.0
            shininess 0.5
        }
    }
    geometry IndexedFaceSet {
        ccw TRUE
        solid FALSE
        coord DEF co Coordinate {
            point [
                0.1437 0.437 0.0, 0.0531 0.437 0.0, 0.1437 0.5945 0.0, 0.0531 0.5945 0.0, 0.3405 0.5905 0.0787, 0.3405 0.5945 0.0787, 0.25 0.5905 0.0787, 0.25 0.5945 0.0787
            ]
        }
        coordIndex [
            0,1,2,-1,2,1,3,-1,4,5,6,-1,6,5,7,-1,
        ]
    }
}
Shape{
    appearance Appearance {
        material  Material 	{
            diffuseColor 1.0 1.0 1.0
            specularColor 0.8784313725490196 0.8784313725490196 0.8784313725490196
            ambientIntensity 1.0
            transparency 0.0
            shininess 0.5
        }
    }
    geometry IndexedFaceSet {
        ccw TRUE
        solid FALSE
        coord DEF co Coordinate {
            point [
                0.25 0.5905 0.0787, 0.25 0.5945 0.0787, 0.25 0.5905 0.0079, 0.25 0.5945 0.0, 0.25 0.437 0.0079, 0.25 0.437 0.0, 0.3405 0.437 0.0, 0.3405 0.437 0.0079, 0.3405 0.5905 0.0079, 0.3405 0.5945 0.0, 0.3405 0.5905 0.0787, 0.3405 0.5945 0.0787, 0.25 -0.5906 0.0787, 0.25 -0.5945 0.0787, 0.3405 -0.5906 0.0787, 0.3405 -0.5945 0.0787, 0.25 -0.437 0.0079, 0.25 -0.437 0.0, 0.25 -0.5906 0.0079, 0.25 -0.5945 0.0
            ]
        }
        coordIndex [
            0,1,2,-1,2,1,3,-1,2,3,4,-1,4,3,5,-1,5,6,4,-1,4,6,7,-1,7,6,8,-1,8,6,9,-1,8,9,10,-1,10,9,11,-1,3,1,9,-1,9,1,11,-1,6,5,9,-1,9,5,3,-1,12,13,14,-1,14,13,15,-1,16,17,18,-1,18,17,19,-1,18,19,12,-1,12,19,13,-1,
        ]
    }
}
Shape{
    appearance Appearance {
        material  Material 	{
            diffuseColor 0.8313725490196079 0.8313725490196079 0.8196078431372549
            specularColor 0.6666666666666666 0.6666666666666666 0.6549019607843137
            ambientIntensity 0.83
            transparency 0.0
            shininess 0.5
        }
    }
    geometry IndexedFaceSet {
        ccw TRUE
        solid FALSE
        coord DEF co Coordinate {
            point [
                0.3405 -0.5906 0.0787, 0.3405 -0.5945 0.0787, 0.3405 -0.5906 0.0079, 0.3405 -0.5945 0.0, 0.3405 -0.437 0.0079, 0.3405 -0.437 0.0
            ]
        }
        coordIndex [
            0,1,2,-1,2,1,3,-1,2,3,4,-1,4,3,5,-1,
        ]
    }
}
Shape{
    appearance Appearance {
        material  Material 	{
            diffuseColor 1.0 1.0 1.0
            specularColor 0.8784313725490196 0.8784313725490196 0.8784313725490196
            ambientIntensity 1.0
            transparency 0.0
            shininess 0.5
        }
    }
    geometry IndexedFaceSet {
        ccw TRUE
        solid FALSE
        coord DEF co Coordinate {
            point [
                0.3405 -0.437 0.0, 0.25 -0.437 0.0, 0.3405 -0.437 0.0079, 0.25 -0.437 0.0079, 0.3405 -0.5945 0.0, 0.3405 -0.5945 0.0787, 0.25 -0.5945 0.0, 0.25 -0.5945 0.0787, 0.0531 -0.5906 0.0787, 0.0531 -0.5945 0.0787, 0.1437 -0.5906 0.0787, 0.1437 -0.5945 0.0787, 0.0531 -0.437 0.0079, 0.0531 -0.437 0.0, 0.0531 -0.5906 0.0079, 0.0531 -0.5945 0.0, 0.1437 -0.5906 0.0079, 0.1437 -0.5945 0.0, 0.1437 -0.437 0.0079, 0.1437 -0.437 0.0, -0.1437 -0.5906 0.0787, -0.1437 -0.5945 0.0787, -0.0532 -0.5906 0.0787, -0.0532 -0.5945 0.0787, -0.1437 -0.437 0.0079, -0.1437 -0.437 0.0, -0.1437 -0.5906 0.0079, -0.1437 -0.5945 0.0, -0.0532 -0.5906 0.0079, -0.0532 -0.5945 0.0, -0.0532 -0.437 0.0079, -0.0532 -0.437 0.0, -0.3406 -0.5945 0.0787, -0.25 -0.5945 0.0787, -0.3406 -0.5906 0.0787, -0.25 -0.5906 0.0787
            ]
        }
        coordIndex [
            0,1,2,-1,2,1,3,-1,4,5,6,-1,6,5,7,-1,0,4,1,-1,1,4,6,-1,8,9,10,-1,10,9,11,-1,12,13,14,-1,14,13,15,-1,14,15,8,-1,8,15,9,-1,10,11,16,-1,16,11,17,-1,16,17,18,-1,18,17,19,-1,19,13,18,-1,18,13,12,-1,17,11,15,-1,15,11,9,-1,19,17,13,-1,13,17,15,-1,20,21,22,-1,22,21,23,-1,24,25,26,-1,26,25,27,-1,26,27,20,-1,20,27,21,-1,22,23,28,-1,28,23,29,-1,28,29,30,-1,30,29,31,-1,31,25,30,-1,30,25,24,-1,29,23,27,-1,27,23,21,-1,31,29,25,-1,25,29,27,-1,32,33,34,-1,34,33,35,-1,
        ]
    }
}
Shape{
    appearance Appearance {
        material  Material 	{
            diffuseColor 0.8313725490196079 0.8313725490196079 0.8196078431372549
            specularColor 0.6666666666666666 0.6666666666666666 0.6549019607843137
            ambientIntensity 0.83
            transparency 0.0
            shininess 0.5
        }
    }
    geometry IndexedFaceSet {
        ccw TRUE
        solid FALSE
        coord DEF co Coordinate {
            point [
                -0.25 -0.5906 0.0787, -0.25 -0.5945 0.0787, -0.25 -0.5906 0.0079, -0.25 -0.5945 0.0, -0.25 -0.437 0.0079, -0.25 -0.437 0.0
            ]
        }
        coordIndex [
            0,1,2,-1,2,1,3,-1,2,3,4,-1,4,3,5,-1,
        ]
    }
}
Shape{
    appearance Appearance {
        material  Material 	{
            diffuseColor 1.0 1.0 1.0
            specularColor 0.8784313725490196 0.8784313725490196 0.8784313725490196
            ambientIntensity 1.0
            transparency 0.0
            shininess 0.5
        }
    }
    geometry IndexedFaceSet {
        ccw TRUE
        solid FALSE
        coord DEF co Coordinate {
            point [
                -0.25 -0.437 0.0, -0.3406 -0.437 0.0, -0.25 -0.437 0.0079, -0.3406 -0.437 0.0079, -0.3406 -0.5906 0.0079, -0.3406 -0.5945 0.0, -0.3406 -0.5906 0.0787, -0.3406 -0.5945 0.0787, -0.25 -0.5945 0.0, -0.25 -0.5945 0.0787, -0.5945 0.3405 0.0787, -0.5945 0.25 0.0787, -0.5906 0.3405 0.0787, -0.5906 0.25 0.0787, -0.5906 0.25 0.0079, -0.5945 0.25 0.0, -0.437 0.25 0.0079, -0.437 0.25 0.0, -0.437 0.3405 0.0, -0.437 0.3405 0.0079, -0.5906 0.3405 0.0079, -0.5945 0.3405 0.0, -0.5906 0.1437 0.0787, -0.5945 0.1437 0.0787, -0.5906 0.0531 0.0787, -0.5945 0.0531 0.0787, -0.437 0.1437 0.0079, -0.437 0.1437 0.0, -0.5906 0.1437 0.0079, -0.5945 0.1437 0.0, -0.5906 0.0531 0.0079, -0.5945 0.0531 0.0, -0.437 0.0531 0.0079, -0.437 0.0531 0.0, -0.5906 -0.0532 0.0787, -0.5945 -0.0532 0.0787, -0.5906 -0.1437 0.0787, -0.5945 -0.1437 0.0787, -0.437 -0.0532 0.0079, -0.437 -0.0532 0.0, -0.5906 -0.0532 0.0079, -0.5945 -0.0532 0.0, -0.5906 -0.1437 0.0079, -0.5945 -0.1437 0.0, -0.437 -0.1437 0.0079, -0.437 -0.1437 0.0, -0.5906 -0.25 0.0787, -0.5945 -0.25 0.0787, -0.5906 -0.3406 0.0787, -0.5945 -0.3406 0.0787, -0.437 -0.25 0.0079, -0.437 -0.25 0.0, -0.5906 -0.25 0.0079, -0.5945 -0.25 0.0, -0.5906 -0.3406 0.0079, -0.5945 -0.3406 0.0, -0.437 -0.3406 0.0079, -0.437 -0.3406 0.0, 0.5905 -0.3406 0.0787, 0.5945 -0.3406 0.0787, 0.5905 -0.25 0.0787, 0.5945 -0.25 0.0787, 0.5905 -0.25 0.0079, 0.5945 -0.25 0.0, 0.437 -0.25 0.0079, 0.437 -0.25 0.0, 0.437 -0.3406 0.0, 0.437 -0.3406 0.0079, 0.5905 -0.3406 0.0079, 0.5945 -0.3406 0.0, 0.5905 -0.1437 0.0787, 0.5945 -0.1437 0.0787, 0.5905 -0.0532 0.0787, 0.5945 -0.0532 0.0787, 0.5905 -0.0532 0.0079, 0.5945 -0.0532 0.0, 0.437 -0.0532 0.0079, 0.437 -0.0532 0.0, 0.437 -0.1437 0.0, 0.437 -0.1437 0.0079, 0.5905 -0.1437 0.0079, 0.5945 -0.1437 0.0, 0.5905 0.0531 0.0787, 0.5945 0.0531 0.0787, 0.5905 0.1437 0.0787, 0.5945 0.1437 0.0787, 0.5905 0.1437 0.0079, 0.5945 0.1437 0.0, 0.437 0.1437 0.0079, 0.437 0.1437 0.0, 0.437 0.0531 0.0, 0.437 0.0531 0.0079, 0.5905 0.0531 0.0079, 0.5945 0.0531 0.0, 0.5945 0.25 0.0787, 0.5945 0.3405 0.0787, 0.5905 0.25 0.0787, 0.5905 0.3405 0.0787, 0.5905 0.3405 0.0079, 0.5945 0.3405 0.0, 0.437 0.3405 0.0079, 0.437 0.3405 0.0, 0.437 0.25 0.0, 0.437 0.25 0.0079, 0.5905 0.25 0.0079, 0.5945 0.25 0.0
            ]
        }
        coordIndex [
            0,1,2,-1,2,1,3,-1,3,1,4,-1,4,1,5,-1,4,5,6,-1,6,5,7,-1,8,9,5,-1,5,9,7,-1,1,0,5,-1,5,0,8,-1,10,11,12,-1,12,11,13,-1,13,11,14,-1,14,11,15,-1,14,15,16,-1,16,15,17,-1,17,18,16,-1,16,18,19,-1,19,18,20,-1,20,18,21,-1,20,21,12,-1,12,21,10,-1,15,11,21,-1,21,11,10,-1,18,17,21,-1,21,17,15,-1,22,23,24,-1,24,23,25,-1,26,27,28,-1,28,27,29,-1,28,29,22,-1,22,29,23,-1,24,25,30,-1,30,25,31,-1,30,31,32,-1,32,31,33,-1,33,27,32,-1,32,27,26,-1,31,25,29,-1,29,25,23,-1,33,31,27,-1,27,31,29,-1,34,35,36,-1,36,35,37,-1,38,39,40,-1,40,39,41,-1,40,41,34,-1,34,41,35,-1,36,37,42,-1,42,37,43,-1,42,43,44,-1,44,43,45,-1,45,39,44,-1,44,39,38,-1,43,37,41,-1,41,37,35,-1,45,43,39,-1,39,43,41,-1,46,47,48,-1,48,47,49,-1,50,51,52,-1,52,51,53,-1,52,53,46,-1,46,53,47,-1,48,49,54,-1,54,49,55,-1,54,55,56,-1,56,55,57,-1,57,51,56,-1,56,51,50,-1,55,49,53,-1,53,49,47,-1,57,55,51,-1,51,55,53,-1,58,59,60,-1,60,59,61,-1,60,61,62,-1,62,61,63,-1,62,63,64,-1,64,63,65,-1,65,66,64,-1,64,66,67,-1,67,66,68,-1,68,66,69,-1,68,69,58,-1,58,69,59,-1,63,61,69,-1,69,61,59,-1,66,65,69,-1,69,65,63,-1,70,71,72,-1,72,71,73,-1,72,73,74,-1,74,73,75,-1,74,75,76,-1,76,75,77,-1,77,78,76,-1,76,78,79,-1,79,78,80,-1,80,78,81,-1,80,81,70,-1,70,81,71,-1,75,73,81,-1,81,73,71,-1,78,77,81,-1,81,77,75,-1,82,83,84,-1,84,83,85,-1,84,85,86,-1,86,85,87,-1,86,87,88,-1,88,87,89,-1,89,90,88,-1,88,90,91,-1,91,90,92,-1,92,90,93,-1,92,93,82,-1,82,93,83,-1,87,85,93,-1,93,85,83,-1,90,89,93,-1,93,89,87,-1,94,95,96,-1,96,95,97,-1,97,95,98,-1,98,95,99,-1,98,99,100,-1,100,99,101,-1,101,102,100,-1,100,102,103,-1,103,102,104,-1,104,102,105,-1,104,105,96,-1,96,105,94,-1,99,95,105,-1,105,95,94,-1,105,102,99,-1,99,102,101,-1,
        ]
    }
}
Shape{
    appearance Appearance {
        material  Material 	{
            diffuseColor 0.8313725490196079 0.8313725490196079 0.8196078431372549
            specularColor 0.6666666666666666 0.6666666666666666 0.6549019607843137
            ambientIntensity 0.83
            transparency 0.0
            shininess 0.5
        }
    }
    geometry IndexedFaceSet {
        ccw TRUE
        solid FALSE
        coord DEF co Coordinate {
            point [
                -0.5666 0.5198 0.2992, -0.5666 0.5198 0.2953, -0.5659 0.5145 0.2953, -0.5649 0.5076 0.2992, -0.5649 0.5076 0.2953, -0.5602 0.4962 0.2953, -0.5602 0.4962 0.2992, -0.5527 0.4864 0.2953, -0.5527 0.4864 0.2992, -0.5443 0.4799 0.2953, -0.5429 0.4789 0.2992, -0.5429 0.4789 0.2953, -0.5315 0.4741 0.2953, -0.5315 0.4741 0.2992, -0.5192 0.4725 0.2953, -0.5192 0.4725 0.2992, -0.507 0.4741 0.2953, -0.507 0.4741 0.2992, -0.4956 0.4789 0.2953, -0.4956 0.4789 0.2992, -0.4942 0.4799 0.2953, -0.4858 0.4864 0.2992, -0.4735 0.5076 0.2953, -0.4783 0.4962 0.2992, -0.4783 0.4962 0.2953, -0.4858 0.4864 0.2953, -0.4726 0.5145 0.2953, -0.4719 0.5198 0.2992, -0.4735 0.5076 0.2992, -0.4719 0.5198 0.2953, -0.4723 0.5223 0.2953, -0.4735 0.5321 0.2992, -0.4735 0.5321 0.2953, -0.4783 0.5435 0.2953, -0.4828 0.5494 0.2953, -0.4858 0.5533 0.2992, -0.4783 0.5435 0.2992, -0.4858 0.5533 0.2953, -0.4956 0.5608 0.2953, -0.4956 0.5608 0.2992, -0.507 0.5655 0.2953, -0.507 0.5655 0.2992, -0.5192 0.5671 0.2953, -0.5192 0.5671 0.2992, -0.5315 0.5655 0.2953, -0.5315 0.5655 0.2992, -0.5429 0.5608 0.2953, -0.5429 0.5608 0.2992, -0.5527 0.5533 0.2953, -0.5527 0.5533 0.2992, -0.5557 0.5494 0.2953, -0.5602 0.5435 0.2992, -0.5602 0.5435 0.2953, -0.5649 0.5321 0.2953, -0.5649 0.5321 0.2992, -0.5662 0.5223 0.2953, -0.5192 0.5198 0.2992, 0.4252 0.5256 0.2992, 0.4252 0.5225 0.2992, 0.4252 0.5256 0.2953, 0.4252 0.5225 0.2953, 0.4146 0.5256 0.2992, 0.4146 0.5256 0.2953, 0.4146 0.5492 0.2992, 0.4146 0.5492 0.2953, 0.4111 0.5492 0.2992, 0.4111 0.5492 0.2953, 0.4111 0.5225 0.2992, 0.4111 0.5225 0.2953, 0.4389 0.5221 0.2953, 0.4412 0.5223 0.2953, 0.4389 0.5221 0.2992, 0.4429 0.5224 0.2992, 0.4429 0.5224 0.2953, 0.4458 0.5234 0.2953, 0.4458 0.5234 0.2992, 0.4463 0.5236 0.2953, 0.4463 0.5236 0.2992, 0.4463 0.5269 0.2992, 0.4463 0.5269 0.2953, 0.4436 0.5257 0.2953, 0.4436 0.5257 0.2992, 0.4406 0.5252 0.2953, 0.4406 0.5252 0.2992, 0.4394 0.5251 0.2953, 0.4394 0.5251 0.2992, 0.437 0.5254 0.2953, 0.437 0.5254 0.2992, 0.435 0.5261 0.2953, 0.435 0.5261 0.2992, 0.4332 0.5272 0.2953, 0.4332 0.5272 0.2992, 0.4325 0.5279 0.2953, 0.4325 0.5279 0.2992, 0.4313 0.5296 0.2953, 0.4313 0.5296 0.2992, 0.4304 0.5318 0.2953, 0.4304 0.5318 0.2992, 0.4299 0.5344 0.2953, 0.4299 0.5344 0.2992, 0.4299 0.5356 0.2953, 0.4299 0.5356 0.2992, 0.4303 0.5392 0.2953, 0.4303 0.5392 0.2992, 0.4312 0.5415 0.2953, 0.4312 0.5415 0.2992, 0.4325 0.5434 0.2953, 0.4325 0.5434 0.2992, 0.4327 0.5436 0.2953, 0.4327 0.5436 0.2992, 0.4344 0.545 0.2953, 0.4344 0.545 0.2992, 0.4365 0.546 0.2953, 0.4365 0.546 0.2992, 0.4388 0.5465 0.2953, 0.4388 0.5465 0.2992, 0.44 0.5465 0.2953, 0.44 0.5465 0.2992, 0.4433 0.5461 0.2953, 0.4433 0.5461 0.2992, 0.446 0.5451 0.2953, 0.446 0.5451 0.2992, 0.4463 0.545 0.2953, 0.4463 0.545 0.2992, 0.4463 0.5486 0.2992, 0.4463 0.5486 0.2953, 0.4399 0.5496 0.2953, 0.4399 0.5496 0.2992, 0.4428 0.5494 0.2953, 0.4434 0.5494 0.2992, 0.4434 0.5494 0.2953, 0.4381 0.5494 0.2953, 0.4361 0.5492 0.2992, 0.4361 0.5492 0.2953, 0.4333 0.5481 0.2953, 0.4333 0.5481 0.2992, 0.4308 0.5464 0.2953, 0.4308 0.5464 0.2992, 0.4301 0.5457 0.2953, 0.4301 0.5457 0.2992, 0.4282 0.5432 0.2953, 0.4282 0.5432 0.2992, 0.4275 0.5415 0.2953, 0.4269 0.5402 0.2992, 0.4269 0.5402 0.2953, 0.4263 0.5367 0.2953, 0.4263 0.5367 0.2992, 0.4263 0.5353 0.2953, 0.4263 0.5353 0.2992, 0.4268 0.531 0.2953, 0.4268 0.531 0.2992, 0.4275 0.5293 0.2953, 0.4279 0.5282 0.2992, 0.4279 0.5282 0.2953, 0.4295 0.5259 0.2953, 0.4295 0.5259 0.2992, 0.4297 0.5257 0.2953, 0.4297 0.5257 0.2992, 0.4368 0.5222 0.2992, 0.4315 0.5241 0.2953, 0.4315 0.5241 0.2992, 0.434 0.5229 0.2953, 0.434 0.5229 0.2992, 0.4364 0.5223 0.2953, 0.4368 0.5222 0.2953, 0.466 0.5256 0.2992, 0.466 0.5225 0.2992, 0.466 0.5256 0.2953, 0.466 0.5225 0.2953, 0.4551 0.5256 0.2953, 0.4551 0.5256 0.2992, 0.4623 0.5256 0.2953, 0.4551 0.5345 0.2992, 0.4551 0.5345 0.2953, 0.4646 0.5345 0.2992, 0.4623 0.5345 0.2953, 0.4646 0.5345 0.2953, 0.4646 0.5376 0.2992, 0.4646 0.5376 0.2953, 0.4551 0.5376 0.2953, 0.4551 0.5376 0.2992, 0.4623 0.5376 0.2953, 0.4551 0.5461 0.2992, 0.4551 0.5461 0.2953, 0.4654 0.5461 0.2992, 0.4623 0.5461 0.2953, 0.4654 0.5461 0.2953, 0.4654 0.5492 0.2992, 0.4654 0.5492 0.2953, 0.4516 0.5492 0.2953, 0.4516 0.5492 0.2992, 0.4623 0.5492 0.2953, 0.4516 0.5225 0.2992, 0.4516 0.5225 0.2953, 0.4623 0.5225 0.2953, 0.4887 0.5262 0.2992, 0.4859 0.528 0.2992, 0.4859 0.5242 0.2992, 0.4842 0.5268 0.2992, 0.4829 0.5231 0.2992, 0.482 0.526 0.2992, 0.4783 0.5225 0.2992, 0.4783 0.5256 0.2992, 0.471 0.5225 0.2992, 0.4745 0.5256 0.2992, 0.471 0.5492 0.2992, 0.4745 0.5461 0.2992, 0.4786 0.5492 0.2992, 0.4785 0.5461 0.2992, 0.4787 0.5461 0.2992, 0.4827 0.5487 0.2992, 0.4821 0.5457 0.2992, 0.4859 0.5476 0.2992, 0.4844 0.5448 0.2992, 0.4887 0.5457 0.2992, 0.4862 0.5436 0.2992, 0.4897 0.5447 0.2992, 0.4869 0.5429 0.2992, 0.4913 0.5424 0.2992, 0.488 0.5414 0.2992, 0.4923 0.5399 0.2992, 0.4887 0.5394 0.2992, 0.4927 0.5362 0.2992, 0.4891 0.5361 0.2992, 0.4927 0.5345 0.2992, 0.489 0.5343 0.2992, 0.492 0.5314 0.2992, 0.4885 0.5319 0.2992, 0.4907 0.5286 0.2992, 0.4876 0.5299 0.2992, 0.4863 0.5283 0.2992, 0.4783 0.5225 0.2953, 0.471 0.5225 0.2953, 0.4887 0.5262 0.2953, 0.4829 0.5231 0.2953, 0.4832 0.5232 0.2953, 0.4859 0.5242 0.2953, 0.4907 0.5286 0.2953, 0.492 0.5314 0.2953, 0.4927 0.5345 0.2953, 0.4927 0.5362 0.2953, 0.4923 0.5399 0.2953, 0.4913 0.5424 0.2953, 0.4897 0.5447 0.2953, 0.4887 0.5457 0.2953, 0.4786 0.5492 0.2953, 0.4859 0.5476 0.2953, 0.4832 0.5486 0.2953, 0.4827 0.5487 0.2953, 0.471 0.5492 0.2953, 0.4785 0.5461 0.2953, 0.4745 0.5461 0.2953, 0.4745 0.5256 0.2953, 0.4783 0.5256 0.2953, 0.4863 0.5283 0.2953, 0.4859 0.528 0.2953, 0.4842 0.5268 0.2953, 0.482 0.526 0.2953, 0.4891 0.5361 0.2953, 0.489 0.5343 0.2953, 0.4885 0.5319 0.2953, 0.4876 0.5299 0.2953, 0.4862 0.5436 0.2953, 0.4869 0.5429 0.2953, 0.488 0.5414 0.2953, 0.4887 0.5394 0.2953, 0.4787 0.5461 0.2953, 0.4821 0.5457 0.2953, 0.4844 0.5448 0.2953
            ]
        }
        coordIndex [
            0,1,2,-1,0,2,3,-1,2,4,3,-1,3,4,5,-1,3,5,6,-1,6,5,7,-1,6,7,8,-1,8,7,9,-1,8,9,10,-1,9,11,10,-1,10,11,12,-1,10,12,13,-1,13,12,14,-1,13,14,15,-1,15,14,16,-1,15,16,17,-1,17,16,18,-1,17,18,19,-1,19,18,20,-1,19,20,21,-1,22,23,24,-1,24,23,21,-1,24,21,25,-1,25,21,20,-1,26,27,22,-1,22,27,28,-1,22,28,23,-1,26,29,27,-1,27,29,30,-1,27,30,31,-1,31,30,32,-1,31,32,33,-1,34,35,33,-1,33,35,36,-1,33,36,31,-1,34,37,35,-1,35,37,38,-1,35,38,39,-1,39,38,40,-1,39,40,41,-1,41,40,42,-1,41,42,43,-1,43,42,44,-1,43,44,45,-1,45,44,46,-1,45,46,47,-1,47,46,48,-1,47,48,49,-1,49,48,50,-1,49,50,51,-1,50,52,51,-1,51,52,53,-1,51,53,54,-1,54,53,0,-1,0,53,55,-1,0,55,1,-1,23,28,56,-1,56,28,27,-1,56,27,31,-1,17,19,56,-1,56,19,21,-1,56,21,23,-1,10,13,56,-1,56,13,15,-1,56,15,17,-1,3,6,56,-1,56,6,8,-1,56,8,10,-1,51,54,56,-1,56,54,0,-1,56,0,3,-1,45,47,56,-1,56,47,49,-1,56,49,51,-1,39,41,56,-1,56,41,43,-1,56,43,45,-1,31,36,56,-1,56,36,35,-1,56,35,39,-1,57,58,59,-1,59,58,60,-1,61,57,62,-1,62,57,59,-1,63,61,64,-1,64,61,62,-1,65,63,66,-1,66,63,64,-1,67,65,68,-1,68,65,66,-1,58,67,60,-1,60,67,68,-1,63,65,61,-1,61,65,67,-1,61,67,57,-1,57,67,58,-1,69,70,71,-1,71,70,72,-1,70,73,72,-1,72,73,74,-1,72,74,75,-1,75,74,76,-1,75,76,77,-1,78,77,79,-1,79,77,76,-1,78,79,80,-1,78,80,81,-1,81,80,82,-1,81,82,83,-1,83,82,84,-1,83,84,85,-1,85,84,86,-1,85,86,87,-1,87,86,88,-1,87,88,89,-1,89,88,90,-1,89,90,91,-1,91,90,92,-1,91,92,93,-1,93,92,94,-1,93,94,95,-1,95,94,96,-1,95,96,97,-1,97,96,98,-1,97,98,99,-1,99,98,100,-1,99,100,101,-1,101,100,102,-1,101,102,103,-1,103,102,104,-1,103,104,105,-1,105,104,106,-1,105,106,107,-1,107,106,108,-1,107,108,109,-1,109,108,110,-1,109,110,111,-1,111,110,112,-1,111,112,113,-1,113,112,114,-1,113,114,115,-1,115,114,116,-1,115,116,117,-1,117,116,118,-1,117,118,119,-1,119,118,120,-1,119,120,121,-1,121,120,122,-1,121,122,123,-1,124,123,125,-1,125,123,122,-1,126,127,128,-1,128,127,129,-1,128,129,130,-1,130,129,124,-1,130,124,125,-1,127,126,131,-1,127,131,132,-1,131,133,132,-1,132,133,134,-1,132,134,135,-1,135,134,136,-1,135,136,137,-1,137,136,138,-1,137,138,139,-1,139,138,140,-1,139,140,141,-1,141,140,142,-1,141,142,143,-1,142,144,143,-1,143,144,145,-1,143,145,146,-1,146,145,147,-1,146,147,148,-1,148,147,149,-1,148,149,150,-1,150,149,151,-1,150,151,152,-1,151,153,152,-1,152,153,154,-1,152,154,155,-1,155,154,156,-1,155,156,157,-1,69,71,158,-1,157,156,159,-1,157,159,160,-1,160,159,161,-1,160,161,162,-1,162,161,163,-1,162,163,158,-1,158,163,164,-1,158,164,69,-1,139,109,137,-1,137,109,111,-1,137,111,135,-1,148,101,146,-1,146,101,103,-1,146,103,143,-1,143,103,141,-1,141,103,105,-1,141,105,139,-1,139,105,107,-1,139,107,109,-1,135,111,132,-1,132,111,113,-1,132,113,127,-1,77,78,75,-1,75,78,81,-1,75,81,72,-1,72,81,83,-1,72,83,71,-1,71,83,85,-1,71,85,158,-1,158,85,87,-1,158,87,162,-1,162,87,89,-1,162,89,160,-1,160,89,91,-1,160,91,157,-1,157,91,93,-1,157,93,155,-1,155,93,95,-1,155,95,152,-1,152,95,150,-1,150,95,97,-1,150,97,148,-1,148,97,99,-1,148,99,101,-1,113,115,127,-1,127,115,117,-1,127,117,129,-1,129,117,119,-1,129,119,124,-1,124,119,121,-1,124,121,123,-1,165,166,167,-1,167,166,168,-1,169,170,171,-1,171,170,165,-1,171,165,167,-1,172,170,173,-1,173,170,169,-1,172,173,174,-1,174,173,175,-1,174,175,176,-1,177,174,178,-1,178,174,176,-1,179,180,181,-1,181,180,177,-1,181,177,178,-1,182,180,183,-1,183,180,179,-1,182,183,184,-1,184,183,185,-1,184,185,186,-1,187,184,188,-1,188,184,186,-1,189,190,191,-1,191,190,187,-1,191,187,188,-1,192,190,193,-1,193,190,189,-1,192,193,166,-1,166,193,194,-1,166,194,168,-1,192,166,165,-1,165,170,192,-1,192,170,172,-1,192,172,190,-1,184,187,182,-1,182,187,190,-1,182,190,180,-1,180,190,172,-1,180,172,177,-1,177,172,174,-1,195,196,197,-1,197,196,198,-1,197,198,199,-1,199,198,200,-1,199,200,201,-1,201,200,202,-1,201,202,203,-1,203,202,204,-1,203,204,205,-1,205,204,206,-1,205,206,207,-1,206,208,207,-1,207,208,209,-1,207,209,210,-1,210,209,211,-1,210,211,212,-1,212,211,213,-1,212,213,214,-1,214,213,215,-1,214,215,216,-1,216,215,217,-1,216,217,218,-1,218,217,219,-1,218,219,220,-1,220,219,221,-1,220,221,222,-1,222,221,223,-1,222,223,224,-1,224,223,225,-1,224,225,226,-1,226,225,227,-1,226,227,228,-1,228,227,229,-1,228,229,195,-1,195,229,230,-1,195,230,196,-1,201,203,231,-1,231,203,232,-1,233,195,197,-1,201,231,234,-1,201,234,199,-1,199,234,235,-1,199,235,197,-1,197,235,236,-1,197,236,233,-1,195,233,237,-1,195,237,228,-1,228,237,238,-1,228,238,226,-1,226,238,239,-1,226,239,224,-1,224,239,240,-1,224,240,222,-1,222,240,241,-1,222,241,220,-1,220,241,242,-1,220,242,218,-1,218,242,243,-1,218,243,216,-1,216,243,244,-1,216,244,214,-1,245,207,210,-1,214,244,246,-1,214,246,212,-1,212,246,247,-1,212,247,210,-1,210,247,248,-1,210,248,245,-1,205,207,249,-1,249,207,245,-1,203,205,232,-1,232,205,249,-1,208,206,250,-1,250,206,251,-1,206,204,251,-1,251,204,252,-1,204,202,252,-1,252,202,253,-1,230,254,255,-1,230,255,196,-1,196,255,256,-1,196,256,198,-1,198,256,257,-1,198,257,200,-1,200,257,253,-1,200,253,202,-1,223,258,259,-1,223,259,225,-1,225,259,260,-1,225,260,227,-1,227,260,261,-1,227,261,229,-1,229,261,254,-1,229,254,230,-1,215,262,263,-1,215,263,217,-1,217,263,264,-1,217,264,219,-1,219,264,265,-1,219,265,221,-1,221,265,258,-1,221,258,223,-1,208,250,266,-1,208,266,209,-1,209,266,267,-1,209,267,211,-1,211,267,268,-1,211,268,213,-1,213,268,262,-1,213,262,215,-1,
        ]
    }
}
Shape{
    appearance Appearance {
        material  Material 	{
            diffuseColor 0.20784313725490197 0.20784313725490197 0.20784313725490197
            specularColor 0.01568627450980392 0.01568627450980392 0.01568627450980392
            ambientIntensity 0.298
            transparency 0.0
            shininess 0.5
        }
    }
    geometry IndexedFaceSet {
        ccw TRUE
        solid FALSE
        coord DEF co Coordinate {
            point [
                0.4842 0.5268 0.2953, 0.4859 0.528 0.2953, 0.4787 0.5461 0.2953, 0.4745 0.5461 0.2953, 0.4745 0.5256 0.2953, 0.4785 0.5461 0.2953, 0.4783 0.5256 0.2953, 0.482 0.526 0.2953, 0.4863 0.5283 0.2953, 0.4876 0.5299 0.2953, 0.4885 0.5319 0.2953, 0.4891 0.5361 0.2953, 0.4862 0.5436 0.2953, 0.4844 0.5448 0.2953, 0.4887 0.5394 0.2953, 0.488 0.5414 0.2953, 0.4869 0.5429 0.2953, 0.489 0.5343 0.2953, 0.4821 0.5457 0.2953
            ]
        }
        coordIndex [
            0,1,2,-1,3,4,5,-1,5,4,6,-1,5,6,2,-1,2,6,7,-1,2,7,0,-1,1,8,2,-1,2,8,9,-1,2,9,10,-1,11,12,13,-1,14,15,11,-1,11,15,16,-1,11,16,12,-1,10,17,2,-1,2,17,11,-1,2,11,18,-1,18,11,13,-1,
        ]
    }
}
Shape{
    appearance Appearance {
        material  Material 	{
            diffuseColor 0.8313725490196079 0.8313725490196079 0.8196078431372549
            specularColor 0.6666666666666666 0.6666666666666666 0.6549019607843137
            ambientIntensity 0.83
            transparency 0.0
            shininess 0.5
        }
    }
    geometry IndexedFaceSet {
        ccw TRUE
        solid FALSE
        coord DEF co Coordinate {
            point [
                0.5017 0.5328 0.2992, 0.5006 0.5298 0.2992, 0.5106 0.5328 0.2992, 0.5117 0.5298 0.2992, 0.5057 0.5439 0.2992, 0.5044 0.5492 0.2992, 0.4942 0.5225 0.2992, 0.498 0.5225 0.2992, 0.5059 0.5447 0.2992, 0.5061 0.5458 0.2992, 0.5081 0.5492 0.2992, 0.5062 0.5458 0.2992, 0.5064 0.5447 0.2992, 0.5066 0.5439 0.2992, 0.5182 0.5225 0.2992, 0.5144 0.5225 0.2992, 0.5081 0.5492 0.2953, 0.5182 0.5225 0.2953, 0.5044 0.5492 0.2953, 0.4942 0.5225 0.2953, 0.5019 0.5427 0.2953, 0.498 0.5225 0.2953, 0.5006 0.5298 0.2953, 0.5117 0.5298 0.2953, 0.5019 0.5298 0.2953, 0.5144 0.5225 0.2953, 0.5017 0.5328 0.2953, 0.5106 0.5328 0.2953, 0.5066 0.5439 0.2953, 0.5062 0.5458 0.2953, 0.5064 0.5447 0.2953, 0.5061 0.5458 0.2953, 0.5057 0.5439 0.2953, 0.5059 0.5447 0.2953
            ]
        }
        coordIndex [
            0,1,2,-1,2,1,3,-1,4,5,0,-1,0,5,6,-1,0,6,1,-1,1,6,7,-1,4,8,5,-1,5,8,9,-1,5,9,10,-1,10,9,11,-1,10,11,12,-1,12,13,10,-1,10,13,2,-1,10,2,14,-1,14,2,3,-1,14,3,15,-1,10,14,16,-1,16,14,17,-1,5,10,18,-1,18,10,16,-1,19,6,20,-1,20,6,5,-1,20,5,18,-1,7,6,21,-1,21,6,19,-1,1,7,22,-1,22,7,21,-1,23,3,24,-1,24,3,1,-1,24,1,22,-1,15,3,25,-1,25,3,23,-1,14,15,17,-1,17,15,25,-1,0,2,26,-1,26,2,27,-1,2,13,27,-1,27,13,28,-1,11,29,30,-1,11,30,12,-1,12,30,28,-1,12,28,13,-1,11,9,29,-1,29,9,31,-1,4,32,33,-1,4,33,8,-1,8,33,31,-1,8,31,9,-1,4,0,32,-1,32,0,26,-1,
        ]
    }
}
Shape{
    appearance Appearance {
        material  Material 	{
            diffuseColor 0.20784313725490197 0.20784313725490197 0.20784313725490197
            specularColor 0.01568627450980392 0.01568627450980392 0.01568627450980392
            ambientIntensity 0.298
            transparency 0.0
            shininess 0.5
        }
    }
    geometry IndexedFaceSet {
        ccw TRUE
        solid FALSE
        coord DEF co Coordinate {
            point [
                0.5062 0.5458 0.2953, 0.5061 0.5458 0.2953, 0.5064 0.5447 0.2953, 0.5059 0.5447 0.2953, 0.5066 0.5439 0.2953, 0.5057 0.5439 0.2953, 0.5106 0.5328 0.2953, 0.5017 0.5328 0.2953
            ]
        }
        coordIndex [
            0,1,2,-1,2,1,3,-1,2,3,4,-1,4,3,5,-1,4,5,6,-1,6,5,7,-1,
        ]
    }
}
Shape{
    appearance Appearance {
        material  Material 	{
            diffuseColor 0.8313725490196079 0.8313725490196079 0.8196078431372549
            specularColor 0.6666666666666666 0.6666666666666666 0.6549019607843137
            ambientIntensity 0.83
            transparency 0.0
            shininess 0.5
        }
    }
    geometry IndexedFaceSet {
        ccw TRUE
        solid FALSE
        coord DEF co Coordinate {
            point [
                0.4255 0.4832 0.2992, 0.4255 0.4802 0.2992, 0.4255 0.4832 0.2953, 0.4255 0.4802 0.2953, 0.4146 0.4832 0.2992, 0.4146 0.4832 0.2953, 0.4146 0.4922 0.2992, 0.4146 0.4922 0.2953, 0.4241 0.4922 0.2992, 0.4241 0.4922 0.2953, 0.4241 0.4952 0.2992, 0.4241 0.4952 0.2953, 0.4146 0.4952 0.2992, 0.4146 0.4952 0.2953, 0.4146 0.5038 0.2992, 0.4146 0.5038 0.2953, 0.4249 0.5038 0.2992, 0.4249 0.5038 0.2953, 0.4249 0.5069 0.2992, 0.4249 0.5069 0.2953, 0.4111 0.5069 0.2992, 0.4111 0.5069 0.2953, 0.4111 0.4802 0.2992, 0.4111 0.4802 0.2953, 0.4406 0.4802 0.2992, 0.444 0.4802 0.2992, 0.4406 0.4831 0.2992, 0.444 0.4924 0.2992, 0.4406 0.4923 0.2992, 0.4334 0.4883 0.2992, 0.4341 0.4887 0.2992, 0.4406 0.4831 0.2992, 0.4388 0.4836 0.2992, 0.44 0.4823 0.2992, 0.4378 0.483 0.2992, 0.4362 0.4891 0.2992, 0.4406 0.4897 0.2992, 0.4406 0.4879 0.2992, 0.4406 0.4877 0.2992, 0.4404 0.4862 0.2992, 0.4399 0.485 0.2992, 0.4392 0.484 0.2992, 0.4405 0.4938 0.2992, 0.4437 0.4949 0.2992, 0.4402 0.495 0.2992, 0.4432 0.4965 0.2992, 0.4398 0.4956 0.2992, 0.4425 0.4976 0.2992, 0.4393 0.4962 0.2992, 0.4416 0.4984 0.2992, 0.4387 0.4966 0.2992, 0.4405 0.4991 0.2992, 0.4379 0.4968 0.2992, 0.4391 0.4995 0.2992, 0.4368 0.497 0.2992, 0.4371 0.4997 0.2992, 0.4346 0.4967 0.2992, 0.4337 0.4993 0.2992, 0.4326 0.496 0.2992, 0.4312 0.4983 0.2992, 0.4305 0.4946 0.2992, 0.4305 0.4979 0.2992, 0.4327 0.4836 0.2992, 0.4303 0.4812 0.2992, 0.433 0.4833 0.2992, 0.4314 0.4804 0.2992, 0.4337 0.4829 0.2992, 0.4327 0.4799 0.2992, 0.4345 0.4826 0.2992, 0.4347 0.4797 0.2992, 0.4356 0.4825 0.2992, 0.4365 0.4799 0.2992, 0.4368 0.4826 0.2992, 0.4378 0.4804 0.2992, 0.439 0.4812 0.2992, 0.4321 0.4861 0.2992, 0.4287 0.4857 0.2992, 0.4321 0.4855 0.2992, 0.4287 0.4853 0.2992, 0.4321 0.4848 0.2992, 0.4288 0.4837 0.2992, 0.4324 0.4842 0.2992, 0.4292 0.4826 0.2992, 0.4299 0.4816 0.2992, 0.435 0.4915 0.2992, 0.4325 0.4909 0.2992, 0.433 0.488 0.2992, 0.4311 0.4902 0.2992, 0.4326 0.4875 0.2992, 0.43 0.4893 0.2992, 0.4323 0.4868 0.2992, 0.4294 0.4883 0.2992, 0.4289 0.4872 0.2992, 0.4371 0.4997 0.2953, 0.4337 0.4993 0.2953, 0.4312 0.4983 0.2953, 0.4305 0.4979 0.2953, 0.4305 0.4946 0.2953, 0.4326 0.496 0.2953, 0.4346 0.4967 0.2953, 0.4368 0.497 0.2953, 0.4379 0.4968 0.2953, 0.4387 0.4966 0.2953, 0.4393 0.4962 0.2953, 0.4398 0.4956 0.2953, 0.4402 0.495 0.2953, 0.4405 0.4938 0.2953, 0.4406 0.4923 0.2953, 0.435 0.4915 0.2953, 0.4325 0.4909 0.2953, 0.4311 0.4902 0.2953, 0.43 0.4893 0.2953, 0.4294 0.4883 0.2953, 0.4289 0.4872 0.2953, 0.4287 0.4857 0.2953, 0.4287 0.4853 0.2953, 0.4288 0.4837 0.2953, 0.4292 0.4826 0.2953, 0.4299 0.4816 0.2953, 0.4303 0.4812 0.2953, 0.4347 0.4797 0.2953, 0.4328 0.4799 0.2953, 0.4327 0.4799 0.2953, 0.4314 0.4804 0.2953, 0.4365 0.4799 0.2953, 0.4365 0.4799 0.2953, 0.4378 0.4804 0.2953, 0.439 0.4812 0.2953, 0.44 0.4823 0.2953, 0.4406 0.4831 0.2953, 0.4406 0.4831 0.2953, 0.4406 0.4802 0.2953, 0.444 0.4802 0.2953, 0.444 0.4924 0.2953, 0.4437 0.4949 0.2953, 0.4432 0.4965 0.2953, 0.4425 0.4976 0.2953, 0.4416 0.4984 0.2953, 0.4405 0.4991 0.2953, 0.4391 0.4995 0.2953, 0.433 0.488 0.2953, 0.4334 0.4883 0.2953, 0.4341 0.4887 0.2953, 0.4362 0.4891 0.2953, 0.4321 0.4855 0.2953, 0.4321 0.4861 0.2953, 0.4323 0.4868 0.2953, 0.4326 0.4875 0.2953, 0.433 0.4833 0.2953, 0.4327 0.4836 0.2953, 0.4324 0.4842 0.2953, 0.4321 0.4848 0.2953, 0.4356 0.4825 0.2953, 0.4345 0.4826 0.2953, 0.4337 0.4829 0.2953, 0.4392 0.484 0.2953, 0.4388 0.4836 0.2953, 0.4378 0.483 0.2953, 0.4368 0.4826 0.2953, 0.4406 0.4879 0.2953, 0.4406 0.4877 0.2953, 0.4404 0.4862 0.2953, 0.4399 0.485 0.2953, 0.4406 0.4897 0.2953
            ]
        }
        coordIndex [
            0,1,2,-1,2,1,3,-1,4,0,5,-1,5,0,2,-1,6,4,7,-1,7,4,5,-1,8,6,9,-1,9,6,7,-1,10,8,11,-1,11,8,9,-1,12,10,13,-1,13,10,11,-1,14,12,15,-1,15,12,13,-1,16,14,17,-1,17,14,15,-1,18,16,19,-1,19,16,17,-1,20,18,21,-1,21,18,19,-1,22,20,23,-1,23,20,21,-1,1,22,3,-1,3,22,23,-1,22,1,0,-1,0,4,22,-1,22,4,6,-1,22,6,20,-1,16,18,14,-1,14,18,20,-1,14,20,12,-1,12,20,6,-1,12,6,10,-1,10,6,8,-1,24,25,26,-1,26,25,27,-1,28,29,30,-1,31,32,33,-1,33,32,34,-1,35,36,27,-1,27,36,37,-1,37,38,27,-1,27,38,39,-1,27,39,26,-1,26,39,40,-1,26,40,31,-1,31,40,41,-1,31,41,32,-1,30,35,28,-1,28,35,27,-1,28,27,42,-1,42,27,43,-1,42,43,44,-1,44,43,45,-1,44,45,46,-1,46,45,47,-1,46,47,48,-1,48,47,49,-1,48,49,50,-1,50,49,51,-1,50,51,52,-1,52,51,53,-1,52,53,54,-1,54,53,55,-1,54,55,56,-1,56,55,57,-1,56,57,58,-1,58,57,59,-1,58,59,60,-1,60,59,61,-1,62,63,64,-1,64,63,65,-1,64,65,66,-1,66,65,67,-1,66,67,68,-1,68,67,69,-1,68,69,70,-1,70,69,71,-1,70,71,72,-1,72,71,73,-1,72,73,34,-1,34,73,74,-1,34,74,33,-1,75,76,77,-1,77,76,78,-1,77,78,79,-1,79,78,80,-1,79,80,81,-1,81,80,82,-1,81,82,62,-1,62,82,83,-1,62,83,63,-1,28,84,29,-1,29,84,85,-1,29,85,86,-1,86,85,87,-1,86,87,88,-1,88,87,89,-1,88,89,90,-1,90,89,91,-1,90,91,75,-1,75,91,92,-1,75,92,76,-1,55,93,94,-1,55,94,57,-1,57,94,95,-1,57,95,59,-1,59,95,96,-1,59,96,61,-1,60,61,97,-1,97,61,96,-1,60,97,98,-1,60,98,58,-1,58,98,99,-1,58,99,56,-1,56,99,100,-1,56,100,54,-1,54,100,101,-1,54,101,52,-1,52,101,102,-1,52,102,50,-1,50,102,103,-1,50,103,48,-1,48,103,104,-1,48,104,46,-1,46,104,105,-1,46,105,44,-1,44,105,106,-1,44,106,42,-1,42,106,107,-1,42,107,28,-1,84,28,108,-1,108,28,107,-1,84,108,109,-1,84,109,85,-1,85,109,110,-1,85,110,87,-1,87,110,111,-1,87,111,89,-1,89,111,112,-1,89,112,91,-1,91,112,113,-1,91,113,92,-1,92,113,114,-1,92,114,76,-1,76,114,115,-1,76,115,78,-1,78,115,116,-1,78,116,80,-1,80,116,117,-1,80,117,82,-1,82,117,118,-1,82,118,83,-1,83,118,119,-1,83,119,63,-1,120,69,121,-1,121,69,67,-1,121,67,122,-1,122,67,65,-1,122,65,123,-1,123,65,63,-1,123,63,119,-1,69,120,124,-1,69,124,71,-1,71,124,125,-1,71,125,73,-1,125,126,73,-1,73,126,127,-1,73,127,74,-1,74,127,128,-1,74,128,33,-1,33,128,129,-1,33,129,31,-1,26,31,130,-1,130,31,129,-1,24,26,131,-1,131,26,130,-1,25,24,132,-1,132,24,131,-1,27,25,133,-1,133,25,132,-1,27,133,134,-1,27,134,43,-1,43,134,135,-1,43,135,45,-1,45,135,136,-1,45,136,47,-1,47,136,137,-1,47,137,49,-1,49,137,138,-1,49,138,51,-1,51,138,139,-1,51,139,53,-1,53,139,93,-1,53,93,55,-1,86,140,141,-1,86,141,29,-1,29,141,142,-1,29,142,30,-1,30,142,143,-1,30,143,35,-1,77,144,145,-1,77,145,75,-1,75,145,146,-1,75,146,90,-1,90,146,147,-1,90,147,88,-1,88,147,140,-1,88,140,86,-1,64,148,149,-1,64,149,62,-1,62,149,150,-1,62,150,81,-1,81,150,151,-1,81,151,79,-1,79,151,144,-1,79,144,77,-1,70,152,153,-1,70,153,68,-1,68,153,154,-1,68,154,66,-1,66,154,148,-1,66,148,64,-1,41,155,156,-1,41,156,32,-1,32,156,157,-1,32,157,34,-1,34,157,158,-1,34,158,72,-1,72,158,152,-1,72,152,70,-1,37,159,160,-1,37,160,38,-1,38,160,161,-1,38,161,39,-1,39,161,162,-1,39,162,40,-1,40,162,155,-1,40,155,41,-1,37,36,159,-1,159,36,163,-1,36,35,163,-1,163,35,143,-1,
        ]
    }
}
Shape{
    appearance Appearance {
        material  Material 	{
            diffuseColor 0.20784313725490197 0.20784313725490197 0.20784313725490197
            specularColor 0.01568627450980392 0.01568627450980392 0.01568627450980392
            ambientIntensity 0.298
            transparency 0.0
            shininess 0.5
        }
    }
    geometry IndexedFaceSet {
        ccw TRUE
        solid FALSE
        coord DEF co Coordinate {
            point [
                0.4406 0.4877 0.2953, 0.4406 0.4879 0.2953, 0.433 0.488 0.2953, 0.4406 0.4897 0.2953, 0.4362 0.4891 0.2953, 0.4341 0.4887 0.2953, 0.4334 0.4883 0.2953, 0.4404 0.4862 0.2953, 0.4326 0.4875 0.2953, 0.4399 0.485 0.2953, 0.4327 0.4836 0.2953, 0.433 0.4833 0.2953, 0.4388 0.4836 0.2953, 0.4324 0.4842 0.2953, 0.4378 0.483 0.2953, 0.4368 0.4826 0.2953, 0.4356 0.4825 0.2953, 0.4323 0.4868 0.2953, 0.4321 0.4861 0.2953, 0.4392 0.484 0.2953, 0.4321 0.4855 0.2953, 0.4321 0.4848 0.2953, 0.4337 0.4829 0.2953, 0.4345 0.4826 0.2953
            ]
        }
        coordIndex [
            0,1,2,-1,1,3,4,-1,4,5,1,-1,1,5,6,-1,1,6,2,-1,0,2,7,-1,7,2,8,-1,7,8,9,-1,10,11,12,-1,10,12,13,-1,14,12,15,-1,15,12,16,-1,8,17,9,-1,9,17,18,-1,9,18,19,-1,19,18,20,-1,19,20,12,-1,12,20,21,-1,12,21,13,-1,11,22,12,-1,12,22,23,-1,12,23,16,-1,
        ]
    }
}
Shape{
    appearance Appearance {
        material  Material 	{
            diffuseColor 0.8313725490196079 0.8313725490196079 0.8196078431372549
            specularColor 0.6666666666666666 0.6666666666666666 0.6549019607843137
            ambientIntensity 0.83
            transparency 0.0
            shininess 0.5
        }
    }
    geometry IndexedFaceSet {
        ccw TRUE
        solid FALSE
        coord DEF co Coordinate {
            point [
                0.4485 0.4843 0.2953, 0.4485 0.4843 0.2992, 0.4498 0.4835 0.2992, 0.454 0.4824 0.2992, 0.454 0.4824 0.2953, 0.4519 0.4827 0.2953, 0.4519 0.4827 0.2992, 0.4501 0.4834 0.2953, 0.4498 0.4835 0.2953, 0.4485 0.4808 0.2992, 0.4485 0.4808 0.2953, 0.4501 0.4803 0.2953, 0.4506 0.4801 0.2992, 0.4537 0.4797 0.2953, 0.4537 0.4797 0.2992, 0.4517 0.4799 0.2953, 0.4506 0.4801 0.2953, 0.456 0.4799 0.2953, 0.4563 0.48 0.2992, 0.4563 0.48 0.2953, 0.4581 0.4806 0.2953, 0.4581 0.4806 0.2992, 0.4592 0.4812 0.2953, 0.4592 0.4812 0.2992, 0.4602 0.4821 0.2953, 0.4602 0.4821 0.2992, 0.4608 0.483 0.2953, 0.4608 0.483 0.2992, 0.4612 0.484 0.2953, 0.4612 0.484 0.2992, 0.4614 0.4854 0.2953, 0.4614 0.4854 0.2992, 0.4613 0.4866 0.2953, 0.4613 0.4866 0.2992, 0.4609 0.4876 0.2953, 0.4609 0.4876 0.2992, 0.4603 0.4885 0.2953, 0.4603 0.4885 0.2992, 0.4595 0.4892 0.2953, 0.4595 0.4892 0.2992, 0.4573 0.4905 0.2953, 0.4573 0.4905 0.2992, 0.456 0.491 0.2953, 0.456 0.491 0.2992, 0.4539 0.4919 0.2953, 0.4539 0.4919 0.2992, 0.4527 0.4926 0.2953, 0.4527 0.4926 0.2992, 0.4524 0.493 0.2953, 0.4524 0.493 0.2992, 0.4521 0.4934 0.2953, 0.4521 0.4934 0.2992, 0.452 0.4939 0.2953, 0.452 0.4939 0.2992, 0.452 0.4944 0.2953, 0.452 0.4944 0.2992, 0.452 0.4949 0.2953, 0.452 0.4949 0.2992, 0.4522 0.4954 0.2953, 0.4522 0.4954 0.2992, 0.4525 0.4958 0.2953, 0.4525 0.4958 0.2992, 0.453 0.4962 0.2953, 0.453 0.4962 0.2992, 0.4538 0.4966 0.2953, 0.4538 0.4966 0.2992, 0.4546 0.4969 0.2953, 0.4546 0.4969 0.2992, 0.4556 0.497 0.2953, 0.4556 0.497 0.2992, 0.4578 0.4967 0.2953, 0.4578 0.4967 0.2992, 0.4597 0.496 0.2953, 0.4597 0.496 0.2992, 0.4605 0.4956 0.2953, 0.4605 0.4956 0.2992, 0.4605 0.4988 0.2992, 0.4605 0.4988 0.2953, 0.4583 0.4995 0.2953, 0.4583 0.4995 0.2992, 0.456 0.4997 0.2953, 0.456 0.4997 0.2992, 0.4536 0.4994 0.2953, 0.4536 0.4994 0.2992, 0.4517 0.4988 0.2953, 0.4517 0.4988 0.2992, 0.4507 0.4982 0.2953, 0.4507 0.4982 0.2992, 0.4501 0.4976 0.2953, 0.4497 0.4973 0.2992, 0.4497 0.4973 0.2953, 0.4491 0.4964 0.2953, 0.4491 0.4964 0.2992, 0.4487 0.4953 0.2953, 0.4487 0.4953 0.2992, 0.4485 0.4941 0.2953, 0.4485 0.4941 0.2992, 0.4487 0.4928 0.2953, 0.4487 0.4928 0.2992, 0.4491 0.4918 0.2953, 0.4491 0.4918 0.2992, 0.4495 0.4911 0.2953, 0.4495 0.4911 0.2992, 0.4536 0.4885 0.2953, 0.4536 0.4885 0.2992, 0.4516 0.4895 0.2992, 0.45 0.4905 0.2953, 0.45 0.4905 0.2992, 0.4501 0.4905 0.2953, 0.4516 0.4895 0.2953, 0.4558 0.4876 0.2953, 0.4558 0.4876 0.2992, 0.4571 0.4868 0.2953, 0.4571 0.4868 0.2992, 0.4575 0.4864 0.2953, 0.4575 0.4864 0.2992, 0.4578 0.486 0.2953, 0.4578 0.486 0.2992, 0.4579 0.4854 0.2953, 0.4579 0.4854 0.2992, 0.458 0.485 0.2953, 0.458 0.485 0.2992, 0.4579 0.4844 0.2953, 0.4579 0.4844 0.2992, 0.4577 0.4839 0.2953, 0.4577 0.4839 0.2992, 0.4574 0.4835 0.2953, 0.4574 0.4835 0.2992, 0.457 0.4831 0.2953, 0.457 0.4831 0.2992, 0.4567 0.483 0.2953, 0.4567 0.483 0.2992, 0.4559 0.4826 0.2953, 0.4559 0.4826 0.2992, 0.4542 0.4824 0.2953, 0.4542 0.4824 0.2992, 0.478 0.4992 0.2992, 0.4814 0.4992 0.2992, 0.478 0.4992 0.2953, 0.4814 0.4992 0.2953, 0.4728 0.4849 0.2992, 0.4728 0.4849 0.2953, 0.4725 0.484 0.2953, 0.4725 0.484 0.2992, 0.4724 0.4833 0.2953, 0.4724 0.4833 0.2992, 0.4723 0.4833 0.2992, 0.4723 0.4833 0.2953, 0.4719 0.4849 0.2992, 0.4719 0.4849 0.2953, 0.4669 0.4992 0.2992, 0.4685 0.4946 0.2953, 0.4669 0.4992 0.2953, 0.4631 0.4992 0.2992, 0.4631 0.4992 0.2953, 0.4706 0.4802 0.2992, 0.4685 0.4856 0.2953, 0.4706 0.4802 0.2953, 0.4691 0.4767 0.2953, 0.4691 0.4767 0.2992, 0.4705 0.4799 0.2953, 0.4685 0.4755 0.2953, 0.4685 0.4755 0.2992, 0.4679 0.4748 0.2953, 0.4679 0.4748 0.2992, 0.4673 0.4744 0.2953, 0.4673 0.4744 0.2992, 0.4665 0.4742 0.2953, 0.4665 0.4742 0.2992, 0.4657 0.4741 0.2953, 0.4657 0.4741 0.2992, 0.4645 0.4742 0.2953, 0.4645 0.4742 0.2992, 0.4638 0.4744 0.2953, 0.4638 0.4744 0.2992, 0.4638 0.4715 0.2953, 0.4638 0.4715 0.2992, 0.4638 0.4719 0.2953, 0.4652 0.4712 0.2953, 0.4652 0.4712 0.2992, 0.466 0.4712 0.2953, 0.466 0.4712 0.2992, 0.4687 0.4719 0.2953, 0.4698 0.4727 0.2992, 0.4686 0.4718 0.2953, 0.4686 0.4718 0.2992, 0.4685 0.4718 0.2953, 0.4673 0.4713 0.2992, 0.4673 0.4713 0.2953, 0.4698 0.4727 0.2953, 0.47 0.4729 0.2953, 0.47 0.4729 0.2992, 0.4713 0.4743 0.2953, 0.4713 0.4743 0.2992, 0.4728 0.4773 0.2953, 0.4728 0.4773 0.2992, 0.4738 0.4799 0.2953, 0.4994 0.4832 0.2992, 0.4994 0.4802 0.2992, 0.4994 0.4832 0.2953, 0.4994 0.4802 0.2953, 0.4885 0.4832 0.2992, 0.4935 0.4832 0.2953, 0.4885 0.4832 0.2953, 0.4885 0.4922 0.2992, 0.4885 0.4922 0.2953, 0.498 0.4922 0.2992, 0.4935 0.4922 0.2953, 0.498 0.4922 0.2953, 0.498 0.4952 0.2992, 0.498 0.4952 0.2953, 0.4885 0.4952 0.2953, 0.4885 0.4952 0.2992, 0.4935 0.4952 0.2953, 0.4885 0.5038 0.2992, 0.4885 0.5038 0.2953, 0.4988 0.5038 0.2953, 0.4988 0.5038 0.2992, 0.4935 0.5038 0.2953, 0.4988 0.5069 0.2992, 0.4988 0.5069 0.2953, 0.485 0.5069 0.2953, 0.485 0.5069 0.2992, 0.4935 0.5069 0.2953, 0.485 0.4802 0.2992, 0.485 0.4802 0.2953, 0.4935 0.4802 0.2953, 0.5221 0.4839 0.2992, 0.5194 0.4857 0.2992, 0.5193 0.4819 0.2992, 0.5176 0.4845 0.2992, 0.5163 0.4807 0.2992, 0.5154 0.4836 0.2992, 0.5118 0.4802 0.2992, 0.5118 0.4832 0.2992, 0.5044 0.4802 0.2992, 0.5079 0.4832 0.2992, 0.5044 0.5069 0.2992, 0.5079 0.5038 0.2992, 0.512 0.5069 0.2992, 0.5119 0.5038 0.2992, 0.5121 0.5038 0.2992, 0.5161 0.5064 0.2992, 0.5155 0.5034 0.2992, 0.5193 0.5052 0.2992, 0.5178 0.5025 0.2992, 0.5221 0.5033 0.2992, 0.5196 0.5013 0.2992, 0.5231 0.5024 0.2992, 0.5204 0.5005 0.2992, 0.5247 0.5001 0.2992, 0.5214 0.499 0.2992, 0.5257 0.4975 0.2992, 0.5221 0.4971 0.2992, 0.5262 0.4939 0.2992, 0.5225 0.4938 0.2992, 0.5261 0.4922 0.2992, 0.5224 0.492 0.2992, 0.5254 0.489 0.2992, 0.5219 0.4896 0.2992, 0.5241 0.4863 0.2992, 0.521 0.4876 0.2992, 0.5197 0.486 0.2992, 0.5118 0.4802 0.2953, 0.5044 0.4802 0.2953, 0.5163 0.4807 0.2953, 0.5193 0.4819 0.2953, 0.5221 0.4839 0.2953, 0.5241 0.4863 0.2953, 0.5254 0.489 0.2953, 0.5261 0.4922 0.2953, 0.5262 0.4939 0.2953, 0.5257 0.4975 0.2953, 0.5247 0.5001 0.2953, 0.5231 0.5024 0.2953, 0.5221 0.5033 0.2953, 0.5193 0.5052 0.2953, 0.5161 0.5064 0.2953, 0.512 0.5069 0.2953, 0.5044 0.5069 0.2953, 0.5119 0.5038 0.2953, 0.5079 0.5038 0.2953, 0.5079 0.4832 0.2953, 0.5118 0.4832 0.2953, 0.5197 0.486 0.2953, 0.5194 0.4857 0.2953, 0.5176 0.4845 0.2953, 0.5154 0.4836 0.2953, 0.5225 0.4938 0.2953, 0.5224 0.492 0.2953, 0.5219 0.4896 0.2953, 0.521 0.4876 0.2953, 0.5196 0.5013 0.2953, 0.5204 0.5005 0.2953, 0.5214 0.499 0.2953, 0.5221 0.4971 0.2953, 0.5121 0.5038 0.2953, 0.5155 0.5034 0.2953, 0.5178 0.5025 0.2953
            ]
        }
        coordIndex [
            0,1,2,-1,3,4,5,-1,3,5,6,-1,6,5,7,-1,6,7,2,-1,2,7,8,-1,2,8,0,-1,9,1,10,-1,10,1,0,-1,10,11,9,-1,9,11,12,-1,13,14,15,-1,15,14,12,-1,15,12,16,-1,16,12,11,-1,13,17,14,-1,14,17,18,-1,17,19,18,-1,18,19,20,-1,18,20,21,-1,21,20,22,-1,21,22,23,-1,23,22,24,-1,23,24,25,-1,25,24,26,-1,25,26,27,-1,27,26,28,-1,27,28,29,-1,29,28,30,-1,29,30,31,-1,31,30,32,-1,31,32,33,-1,33,32,34,-1,33,34,35,-1,35,34,36,-1,35,36,37,-1,37,36,38,-1,37,38,39,-1,39,38,40,-1,39,40,41,-1,41,40,42,-1,41,42,43,-1,43,42,44,-1,43,44,45,-1,45,44,46,-1,45,46,47,-1,47,46,48,-1,47,48,49,-1,49,48,50,-1,49,50,51,-1,51,50,52,-1,51,52,53,-1,53,52,54,-1,53,54,55,-1,55,54,56,-1,55,56,57,-1,57,56,58,-1,57,58,59,-1,59,58,60,-1,59,60,61,-1,61,60,62,-1,61,62,63,-1,63,62,64,-1,63,64,65,-1,65,64,66,-1,65,66,67,-1,67,66,68,-1,67,68,69,-1,69,68,70,-1,69,70,71,-1,71,70,72,-1,71,72,73,-1,73,72,74,-1,73,74,75,-1,76,75,77,-1,77,75,74,-1,76,77,78,-1,76,78,79,-1,79,78,80,-1,79,80,81,-1,81,80,82,-1,81,82,83,-1,83,82,84,-1,83,84,85,-1,85,84,86,-1,85,86,87,-1,86,88,87,-1,87,88,89,-1,88,90,89,-1,89,90,91,-1,89,91,92,-1,92,91,93,-1,92,93,94,-1,94,93,95,-1,94,95,96,-1,96,95,97,-1,96,97,98,-1,98,97,99,-1,98,99,100,-1,100,99,101,-1,100,101,102,-1,103,104,105,-1,102,101,106,-1,102,106,107,-1,107,106,108,-1,107,108,105,-1,105,108,109,-1,105,109,103,-1,104,103,110,-1,104,110,111,-1,111,110,112,-1,111,112,113,-1,113,112,114,-1,113,114,115,-1,115,114,116,-1,115,116,117,-1,117,116,118,-1,117,118,119,-1,119,118,120,-1,119,120,121,-1,121,120,122,-1,121,122,123,-1,123,122,124,-1,123,124,125,-1,125,124,126,-1,125,126,127,-1,127,126,128,-1,127,128,129,-1,129,128,130,-1,129,130,131,-1,131,130,132,-1,131,132,133,-1,133,132,134,-1,133,134,135,-1,135,134,4,-1,135,4,3,-1,61,63,85,-1,85,63,83,-1,45,104,43,-1,43,104,111,-1,43,111,41,-1,14,3,12,-1,12,3,6,-1,12,6,9,-1,9,6,2,-1,9,2,1,-1,63,65,83,-1,83,65,67,-1,83,67,81,-1,81,67,69,-1,81,69,79,-1,79,69,71,-1,79,71,76,-1,76,71,73,-1,76,73,75,-1,41,111,39,-1,39,111,113,-1,39,113,37,-1,37,113,115,-1,37,115,35,-1,35,115,117,-1,35,117,33,-1,33,117,119,-1,33,119,31,-1,31,119,121,-1,31,121,29,-1,29,121,123,-1,29,123,27,-1,27,123,125,-1,27,125,25,-1,25,125,127,-1,25,127,23,-1,23,127,129,-1,23,129,21,-1,21,129,131,-1,21,131,18,-1,18,131,133,-1,18,133,14,-1,14,133,135,-1,14,135,3,-1,85,87,61,-1,61,87,89,-1,61,89,59,-1,59,89,92,-1,59,92,57,-1,57,92,94,-1,57,94,55,-1,55,94,96,-1,55,96,53,-1,53,96,98,-1,53,98,51,-1,51,98,100,-1,51,100,49,-1,49,100,102,-1,49,102,47,-1,47,102,107,-1,47,107,45,-1,45,107,105,-1,45,105,104,-1,136,137,138,-1,138,137,139,-1,140,136,141,-1,141,136,138,-1,140,141,142,-1,140,142,143,-1,143,142,144,-1,143,144,145,-1,146,145,147,-1,147,145,144,-1,148,146,149,-1,149,146,147,-1,148,149,150,-1,150,149,151,-1,150,151,152,-1,153,150,154,-1,154,150,152,-1,153,154,155,-1,155,154,156,-1,155,156,157,-1,158,159,160,-1,160,159,155,-1,160,155,157,-1,159,158,161,-1,159,161,162,-1,162,161,163,-1,162,163,164,-1,164,163,165,-1,164,165,166,-1,166,165,167,-1,166,167,168,-1,168,167,169,-1,168,169,170,-1,170,169,171,-1,170,171,172,-1,172,171,173,-1,172,173,174,-1,175,176,177,-1,177,176,174,-1,177,174,173,-1,176,175,178,-1,176,178,179,-1,179,178,180,-1,179,180,181,-1,182,183,184,-1,184,183,185,-1,184,185,186,-1,186,185,187,-1,186,187,188,-1,188,187,181,-1,188,181,180,-1,182,189,183,-1,183,189,190,-1,183,190,191,-1,191,190,192,-1,191,192,193,-1,193,192,194,-1,193,194,195,-1,139,137,196,-1,196,137,195,-1,196,195,194,-1,143,145,195,-1,137,136,195,-1,195,136,140,-1,195,140,143,-1,150,153,148,-1,148,153,155,-1,148,155,146,-1,174,176,172,-1,172,176,179,-1,172,179,170,-1,170,179,181,-1,170,181,168,-1,168,181,187,-1,168,187,166,-1,166,187,185,-1,166,185,164,-1,145,146,195,-1,195,146,155,-1,195,155,193,-1,155,159,193,-1,193,159,162,-1,193,162,191,-1,191,162,164,-1,191,164,183,-1,183,164,185,-1,197,198,199,-1,199,198,200,-1,197,199,201,-1,201,199,202,-1,201,202,203,-1,204,201,205,-1,205,201,203,-1,204,205,206,-1,206,205,207,-1,206,207,208,-1,209,206,210,-1,210,206,208,-1,211,212,213,-1,213,212,209,-1,213,209,210,-1,214,212,215,-1,215,212,211,-1,216,217,218,-1,218,217,214,-1,218,214,215,-1,219,217,220,-1,220,217,216,-1,221,222,223,-1,223,222,219,-1,223,219,220,-1,224,222,225,-1,225,222,221,-1,224,225,198,-1,198,225,226,-1,198,226,200,-1,224,198,197,-1,197,201,224,-1,224,201,204,-1,224,204,222,-1,217,219,214,-1,214,219,222,-1,214,222,212,-1,212,222,204,-1,212,204,209,-1,209,204,206,-1,227,228,229,-1,229,228,230,-1,229,230,231,-1,231,230,232,-1,231,232,233,-1,233,232,234,-1,233,234,235,-1,235,234,236,-1,235,236,237,-1,237,236,238,-1,237,238,239,-1,238,240,239,-1,239,240,241,-1,239,241,242,-1,242,241,243,-1,242,243,244,-1,244,243,245,-1,244,245,246,-1,246,245,247,-1,246,247,248,-1,248,247,249,-1,248,249,250,-1,250,249,251,-1,250,251,252,-1,252,251,253,-1,252,253,254,-1,254,253,255,-1,254,255,256,-1,256,255,257,-1,256,257,258,-1,258,257,259,-1,258,259,260,-1,260,259,261,-1,260,261,227,-1,227,261,262,-1,227,262,228,-1,233,235,263,-1,263,235,264,-1,233,263,265,-1,233,265,231,-1,231,265,266,-1,231,266,229,-1,229,266,267,-1,229,267,227,-1,227,267,268,-1,227,268,260,-1,260,268,269,-1,260,269,258,-1,258,269,270,-1,258,270,256,-1,256,270,271,-1,256,271,254,-1,254,271,272,-1,254,272,252,-1,252,272,273,-1,252,273,250,-1,250,273,274,-1,250,274,248,-1,248,274,275,-1,248,275,246,-1,246,275,276,-1,246,276,244,-1,244,276,277,-1,244,277,242,-1,242,277,278,-1,242,278,239,-1,237,239,279,-1,279,239,278,-1,235,237,264,-1,264,237,279,-1,240,238,280,-1,280,238,281,-1,238,236,281,-1,281,236,282,-1,236,234,282,-1,282,234,283,-1,262,284,285,-1,262,285,228,-1,228,285,286,-1,228,286,230,-1,230,286,287,-1,230,287,232,-1,232,287,283,-1,232,283,234,-1,255,288,289,-1,255,289,257,-1,257,289,290,-1,257,290,259,-1,259,290,291,-1,259,291,261,-1,261,291,284,-1,261,284,262,-1,247,292,293,-1,247,293,249,-1,249,293,294,-1,249,294,251,-1,251,294,295,-1,251,295,253,-1,253,295,288,-1,253,288,255,-1,240,280,296,-1,240,296,241,-1,241,296,297,-1,241,297,243,-1,243,297,298,-1,243,298,245,-1,245,298,292,-1,245,292,247,-1,
        ]
    }
}
Shape{
    appearance Appearance {
        material  Material 	{
            diffuseColor 0.20784313725490197 0.20784313725490197 0.20784313725490197
            specularColor 0.01568627450980392 0.01568627450980392 0.01568627450980392
            ambientIntensity 0.298
            transparency 0.0
            shininess 0.5
        }
    }
    geometry IndexedFaceSet {
        ccw TRUE
        solid FALSE
        coord DEF co Coordinate {
            point [
                0.5176 0.4845 0.2953, 0.5194 0.4857 0.2953, 0.5121 0.5038 0.2953, 0.5079 0.5038 0.2953, 0.5079 0.4832 0.2953, 0.5119 0.5038 0.2953, 0.5118 0.4832 0.2953, 0.5154 0.4836 0.2953, 0.5197 0.486 0.2953, 0.521 0.4876 0.2953, 0.5219 0.4896 0.2953, 0.5225 0.4938 0.2953, 0.5196 0.5013 0.2953, 0.5178 0.5025 0.2953, 0.5221 0.4971 0.2953, 0.5214 0.499 0.2953, 0.5204 0.5005 0.2953, 0.5224 0.492 0.2953, 0.5155 0.5034 0.2953
            ]
        }
        coordIndex [
            0,1,2,-1,3,4,5,-1,5,4,6,-1,5,6,2,-1,2,6,7,-1,2,7,0,-1,1,8,2,-1,2,8,9,-1,2,9,10,-1,11,12,13,-1,14,15,11,-1,11,15,16,-1,11,16,12,-1,10,17,2,-1,2,17,11,-1,2,11,18,-1,18,11,13,-1,
        ]
    }
}
Shape{
    appearance Appearance {
        material  Material 	{
            diffuseColor 0.8313725490196079 0.8313725490196079 0.8196078431372549
            specularColor 0.6666666666666666 0.6666666666666666 0.6549019607843137
            ambientIntensity 0.83
            transparency 0.0
            shininess 0.5
        }
    }
    geometry IndexedFaceSet {
        ccw TRUE
        solid FALSE
        coord DEF co Coordinate {
            point [
                0.5351 0.4905 0.2992, 0.534 0.4875 0.2992, 0.5441 0.4905 0.2992, 0.5451 0.4875 0.2992, 0.5391 0.5016 0.2992, 0.5378 0.5069 0.2992, 0.5276 0.4802 0.2992, 0.5314 0.4802 0.2992, 0.5393 0.5024 0.2992, 0.5395 0.5034 0.2992, 0.5415 0.5069 0.2992, 0.5396 0.5034 0.2992, 0.5398 0.5023 0.2992, 0.54 0.5016 0.2992, 0.5517 0.4802 0.2992, 0.5478 0.4802 0.2992, 0.5415 0.5069 0.2953, 0.5517 0.4802 0.2953, 0.5378 0.5069 0.2953, 0.5276 0.4802 0.2953, 0.5314 0.4802 0.2953, 0.534 0.4875 0.2953, 0.5451 0.4875 0.2953, 0.5478 0.4802 0.2953, 0.5351 0.4905 0.2953, 0.5441 0.4905 0.2953, 0.54 0.5016 0.2953, 0.5396 0.5034 0.2953, 0.5398 0.5023 0.2953, 0.5395 0.5034 0.2953, 0.5391 0.5016 0.2953, 0.5393 0.5024 0.2953
            ]
        }
        coordIndex [
            0,1,2,-1,2,1,3,-1,4,5,0,-1,0,5,6,-1,0,6,1,-1,1,6,7,-1,4,8,5,-1,5,8,9,-1,5,9,10,-1,10,9,11,-1,10,11,12,-1,12,13,10,-1,10,13,2,-1,10,2,14,-1,14,2,3,-1,14,3,15,-1,10,14,16,-1,16,14,17,-1,5,10,18,-1,18,10,16,-1,6,5,19,-1,19,5,18,-1,7,6,20,-1,20,6,19,-1,1,7,21,-1,21,7,20,-1,3,1,22,-1,22,1,21,-1,15,3,23,-1,23,3,22,-1,14,15,17,-1,17,15,23,-1,0,2,24,-1,24,2,25,-1,2,13,25,-1,25,13,26,-1,11,27,28,-1,11,28,12,-1,12,28,26,-1,12,26,13,-1,11,9,27,-1,27,9,29,-1,4,30,31,-1,4,31,8,-1,8,31,29,-1,8,29,9,-1,4,0,30,-1,30,0,24,-1,
        ]
    }
}
Shape{
    appearance Appearance {
        material  Material 	{
            diffuseColor 0.20784313725490197 0.20784313725490197 0.20784313725490197
            specularColor 0.01568627450980392 0.01568627450980392 0.01568627450980392
            ambientIntensity 0.298
            transparency 0.0
            shininess 0.5
        }
    }
    geometry IndexedFaceSet {
        ccw TRUE
        solid FALSE
        coord DEF co Coordinate {
            point [
                0.5396 0.5034 0.2953, 0.5395 0.5034 0.2953, 0.5398 0.5023 0.2953, 0.5393 0.5024 0.2953, 0.54 0.5016 0.2953, 0.5391 0.5016 0.2953, 0.5441 0.4905 0.2953, 0.5351 0.4905 0.2953
            ]
        }
        coordIndex [
            0,1,2,-1,2,1,3,-1,2,3,4,-1,4,3,5,-1,4,5,6,-1,6,5,7,-1,
        ]
    }
}
Shape{
    appearance Appearance {
        material  Material 	{
            diffuseColor 0.8313725490196079 0.8313725490196079 0.8196078431372549
            specularColor 0.6666666666666666 0.6666666666666666 0.6549019607843137
            ambientIntensity 0.83
            transparency 0.0
            shininess 0.5
        }
    }
    geometry IndexedFaceSet {
        ccw TRUE
        solid FALSE
        coord DEF co Coordinate {
            point [
                0.2932 0.4764 0.2992, 0.2961 0.4729 0.2992, 0.2915 0.4932 0.2992, 0.2882 0.5261 0.2992, 0.2925 0.5284 0.2992, 0.2915 0.5401 0.2992, 0.3033 0.5406 0.2992, 0.3092 0.5268 0.2992, 0.3121 0.5328 0.2992, 0.3283 0.4865 0.2992, 0.3283 0.4884 0.2992, 0.3123 0.493 0.2992, 0.3105 0.4936 0.2992, 0.2874 0.4957 0.2992, 0.2889 0.4812 0.2992, 0.2913 0.4805 0.2992, 0.2989 0.541 0.2992, 0.3151 0.4907 0.2992, 0.316 0.4892 0.2992, 0.3282 0.4845 0.2992, 0.3549 0.5025 0.2992, 0.349 0.5125 0.2992, 0.3236 0.4992 0.2992, 0.3092 0.4937 0.2992, 0.3073 0.4935 0.2992, 0.3048 0.5051 0.2992, 0.3057 0.4929 0.2992, 0.3006 0.5035 0.2992, 0.3042 0.4918 0.2992, 0.2968 0.5008 0.2992, 0.3034 0.491 0.2992, 0.2936 0.4972 0.2992, 0.3024 0.4894 0.2992, 0.3019 0.4876 0.2992, 0.3018 0.4858 0.2992, 0.3163 0.5044 0.2992, 0.3117 0.5056 0.2992, 0.3094 0.5057 0.2992, 0.3139 0.492 0.2992, 0.3612 0.5213 0.2992, 0.3627 0.5213 0.2992, 0.3705 0.5315 0.2992, 0.3663 0.5208 0.2992, 0.3714 0.5312 0.2992, 0.3696 0.5195 0.2992, 0.3771 0.5284 0.2992, 0.3822 0.524 0.2992, 0.3072 0.5451 0.2992, 0.3163 0.5378 0.2992, 0.3116 0.549 0.2992, 0.3214 0.5416 0.2992, 0.3168 0.5521 0.2992, 0.2971 0.5295 0.2992, 0.2991 0.5296 0.2992, 0.3011 0.5409 0.2992, 0.3036 0.5291 0.2992, 0.3078 0.5275 0.2992, 0.3203 0.5023 0.2992, 0.3822 0.4886 0.2992, 0.3734 0.4961 0.2992, 0.3771 0.4842 0.2992, 0.3706 0.4939 0.2992, 0.3713 0.4814 0.2992, 0.3672 0.4923 0.2992, 0.365 0.4801 0.2992, 0.3638 0.4917 0.2992, 0.3538 0.4801 0.2992, 0.3553 0.4917 0.2992, 0.3527 0.4802 0.2992, 0.3022 0.484 0.2992, 0.3029 0.4824 0.2992, 0.3726 0.5175 0.2992, 0.3747 0.515 0.2992, 0.3861 0.5186 0.2992, 0.3765 0.5118 0.2992, 0.3884 0.5128 0.2992, 0.3774 0.5081 0.2992, 0.3893 0.5066 0.2992, 0.3775 0.5065 0.2992, 0.3884 0.4999 0.2992, 0.377 0.5028 0.2992, 0.386 0.4939 0.2992, 0.3757 0.4994 0.2992, 0.3736 0.4964 0.2992, 0.3602 0.5465 0.2992, 0.3528 0.5378 0.2992, 0.3667 0.539 0.2992, 0.3571 0.5327 0.2992, 0.36 0.5265 0.2992, 0.2807 0.5152 0.2992, 0.2682 0.5121 0.2992, 0.2801 0.5106 0.2992, 0.2682 0.5102 0.2992, 0.2804 0.5077 0.2992, 0.2691 0.5028 0.2992, 0.2817 0.5031 0.2992, 0.2718 0.4958 0.2992, 0.284 0.4992 0.2992, 0.2762 0.4896 0.2992, 0.2821 0.4845 0.2992, 0.3165 0.4875 0.2992, 0.3165 0.4856 0.2992, 0.3271 0.4799 0.2992, 0.3161 0.4838 0.2992, 0.3249 0.4756 0.2992, 0.3153 0.4821 0.2992, 0.322 0.4724 0.2992, 0.3141 0.4808 0.2992, 0.3182 0.4697 0.2992, 0.3127 0.4798 0.2992, 0.314 0.4681 0.2992, 0.311 0.4792 0.2992, 0.3094 0.4676 0.2992, 0.3092 0.4789 0.2992, 0.3086 0.4676 0.2992, 0.3089 0.4789 0.2992, 0.3042 0.4683 0.2992, 0.3072 0.4792 0.2992, 0.2998 0.4701 0.2992, 0.3054 0.48 0.2992, 0.304 0.4811 0.2992, 0.3256 0.5553 0.2992, 0.3276 0.5441 0.2992, 0.3344 0.5564 0.2992, 0.3346 0.545 0.2992, 0.3432 0.5553 0.2992, 0.341 0.5442 0.2992, 0.3526 0.5517 0.2992, 0.347 0.5419 0.2992, 0.3523 0.5382 0.2992, 0.2844 0.5373 0.2992, 0.2784 0.5331 0.2992, 0.285 0.5232 0.2992, 0.2771 0.5319 0.2992, 0.2823 0.5195 0.2992, 0.2725 0.526 0.2992, 0.2695 0.5192 0.2992, 0.3543 0.4918 0.2992, 0.3498 0.4821 0.2992, 0.3502 0.4816 0.2992, 0.3549 0.4917 0.2992, 0.3515 0.4807 0.2992, 0.3483 0.486 0.2992, 0.3485 0.4845 0.2992, 0.349 0.4833 0.2992, 0.3527 0.4917 0.2992, 0.3514 0.4911 0.2992, 0.3483 0.4867 0.2992, 0.3502 0.4903 0.2992, 0.3494 0.4894 0.2992, 0.3487 0.4882 0.2992, 0.3542 0.4918 0.2992, 0.3893 0.5066 0.2953, 0.3884 0.5128 0.2953, 0.3877 0.5145 0.2953, 0.3861 0.5186 0.2953, 0.3835 0.5223 0.2953, 0.3822 0.524 0.2953, 0.3771 0.5284 0.2953, 0.3714 0.5312 0.2953, 0.3705 0.5315 0.2953, 0.3667 0.539 0.2953, 0.3602 0.5465 0.2953, 0.356 0.5494 0.2953, 0.3526 0.5517 0.2953, 0.3432 0.5553 0.2953, 0.3344 0.5564 0.2953, 0.3116 0.549 0.2953, 0.3124 0.5494 0.2953, 0.3168 0.5521 0.2953, 0.3256 0.5553 0.2953, 0.3072 0.5451 0.2953, 0.3033 0.5406 0.2953, 0.3011 0.5409 0.2953, 0.2989 0.541 0.2953, 0.2915 0.5401 0.2953, 0.2844 0.5373 0.2953, 0.2784 0.5331 0.2953, 0.2771 0.5319 0.2953, 0.2725 0.526 0.2953, 0.2709 0.5223 0.2953, 0.2695 0.5192 0.2953, 0.2687 0.5145 0.2953, 0.2682 0.5121 0.2953, 0.2682 0.5102 0.2953, 0.2691 0.5028 0.2953, 0.2718 0.4958 0.2953, 0.2762 0.4896 0.2953, 0.2821 0.4845 0.2953, 0.2889 0.4812 0.2953, 0.2913 0.4805 0.2953, 0.2916 0.4799 0.2953, 0.2932 0.4764 0.2953, 0.2961 0.4729 0.2953, 0.2975 0.4719 0.2953, 0.2998 0.4701 0.2953, 0.3042 0.4683 0.2953, 0.3086 0.4676 0.2953, 0.3094 0.4676 0.2953, 0.3283 0.4865 0.2953, 0.314 0.4681 0.2953, 0.3182 0.4697 0.2953, 0.3212 0.4719 0.2953, 0.322 0.4724 0.2953, 0.3249 0.4756 0.2953, 0.3271 0.4799 0.2953, 0.3272 0.4799 0.2953, 0.3282 0.4845 0.2953, 0.3283 0.4884 0.2953, 0.3549 0.5025 0.2953, 0.349 0.5125 0.2953, 0.3236 0.4992 0.2953, 0.3203 0.5023 0.2953, 0.3163 0.5044 0.2953, 0.3117 0.5056 0.2953, 0.3094 0.5057 0.2953, 0.3048 0.5051 0.2953, 0.3006 0.5035 0.2953, 0.2968 0.5008 0.2953, 0.2936 0.4972 0.2953, 0.2915 0.4932 0.2953, 0.2874 0.4957 0.2953, 0.284 0.4992 0.2953, 0.2817 0.5031 0.2953, 0.2804 0.5077 0.2953, 0.2801 0.5106 0.2953, 0.2806 0.5145 0.2953, 0.2807 0.5152 0.2953, 0.2823 0.5195 0.2953, 0.2843 0.5223 0.2953, 0.285 0.5232 0.2953, 0.2882 0.5261 0.2953, 0.2925 0.5284 0.2953, 0.2971 0.5295 0.2953, 0.2991 0.5296 0.2953, 0.3036 0.5291 0.2953, 0.3078 0.5275 0.2953, 0.3092 0.5268 0.2953, 0.3121 0.5328 0.2953, 0.3163 0.5378 0.2953, 0.3214 0.5416 0.2953, 0.3276 0.5441 0.2953, 0.3346 0.545 0.2953, 0.3612 0.5213 0.2953, 0.3609 0.5223 0.2953, 0.36 0.5265 0.2953, 0.3571 0.5327 0.2953, 0.3528 0.5378 0.2953, 0.3523 0.5382 0.2953, 0.347 0.5419 0.2953, 0.341 0.5442 0.2953, 0.3627 0.5213 0.2953, 0.3663 0.5208 0.2953, 0.3696 0.5195 0.2953, 0.3726 0.5175 0.2953, 0.3747 0.515 0.2953, 0.3751 0.5145 0.2953, 0.3765 0.5118 0.2953, 0.3774 0.5081 0.2953, 0.3775 0.5065 0.2953, 0.377 0.5028 0.2953, 0.3757 0.4994 0.2953, 0.3736 0.4964 0.2953, 0.3734 0.4961 0.2953, 0.3706 0.4939 0.2953, 0.3672 0.4923 0.2953, 0.3638 0.4917 0.2953, 0.3553 0.4917 0.2953, 0.3549 0.4917 0.2953, 0.3543 0.4918 0.2953, 0.3542 0.4918 0.2953, 0.3527 0.4917 0.2953, 0.3514 0.4911 0.2953, 0.3502 0.4903 0.2953, 0.3494 0.4894 0.2953, 0.3487 0.4882 0.2953, 0.3483 0.4867 0.2953, 0.3483 0.486 0.2953, 0.3485 0.4845 0.2953, 0.349 0.4833 0.2953, 0.3498 0.4821 0.2953, 0.3502 0.4816 0.2953, 0.3515 0.4807 0.2953, 0.3527 0.4802 0.2953, 0.3538 0.4801 0.2953, 0.365 0.4801 0.2953, 0.3713 0.4814 0.2953, 0.3771 0.4842 0.2953, 0.3822 0.4886 0.2953, 0.386 0.4939 0.2953, 0.3884 0.4999 0.2953, 0.3092 0.4937 0.2953, 0.3105 0.4936 0.2953, 0.3123 0.493 0.2953, 0.3139 0.492 0.2953, 0.3151 0.4907 0.2953, 0.316 0.4892 0.2953, 0.3165 0.4875 0.2953, 0.3165 0.4856 0.2953, 0.3161 0.4838 0.2953, 0.3153 0.4821 0.2953, 0.3141 0.4808 0.2953, 0.3127 0.4798 0.2953, 0.311 0.4792 0.2953, 0.3092 0.4789 0.2953, 0.3089 0.4789 0.2953, 0.3072 0.4792 0.2953, 0.3054 0.48 0.2953, 0.304 0.4811 0.2953, 0.3029 0.4824 0.2953, 0.3022 0.484 0.2953, 0.3018 0.4858 0.2953, 0.3019 0.4876 0.2953, 0.3024 0.4894 0.2953, 0.3034 0.491 0.2953, 0.3042 0.4918 0.2953, 0.3057 0.4929 0.2953, 0.3073 0.4935 0.2953
            ]
        }
        coordIndex [
            0,1,2,-1,3,4,5,-1,6,7,8,-1,9,10,11,-1,11,10,12,-1,13,14,2,-1,2,14,15,-1,2,15,0,-1,5,4,16,-1,17,18,19,-1,20,21,10,-1,10,21,22,-1,10,22,12,-1,12,22,23,-1,24,25,26,-1,26,25,27,-1,26,27,28,-1,28,27,29,-1,28,29,30,-1,30,29,31,-1,30,31,32,-1,32,31,2,-1,32,2,33,-1,33,2,34,-1,35,36,24,-1,24,36,37,-1,24,37,25,-1,9,11,19,-1,19,11,38,-1,19,38,17,-1,39,40,41,-1,41,40,42,-1,41,42,43,-1,43,42,44,-1,43,44,45,-1,45,44,46,-1,6,8,47,-1,47,8,48,-1,47,48,49,-1,49,48,50,-1,49,50,51,-1,4,52,16,-1,16,52,53,-1,16,53,54,-1,54,53,55,-1,54,55,6,-1,6,55,56,-1,6,56,7,-1,23,22,24,-1,24,22,57,-1,24,57,35,-1,58,59,60,-1,60,59,61,-1,60,61,62,-1,62,61,63,-1,62,63,64,-1,64,63,65,-1,64,65,66,-1,66,65,67,-1,66,67,68,-1,34,2,69,-1,69,2,1,-1,69,1,70,-1,44,71,46,-1,46,71,72,-1,46,72,73,-1,73,72,74,-1,73,74,75,-1,75,74,76,-1,75,76,77,-1,77,76,78,-1,77,78,79,-1,79,78,80,-1,79,80,81,-1,81,80,82,-1,81,82,58,-1,58,82,83,-1,58,83,59,-1,84,85,86,-1,86,85,87,-1,86,87,41,-1,41,87,88,-1,41,88,39,-1,89,90,91,-1,91,90,92,-1,91,92,93,-1,93,92,94,-1,93,94,95,-1,95,94,96,-1,95,96,97,-1,97,96,98,-1,97,98,13,-1,13,98,99,-1,13,99,14,-1,18,100,19,-1,19,100,101,-1,19,101,102,-1,102,101,103,-1,102,103,104,-1,104,103,105,-1,104,105,106,-1,106,105,107,-1,106,107,108,-1,108,107,109,-1,108,109,110,-1,110,109,111,-1,110,111,112,-1,112,111,113,-1,112,113,114,-1,114,113,115,-1,114,115,116,-1,116,115,117,-1,116,117,118,-1,118,117,119,-1,118,119,1,-1,1,119,120,-1,1,120,70,-1,51,50,121,-1,121,50,122,-1,121,122,123,-1,123,122,124,-1,123,124,125,-1,125,124,126,-1,125,126,127,-1,127,126,128,-1,127,128,84,-1,84,128,129,-1,84,129,85,-1,5,130,3,-1,3,130,131,-1,3,131,132,-1,132,131,133,-1,132,133,134,-1,134,133,135,-1,134,135,89,-1,89,135,136,-1,89,136,90,-1,137,138,139,-1,67,140,68,-1,68,140,137,-1,68,137,141,-1,141,137,139,-1,142,143,137,-1,137,143,144,-1,137,144,138,-1,145,146,147,-1,146,148,147,-1,147,148,149,-1,147,149,150,-1,142,137,147,-1,147,137,151,-1,147,151,145,-1,77,152,153,-1,77,153,75,-1,75,153,154,-1,75,154,73,-1,154,155,73,-1,73,155,156,-1,73,156,46,-1,156,157,46,-1,46,157,158,-1,46,158,45,-1,45,158,159,-1,45,159,43,-1,43,159,160,-1,43,160,41,-1,41,160,161,-1,41,161,86,-1,86,161,162,-1,86,162,84,-1,84,162,127,-1,127,162,163,-1,163,164,127,-1,127,164,165,-1,127,165,125,-1,125,165,166,-1,125,166,123,-1,167,49,168,-1,168,49,51,-1,168,51,169,-1,169,51,121,-1,169,121,170,-1,170,121,123,-1,170,123,166,-1,49,167,171,-1,49,171,47,-1,47,171,172,-1,47,172,6,-1,6,172,173,-1,6,173,54,-1,54,173,174,-1,54,174,16,-1,16,174,175,-1,16,175,5,-1,5,175,176,-1,5,176,130,-1,130,176,177,-1,130,177,131,-1,131,177,178,-1,131,178,133,-1,136,135,179,-1,179,135,133,-1,179,133,178,-1,179,180,136,-1,136,180,181,-1,136,181,90,-1,90,181,182,-1,182,183,90,-1,90,183,184,-1,90,184,92,-1,92,184,185,-1,92,185,94,-1,94,185,186,-1,94,186,96,-1,96,186,187,-1,96,187,98,-1,98,187,188,-1,98,188,99,-1,99,188,189,-1,99,189,14,-1,14,189,190,-1,14,190,15,-1,15,190,191,-1,15,191,0,-1,191,192,0,-1,0,192,193,-1,0,193,1,-1,1,193,194,-1,1,194,118,-1,194,195,118,-1,118,195,196,-1,118,196,116,-1,116,196,197,-1,116,197,114,-1,114,197,198,-1,114,198,112,-1,199,9,19,-1,112,198,200,-1,112,200,110,-1,110,200,201,-1,110,201,108,-1,108,201,202,-1,108,202,106,-1,202,203,106,-1,106,203,204,-1,106,204,104,-1,104,204,205,-1,104,205,102,-1,102,205,206,-1,102,206,19,-1,19,206,207,-1,19,207,199,-1,10,9,208,-1,208,9,199,-1,20,10,209,-1,209,10,208,-1,21,20,210,-1,210,20,209,-1,22,21,211,-1,211,21,210,-1,22,211,212,-1,22,212,57,-1,57,212,213,-1,57,213,35,-1,35,213,214,-1,35,214,36,-1,36,214,215,-1,36,215,37,-1,37,215,216,-1,37,216,25,-1,25,216,217,-1,25,217,27,-1,27,217,218,-1,27,218,29,-1,29,218,219,-1,29,219,31,-1,31,219,220,-1,31,220,2,-1,2,220,221,-1,2,221,13,-1,13,221,222,-1,13,222,97,-1,97,222,223,-1,97,223,95,-1,95,223,224,-1,95,224,93,-1,93,224,225,-1,93,225,91,-1,225,226,91,-1,91,226,89,-1,226,227,89,-1,89,227,228,-1,89,228,134,-1,134,228,229,-1,134,229,132,-1,229,230,132,-1,132,230,231,-1,132,231,3,-1,3,231,232,-1,3,232,4,-1,4,232,233,-1,4,233,52,-1,52,233,234,-1,52,234,53,-1,53,234,235,-1,53,235,55,-1,55,235,236,-1,55,236,56,-1,56,236,237,-1,56,237,7,-1,7,237,238,-1,7,238,8,-1,8,238,239,-1,8,239,48,-1,48,239,240,-1,48,240,50,-1,50,240,241,-1,50,241,122,-1,122,241,242,-1,122,242,124,-1,243,39,244,-1,244,39,88,-1,244,88,245,-1,245,88,87,-1,245,87,246,-1,246,87,85,-1,246,85,247,-1,247,85,129,-1,247,129,248,-1,248,129,128,-1,248,128,249,-1,249,128,126,-1,249,126,250,-1,250,126,124,-1,250,124,242,-1,40,39,251,-1,251,39,243,-1,40,251,252,-1,40,252,42,-1,42,252,253,-1,42,253,44,-1,44,253,254,-1,44,254,71,-1,71,254,255,-1,71,255,72,-1,72,255,256,-1,72,256,74,-1,256,257,74,-1,74,257,258,-1,74,258,76,-1,76,258,259,-1,76,259,78,-1,78,259,260,-1,78,260,80,-1,80,260,261,-1,80,261,82,-1,82,261,262,-1,82,262,83,-1,83,262,263,-1,83,263,59,-1,59,263,264,-1,59,264,61,-1,61,264,265,-1,61,265,63,-1,63,265,266,-1,63,266,65,-1,67,65,267,-1,267,65,266,-1,67,267,268,-1,67,268,140,-1,140,268,269,-1,140,269,137,-1,137,269,270,-1,137,270,151,-1,151,270,271,-1,151,271,145,-1,145,271,272,-1,145,272,146,-1,146,272,273,-1,146,273,148,-1,148,273,274,-1,148,274,149,-1,149,274,275,-1,149,275,150,-1,150,275,276,-1,150,276,147,-1,147,276,277,-1,147,277,142,-1,142,277,278,-1,142,278,143,-1,143,278,279,-1,143,279,144,-1,144,279,280,-1,144,280,138,-1,138,280,281,-1,138,281,139,-1,139,281,282,-1,139,282,141,-1,141,282,283,-1,141,283,68,-1,68,283,284,-1,68,284,66,-1,64,66,285,-1,285,66,284,-1,64,285,286,-1,64,286,62,-1,62,286,287,-1,62,287,60,-1,60,287,288,-1,60,288,58,-1,58,288,289,-1,58,289,81,-1,81,289,290,-1,81,290,79,-1,79,290,152,-1,79,152,77,-1,23,291,292,-1,23,292,12,-1,12,292,293,-1,12,293,11,-1,11,293,294,-1,11,294,38,-1,38,294,295,-1,38,295,17,-1,17,295,296,-1,17,296,18,-1,18,296,297,-1,18,297,100,-1,100,297,298,-1,100,298,101,-1,101,298,299,-1,101,299,103,-1,103,299,300,-1,103,300,105,-1,105,300,301,-1,105,301,107,-1,107,301,302,-1,107,302,109,-1,109,302,303,-1,109,303,111,-1,111,303,304,-1,111,304,113,-1,113,304,305,-1,113,305,115,-1,115,305,306,-1,115,306,117,-1,117,306,307,-1,117,307,119,-1,119,307,308,-1,119,308,120,-1,120,308,309,-1,120,309,70,-1,70,309,310,-1,70,310,69,-1,69,310,311,-1,69,311,34,-1,34,311,312,-1,34,312,33,-1,33,312,313,-1,33,313,32,-1,32,313,314,-1,32,314,30,-1,30,314,315,-1,30,315,28,-1,28,315,316,-1,28,316,26,-1,26,316,317,-1,26,317,24,-1,24,317,291,-1,24,291,23,-1,
        ]
    }
}
Shape{
    appearance Appearance {
        material  Material 	{
            diffuseColor 0.20784313725490197 0.20784313725490197 0.20784313725490197
            specularColor 0.01568627450980392 0.01568627450980392 0.01568627450980392
            ambientIntensity 0.298
            transparency 0.0
            shininess 0.5
        }
    }
    geometry IndexedFaceSet {
        ccw TRUE
        solid FALSE
        coord DEF co Coordinate {
            point [
                0.3089 0.4789 0.2953, 0.3042 0.4918 0.2953, 0.3034 0.491 0.2953, 0.311 0.4792 0.2953, 0.3127 0.4798 0.2953, 0.3105 0.4936 0.2953, 0.3092 0.4937 0.2953, 0.3073 0.4935 0.2953, 0.3057 0.4929 0.2953, 0.3022 0.484 0.2953, 0.3029 0.4824 0.2953, 0.304 0.4811 0.2953, 0.3092 0.4789 0.2953, 0.316 0.4892 0.2953, 0.3151 0.4907 0.2953, 0.3153 0.4821 0.2953, 0.3139 0.492 0.2953, 0.3024 0.4894 0.2953, 0.3019 0.4876 0.2953, 0.3018 0.4858 0.2953, 0.3054 0.48 0.2953, 0.3072 0.4792 0.2953, 0.3141 0.4808 0.2953, 0.3123 0.493 0.2953, 0.3161 0.4838 0.2953, 0.3165 0.4856 0.2953, 0.3165 0.4875 0.2953
            ]
        }
        coordIndex [
            0,1,2,-1,3,4,5,-1,6,7,0,-1,0,7,8,-1,0,8,1,-1,9,10,2,-1,2,10,11,-1,6,0,5,-1,5,0,12,-1,5,12,3,-1,13,14,15,-1,15,14,16,-1,17,18,2,-1,2,18,19,-1,2,19,9,-1,11,20,2,-1,2,20,21,-1,2,21,0,-1,4,22,5,-1,5,22,15,-1,5,15,23,-1,23,15,16,-1,24,25,15,-1,15,25,26,-1,15,26,13,-1,
        ]
    }
}